G75*
%MOIN*%
%OFA0B0*%
%FSLAX24Y24*%
%IPPOS*%
%LPD*%
%AMOC8*
5,1,8,0,0,1.08239X$1,22.5*
%
%ADD10C,0.0472*%
%ADD11R,0.1600X0.0600*%
%ADD12R,0.0250X0.0500*%
%ADD13OC8,0.0660*%
%ADD14C,0.0660*%
%ADD15C,0.0700*%
%ADD16R,0.0394X0.0433*%
%ADD17R,0.0472X0.0472*%
%ADD18R,0.0433X0.0394*%
%ADD19R,0.0354X0.0315*%
%ADD20C,0.0160*%
%ADD21C,0.0278*%
%ADD22C,0.0100*%
%ADD23C,0.0120*%
%ADD24C,0.0240*%
D10*
X013925Y007094D03*
X013906Y008098D03*
X013906Y009102D03*
X013906Y010087D03*
X013906Y011091D03*
X013906Y012094D03*
X013906Y013098D03*
X014949Y014122D03*
X015972Y014122D03*
X016957Y014122D03*
X017941Y014122D03*
X018945Y014122D03*
X019949Y013098D03*
X019949Y012114D03*
X019949Y011110D03*
X019949Y010087D03*
X019949Y009102D03*
X019949Y008098D03*
X019949Y007094D03*
X018945Y006091D03*
X017941Y006091D03*
X016937Y006091D03*
X015933Y006091D03*
X014949Y006091D03*
D11*
X026327Y006075D03*
X026327Y005075D03*
X026327Y007075D03*
D12*
X014378Y016051D03*
X014024Y016051D03*
D13*
X013900Y020500D03*
X012900Y020500D03*
X011900Y020500D03*
X010900Y020500D03*
X009900Y020500D03*
X008900Y020500D03*
X007900Y020500D03*
X014900Y020500D03*
X015900Y020500D03*
X016900Y020500D03*
X018500Y020500D03*
X019500Y020500D03*
X020500Y020500D03*
X021500Y020500D03*
X022500Y020500D03*
X023500Y020500D03*
X024500Y020500D03*
X025500Y020500D03*
X025500Y001500D03*
X024500Y001500D03*
X023500Y001500D03*
X022500Y001500D03*
X021500Y001500D03*
X020500Y001500D03*
X018500Y001500D03*
X017500Y001500D03*
X016500Y001500D03*
X015500Y001500D03*
X014500Y001500D03*
X013500Y001500D03*
X012500Y001500D03*
X011500Y001500D03*
D14*
X020504Y003492D03*
X021504Y003492D03*
X022504Y003492D03*
X023496Y003492D03*
X024496Y003492D03*
X025496Y003492D03*
X025496Y016484D03*
X024496Y016484D03*
X023496Y016484D03*
X022484Y016484D03*
X021484Y016484D03*
X020484Y016484D03*
X016913Y018492D03*
X015913Y018492D03*
X014913Y018492D03*
X013921Y018492D03*
X012921Y018492D03*
X011921Y018492D03*
D15*
X010898Y018492D03*
X009898Y018492D03*
X008898Y018492D03*
X007898Y018492D03*
X018508Y018492D03*
X019508Y018492D03*
X020508Y018492D03*
X021508Y018492D03*
X022504Y018492D03*
X023504Y018492D03*
X024504Y018492D03*
X025504Y018492D03*
X018496Y003472D03*
X017496Y003472D03*
X016496Y003472D03*
X015496Y003472D03*
X014500Y003492D03*
X013500Y003492D03*
X012500Y003492D03*
X011500Y003492D03*
D16*
X025283Y009063D03*
X025953Y009063D03*
X025953Y012173D03*
X025283Y012173D03*
D17*
X025146Y011130D03*
X025972Y011130D03*
X025972Y010087D03*
X025146Y010087D03*
D18*
X024257Y009597D03*
X024257Y008928D03*
X021863Y008928D03*
X021863Y009597D03*
X021863Y011648D03*
X021863Y012318D03*
X024257Y012318D03*
X024257Y011648D03*
D19*
X023483Y011972D03*
X022656Y012346D03*
X022656Y011598D03*
X022656Y009645D03*
X023483Y009271D03*
X022656Y008897D03*
D20*
X001112Y001034D02*
X001067Y001096D01*
X001043Y001170D01*
X001040Y001209D01*
X001040Y020776D01*
X001043Y020814D01*
X001067Y020888D01*
X001112Y020951D01*
X001175Y020996D01*
X001249Y021020D01*
X001249Y021020D01*
X005602Y021020D01*
X005543Y020918D01*
X005473Y020655D01*
X005473Y020384D01*
X005543Y020122D01*
X005679Y019887D01*
X005871Y019695D01*
X006106Y019559D01*
X006368Y019489D01*
X006640Y019489D01*
X006902Y019559D01*
X007137Y019695D01*
X007329Y019887D01*
X007465Y020122D01*
X007490Y020217D01*
X007660Y020047D01*
X007660Y018946D01*
X007609Y018924D01*
X007465Y018781D01*
X007388Y018594D01*
X007388Y018391D01*
X007465Y018203D01*
X007609Y018060D01*
X007796Y017982D01*
X007999Y017982D01*
X008187Y018060D01*
X008330Y018203D01*
X008398Y018367D01*
X008465Y018203D01*
X008609Y018060D01*
X008796Y017982D01*
X008999Y017982D01*
X009187Y018060D01*
X009330Y018203D01*
X009398Y018367D01*
X009465Y018203D01*
X009609Y018060D01*
X009796Y017982D01*
X009999Y017982D01*
X010187Y018060D01*
X010330Y018203D01*
X010398Y018367D01*
X010465Y018203D01*
X010609Y018060D01*
X010796Y017982D01*
X010999Y017982D01*
X011187Y018060D01*
X011330Y018203D01*
X011408Y018391D01*
X011408Y018594D01*
X011330Y018781D01*
X011187Y018924D01*
X011140Y018944D01*
X011140Y020047D01*
X011390Y020297D01*
X011390Y020703D01*
X011103Y020990D01*
X010697Y020990D01*
X010410Y020703D01*
X010410Y020297D01*
X010660Y020047D01*
X010660Y018946D01*
X010609Y018924D01*
X010465Y018781D01*
X010398Y018618D01*
X010330Y018781D01*
X010187Y018924D01*
X010140Y018944D01*
X010140Y020047D01*
X010390Y020297D01*
X010390Y020703D01*
X010103Y020990D01*
X009697Y020990D01*
X009410Y020703D01*
X009410Y020297D01*
X009660Y020047D01*
X009660Y018946D01*
X009609Y018924D01*
X009465Y018781D01*
X009398Y018618D01*
X009330Y018781D01*
X009187Y018924D01*
X009140Y018944D01*
X009140Y020047D01*
X009390Y020297D01*
X009390Y020703D01*
X009103Y020990D01*
X008697Y020990D01*
X008410Y020703D01*
X008410Y020297D01*
X008660Y020047D01*
X008660Y018946D01*
X008609Y018924D01*
X008465Y018781D01*
X008398Y018618D01*
X008330Y018781D01*
X008187Y018924D01*
X008140Y018944D01*
X008140Y020047D01*
X008390Y020297D01*
X008390Y020703D01*
X008103Y020990D01*
X007697Y020990D01*
X007499Y020792D01*
X007465Y020918D01*
X007406Y021020D01*
X025701Y021020D01*
X026020Y020701D01*
X026020Y016305D01*
X026093Y016128D01*
X026212Y016009D01*
X026288Y015877D01*
X026336Y015830D01*
X026336Y015830D01*
X026645Y015521D01*
X026620Y015527D01*
X026348Y015527D01*
X026086Y015457D01*
X025851Y015321D01*
X025659Y015129D01*
X025523Y014894D01*
X025453Y014632D01*
X025453Y014360D01*
X025523Y014098D01*
X025659Y013863D01*
X025851Y013671D01*
X026086Y013535D01*
X026348Y013465D01*
X026620Y013465D01*
X026882Y013535D01*
X027020Y013615D01*
X027020Y007555D01*
X026397Y007555D01*
X026397Y007145D01*
X026257Y007145D01*
X026257Y007555D01*
X025503Y007555D01*
X025457Y007543D01*
X025416Y007519D01*
X025383Y007485D01*
X025359Y007444D01*
X025347Y007399D01*
X025347Y007145D01*
X026257Y007145D01*
X026257Y007005D01*
X026397Y007005D01*
X026397Y006595D01*
X027020Y006595D01*
X027020Y006535D01*
X025460Y006535D01*
X025367Y006441D01*
X025367Y006315D01*
X019281Y006315D01*
X019169Y006426D01*
X019024Y006487D01*
X018866Y006487D01*
X018720Y006426D01*
X018609Y006315D01*
X018549Y006169D01*
X018549Y006012D01*
X018609Y005866D01*
X018720Y005755D01*
X018866Y005694D01*
X019024Y005694D01*
X019169Y005755D01*
X019249Y005835D01*
X025367Y005835D01*
X025367Y005709D01*
X025460Y005615D01*
X027020Y005615D01*
X027020Y005555D01*
X026397Y005555D01*
X026397Y005145D01*
X026257Y005145D01*
X026257Y005555D01*
X025503Y005555D01*
X025457Y005543D01*
X025416Y005519D01*
X025383Y005485D01*
X025359Y005444D01*
X025347Y005399D01*
X025347Y005145D01*
X026257Y005145D01*
X026257Y005005D01*
X026397Y005005D01*
X026397Y004595D01*
X027020Y004595D01*
X027020Y004374D01*
X026882Y004453D01*
X026620Y004523D01*
X026348Y004523D01*
X026086Y004453D01*
X025851Y004317D01*
X025659Y004125D01*
X025576Y003982D01*
X025399Y003982D01*
X025219Y003908D01*
X025081Y003770D01*
X025006Y003590D01*
X025006Y003395D01*
X025081Y003215D01*
X025219Y003077D01*
X025260Y003060D01*
X025260Y001953D01*
X025010Y001703D01*
X025010Y001297D01*
X025297Y001010D01*
X025703Y001010D01*
X025990Y001297D01*
X025990Y001703D01*
X025740Y001953D01*
X025740Y002778D01*
X025851Y002667D01*
X026086Y002531D01*
X026348Y002461D01*
X026620Y002461D01*
X026841Y002520D01*
X026093Y001772D01*
X026020Y001595D01*
X026020Y001469D01*
X026016Y001460D01*
X026016Y001460D01*
X026020Y001368D01*
X026020Y001171D01*
X026020Y001170D01*
X025996Y001096D01*
X025951Y001034D01*
X025888Y000988D01*
X025863Y000980D01*
X006900Y000980D01*
X006973Y001106D01*
X007043Y001368D01*
X007043Y001640D01*
X006973Y001902D01*
X006837Y002137D01*
X006645Y002329D01*
X006410Y002465D01*
X006148Y002535D01*
X005876Y002535D01*
X005614Y002465D01*
X005379Y002329D01*
X005187Y002137D01*
X005051Y001902D01*
X004981Y001640D01*
X004981Y001368D01*
X005051Y001106D01*
X005124Y000980D01*
X001200Y000980D01*
X001175Y000988D01*
X001112Y001034D01*
X001078Y001081D02*
X005065Y001081D01*
X005015Y001240D02*
X001040Y001240D01*
X001040Y001398D02*
X004981Y001398D01*
X004981Y001557D02*
X001040Y001557D01*
X001040Y001715D02*
X005001Y001715D01*
X005043Y001874D02*
X001040Y001874D01*
X001040Y002032D02*
X005126Y002032D01*
X005240Y002191D02*
X001040Y002191D01*
X001040Y002349D02*
X005413Y002349D01*
X005773Y002508D02*
X001040Y002508D01*
X001040Y002666D02*
X011260Y002666D01*
X011260Y002508D02*
X006250Y002508D01*
X006610Y002349D02*
X011260Y002349D01*
X011260Y002191D02*
X006783Y002191D01*
X006898Y002032D02*
X011260Y002032D01*
X011260Y001953D02*
X011010Y001703D01*
X011010Y001297D01*
X011297Y001010D01*
X011703Y001010D01*
X011990Y001297D01*
X011990Y001703D01*
X011740Y001953D01*
X011740Y003040D01*
X011789Y003060D01*
X011932Y003203D01*
X012000Y003367D01*
X012068Y003203D01*
X012211Y003060D01*
X012260Y003040D01*
X012260Y001953D01*
X012010Y001703D01*
X012010Y001297D01*
X012297Y001010D01*
X012703Y001010D01*
X012990Y001297D01*
X012990Y001703D01*
X012740Y001953D01*
X012740Y003040D01*
X012789Y003060D01*
X012932Y003203D01*
X013000Y003367D01*
X013068Y003203D01*
X013211Y003060D01*
X013260Y003040D01*
X013260Y001953D01*
X013010Y001703D01*
X013010Y001297D01*
X013297Y001010D01*
X013703Y001010D01*
X013990Y001297D01*
X013990Y001703D01*
X013740Y001953D01*
X013740Y003040D01*
X013789Y003060D01*
X013932Y003203D01*
X014000Y003367D01*
X014068Y003203D01*
X014211Y003060D01*
X014220Y003056D01*
X014220Y001913D01*
X014010Y001703D01*
X014010Y001297D01*
X014297Y001010D01*
X014703Y001010D01*
X014990Y001297D01*
X014990Y001703D01*
X014780Y001913D01*
X014780Y003056D01*
X014789Y003060D01*
X014932Y003203D01*
X014994Y003352D01*
X015064Y003184D01*
X015207Y003040D01*
X015220Y003035D01*
X015220Y001913D01*
X015010Y001703D01*
X015010Y001297D01*
X015297Y001010D01*
X015703Y001010D01*
X015990Y001297D01*
X015990Y001703D01*
X015780Y001913D01*
X015780Y003038D01*
X015785Y003040D01*
X015928Y003184D01*
X015987Y003325D01*
X016005Y003269D01*
X016043Y003195D01*
X016092Y003127D01*
X016151Y003068D01*
X016218Y003019D01*
X016293Y002981D01*
X016372Y002955D01*
X016454Y002942D01*
X016476Y002942D01*
X016476Y003452D01*
X016516Y003452D01*
X016516Y002942D01*
X016538Y002942D01*
X016620Y002955D01*
X016700Y002981D01*
X016774Y003019D01*
X016841Y003068D01*
X016900Y003127D01*
X016949Y003195D01*
X016987Y003269D01*
X016996Y003296D01*
X017005Y003269D01*
X017043Y003195D01*
X017092Y003127D01*
X017151Y003068D01*
X017218Y003019D01*
X017293Y002981D01*
X017372Y002955D01*
X017454Y002942D01*
X017476Y002942D01*
X017476Y003452D01*
X017516Y003452D01*
X017516Y002942D01*
X017538Y002942D01*
X017620Y002955D01*
X017700Y002981D01*
X017774Y003019D01*
X017841Y003068D01*
X017900Y003127D01*
X017949Y003195D01*
X017987Y003269D01*
X018005Y003325D01*
X018064Y003184D01*
X018207Y003040D01*
X018260Y003018D01*
X018260Y001953D01*
X018010Y001703D01*
X018010Y001297D01*
X018297Y001010D01*
X018703Y001010D01*
X018990Y001297D01*
X018990Y001703D01*
X018740Y001953D01*
X018740Y003021D01*
X018785Y003040D01*
X018928Y003184D01*
X019006Y003371D01*
X019006Y003574D01*
X018928Y003761D01*
X018785Y003905D01*
X018598Y003982D01*
X018395Y003982D01*
X018207Y003905D01*
X018064Y003761D01*
X018005Y003620D01*
X017987Y003676D01*
X017949Y003750D01*
X017900Y003818D01*
X017841Y003877D01*
X017774Y003926D01*
X017700Y003964D01*
X017620Y003989D01*
X017538Y004002D01*
X017516Y004002D01*
X017516Y003492D01*
X017476Y003492D01*
X017476Y003452D01*
X016966Y003452D01*
X016516Y003452D01*
X016516Y003492D01*
X017476Y003492D01*
X017476Y004002D01*
X017454Y004002D01*
X017372Y003989D01*
X017293Y003964D01*
X017218Y003926D01*
X017151Y003877D01*
X017092Y003818D01*
X017043Y003750D01*
X017005Y003676D01*
X016996Y003649D01*
X016987Y003676D01*
X016949Y003750D01*
X016900Y003818D01*
X016841Y003877D01*
X016774Y003926D01*
X016700Y003964D01*
X016620Y003989D01*
X016538Y004002D01*
X016516Y004002D01*
X016516Y003492D01*
X016476Y003492D01*
X016476Y004002D01*
X016454Y004002D01*
X016372Y003989D01*
X016293Y003964D01*
X016218Y003926D01*
X016151Y003877D01*
X016092Y003818D01*
X016043Y003750D01*
X016005Y003676D01*
X015987Y003620D01*
X015928Y003761D01*
X015785Y003905D01*
X015598Y003982D01*
X015395Y003982D01*
X015207Y003905D01*
X015064Y003761D01*
X015002Y003613D01*
X014932Y003781D01*
X014789Y003924D01*
X014601Y004002D01*
X014399Y004002D01*
X014211Y003924D01*
X014068Y003781D01*
X014000Y003618D01*
X013932Y003781D01*
X013789Y003924D01*
X013601Y004002D01*
X013399Y004002D01*
X013211Y003924D01*
X013068Y003781D01*
X013000Y003618D01*
X012932Y003781D01*
X012789Y003924D01*
X012601Y004002D01*
X012399Y004002D01*
X012211Y003924D01*
X012068Y003781D01*
X012000Y003618D01*
X011932Y003781D01*
X011789Y003924D01*
X011601Y004002D01*
X011399Y004002D01*
X011211Y003924D01*
X011068Y003781D01*
X010990Y003594D01*
X010990Y003391D01*
X011068Y003203D01*
X011211Y003060D01*
X011260Y003040D01*
X011260Y001953D01*
X011181Y001874D02*
X006980Y001874D01*
X007023Y001715D02*
X011022Y001715D01*
X011010Y001557D02*
X007043Y001557D01*
X007043Y001398D02*
X011010Y001398D01*
X011067Y001240D02*
X007009Y001240D01*
X006958Y001081D02*
X011226Y001081D01*
X011500Y001500D02*
X011500Y003492D01*
X011871Y003142D02*
X012129Y003142D01*
X012028Y003300D02*
X011972Y003300D01*
X012500Y003492D02*
X012500Y001500D01*
X012010Y001557D02*
X011990Y001557D01*
X011978Y001715D02*
X012022Y001715D01*
X012181Y001874D02*
X011819Y001874D01*
X011740Y002032D02*
X012260Y002032D01*
X012260Y002191D02*
X011740Y002191D01*
X011740Y002349D02*
X012260Y002349D01*
X012260Y002508D02*
X011740Y002508D01*
X011740Y002666D02*
X012260Y002666D01*
X012260Y002825D02*
X011740Y002825D01*
X011740Y002983D02*
X012260Y002983D01*
X012740Y002983D02*
X013260Y002983D01*
X013260Y002825D02*
X012740Y002825D01*
X012740Y002666D02*
X013260Y002666D01*
X013260Y002508D02*
X012740Y002508D01*
X012740Y002349D02*
X013260Y002349D01*
X013260Y002191D02*
X012740Y002191D01*
X012740Y002032D02*
X013260Y002032D01*
X013181Y001874D02*
X012819Y001874D01*
X012978Y001715D02*
X013022Y001715D01*
X013010Y001557D02*
X012990Y001557D01*
X012990Y001398D02*
X013010Y001398D01*
X013067Y001240D02*
X012933Y001240D01*
X012774Y001081D02*
X013226Y001081D01*
X013500Y001500D02*
X013500Y003492D01*
X013871Y003142D02*
X014129Y003142D01*
X014220Y002983D02*
X013740Y002983D01*
X013740Y002825D02*
X014220Y002825D01*
X014220Y002666D02*
X013740Y002666D01*
X013740Y002508D02*
X014220Y002508D01*
X014220Y002349D02*
X013740Y002349D01*
X013740Y002191D02*
X014220Y002191D01*
X014220Y002032D02*
X013740Y002032D01*
X013819Y001874D02*
X014181Y001874D01*
X014022Y001715D02*
X013978Y001715D01*
X013990Y001557D02*
X014010Y001557D01*
X014010Y001398D02*
X013990Y001398D01*
X013933Y001240D02*
X014067Y001240D01*
X014226Y001081D02*
X013774Y001081D01*
X014774Y001081D02*
X015226Y001081D01*
X015067Y001240D02*
X014933Y001240D01*
X014990Y001398D02*
X015010Y001398D01*
X015010Y001557D02*
X014990Y001557D01*
X014978Y001715D02*
X015022Y001715D01*
X015181Y001874D02*
X014819Y001874D01*
X014780Y002032D02*
X015220Y002032D01*
X015220Y002191D02*
X014780Y002191D01*
X014780Y002349D02*
X015220Y002349D01*
X015220Y002508D02*
X014780Y002508D01*
X014780Y002666D02*
X015220Y002666D01*
X015220Y002825D02*
X014780Y002825D01*
X014780Y002983D02*
X015220Y002983D01*
X015106Y003142D02*
X014871Y003142D01*
X014972Y003300D02*
X015015Y003300D01*
X015000Y003617D02*
X015004Y003617D01*
X014935Y003776D02*
X015078Y003776D01*
X015278Y003934D02*
X014766Y003934D01*
X014234Y003934D02*
X013766Y003934D01*
X013935Y003776D02*
X014065Y003776D01*
X014028Y003300D02*
X013972Y003300D01*
X013129Y003142D02*
X012871Y003142D01*
X012972Y003300D02*
X013028Y003300D01*
X013065Y003776D02*
X012935Y003776D01*
X012766Y003934D02*
X013234Y003934D01*
X012234Y003934D02*
X011766Y003934D01*
X011935Y003776D02*
X012065Y003776D01*
X011234Y003934D02*
X001040Y003934D01*
X001040Y003776D02*
X011065Y003776D01*
X011000Y003617D02*
X001040Y003617D01*
X001040Y003459D02*
X010990Y003459D01*
X011028Y003300D02*
X001040Y003300D01*
X001040Y003142D02*
X011129Y003142D01*
X011260Y002983D02*
X001040Y002983D01*
X001040Y002825D02*
X011260Y002825D01*
X011990Y001398D02*
X012010Y001398D01*
X012067Y001240D02*
X011933Y001240D01*
X011774Y001081D02*
X012226Y001081D01*
X015774Y001081D02*
X016198Y001081D01*
X016289Y000990D02*
X016482Y000990D01*
X016482Y001482D01*
X016518Y001482D01*
X016518Y000990D01*
X016711Y000990D01*
X017000Y001279D01*
X017289Y000990D01*
X017482Y000990D01*
X017482Y001482D01*
X017518Y001482D01*
X017518Y001518D01*
X017482Y001518D01*
X017482Y002010D01*
X017289Y002010D01*
X017000Y001721D01*
X016711Y002010D01*
X016518Y002010D01*
X016518Y001518D01*
X016482Y001518D01*
X016482Y002010D01*
X016289Y002010D01*
X015990Y001711D01*
X015990Y001518D01*
X016482Y001518D01*
X016482Y001482D01*
X015990Y001482D01*
X015990Y001289D01*
X016289Y000990D01*
X016482Y001081D02*
X016518Y001081D01*
X016518Y001240D02*
X016482Y001240D01*
X016482Y001398D02*
X016518Y001398D01*
X016518Y001482D02*
X016518Y001518D01*
X017010Y001518D01*
X017482Y001518D01*
X017482Y001482D01*
X016518Y001482D01*
X016500Y001500D02*
X016500Y003469D01*
X016496Y003472D01*
X016516Y003459D02*
X017476Y003459D01*
X017496Y003472D02*
X017500Y003469D01*
X017500Y001500D01*
X017518Y001518D02*
X017518Y002010D01*
X017711Y002010D01*
X018010Y001711D01*
X018010Y001518D01*
X017518Y001518D01*
X017518Y001482D02*
X018010Y001482D01*
X018010Y001289D01*
X017711Y000990D01*
X017518Y000990D01*
X017518Y001482D01*
X017518Y001557D02*
X017482Y001557D01*
X017482Y001715D02*
X017518Y001715D01*
X017518Y001874D02*
X017482Y001874D01*
X017152Y001874D02*
X016848Y001874D01*
X016518Y001874D02*
X016482Y001874D01*
X016482Y001715D02*
X016518Y001715D01*
X016518Y001557D02*
X016482Y001557D01*
X016152Y001874D02*
X015819Y001874D01*
X015780Y002032D02*
X018260Y002032D01*
X018260Y002191D02*
X015780Y002191D01*
X015780Y002349D02*
X018260Y002349D01*
X018260Y002508D02*
X015780Y002508D01*
X015780Y002666D02*
X018260Y002666D01*
X018260Y002825D02*
X015780Y002825D01*
X015780Y002983D02*
X016289Y002983D01*
X016476Y002983D02*
X016516Y002983D01*
X016516Y003142D02*
X016476Y003142D01*
X016476Y003300D02*
X016516Y003300D01*
X016516Y003617D02*
X016476Y003617D01*
X016476Y003776D02*
X016516Y003776D01*
X016516Y003934D02*
X016476Y003934D01*
X016235Y003934D02*
X015714Y003934D01*
X015914Y003776D02*
X016061Y003776D01*
X015995Y003300D02*
X015977Y003300D01*
X015886Y003142D02*
X016081Y003142D01*
X016703Y002983D02*
X017289Y002983D01*
X017476Y002983D02*
X017516Y002983D01*
X017516Y003142D02*
X017476Y003142D01*
X017476Y003300D02*
X017516Y003300D01*
X017516Y003617D02*
X017476Y003617D01*
X017476Y003776D02*
X017516Y003776D01*
X017516Y003934D02*
X017476Y003934D01*
X017235Y003934D02*
X016757Y003934D01*
X016931Y003776D02*
X017061Y003776D01*
X017757Y003934D02*
X018278Y003934D01*
X018078Y003776D02*
X017931Y003776D01*
X017997Y003300D02*
X018015Y003300D01*
X018106Y003142D02*
X017911Y003142D01*
X017703Y002983D02*
X018260Y002983D01*
X018740Y002983D02*
X020260Y002983D01*
X020260Y003063D02*
X020260Y001953D01*
X020010Y001703D01*
X020010Y001297D01*
X020297Y001010D01*
X020703Y001010D01*
X020990Y001297D01*
X020990Y001703D01*
X020740Y001953D01*
X020740Y003060D01*
X020781Y003077D01*
X020919Y003215D01*
X020994Y003395D01*
X020994Y003590D01*
X020919Y003770D01*
X020781Y003908D01*
X020601Y003982D01*
X020406Y003982D01*
X020226Y003908D01*
X020089Y003770D01*
X020014Y003590D01*
X020014Y003395D01*
X020089Y003215D01*
X020226Y003077D01*
X020260Y003063D01*
X020162Y003142D02*
X018886Y003142D01*
X018977Y003300D02*
X020053Y003300D01*
X020014Y003459D02*
X019006Y003459D01*
X018988Y003617D02*
X020025Y003617D01*
X020094Y003776D02*
X018914Y003776D01*
X018714Y003934D02*
X020290Y003934D01*
X020717Y003934D02*
X021290Y003934D01*
X021226Y003908D02*
X021089Y003770D01*
X021014Y003590D01*
X021014Y003395D01*
X021089Y003215D01*
X021226Y003077D01*
X021260Y003063D01*
X021260Y001953D01*
X021010Y001703D01*
X021010Y001297D01*
X021297Y001010D01*
X021703Y001010D01*
X021990Y001297D01*
X021990Y001703D01*
X021740Y001953D01*
X021740Y003060D01*
X021781Y003077D01*
X021919Y003215D01*
X021994Y003395D01*
X021994Y003590D01*
X021919Y003770D01*
X021781Y003908D01*
X021601Y003982D01*
X021406Y003982D01*
X021226Y003908D01*
X021094Y003776D02*
X020913Y003776D01*
X020983Y003617D02*
X021025Y003617D01*
X021014Y003459D02*
X020994Y003459D01*
X020955Y003300D02*
X021053Y003300D01*
X021162Y003142D02*
X020846Y003142D01*
X020740Y002983D02*
X021260Y002983D01*
X021260Y002825D02*
X020740Y002825D01*
X020740Y002666D02*
X021260Y002666D01*
X021260Y002508D02*
X020740Y002508D01*
X020740Y002349D02*
X021260Y002349D01*
X021260Y002191D02*
X020740Y002191D01*
X020740Y002032D02*
X021260Y002032D01*
X021181Y001874D02*
X020819Y001874D01*
X020978Y001715D02*
X021022Y001715D01*
X021010Y001557D02*
X020990Y001557D01*
X020990Y001398D02*
X021010Y001398D01*
X021067Y001240D02*
X020933Y001240D01*
X020774Y001081D02*
X021226Y001081D01*
X021500Y001500D02*
X021500Y003488D01*
X021504Y003492D01*
X021846Y003142D02*
X022162Y003142D01*
X022226Y003077D02*
X022260Y003063D01*
X022260Y001953D01*
X022010Y001703D01*
X022010Y001297D01*
X022297Y001010D01*
X022703Y001010D01*
X022990Y001297D01*
X022990Y001703D01*
X022740Y001953D01*
X022740Y003060D01*
X022781Y003077D01*
X022919Y003215D01*
X022994Y003395D01*
X022994Y003590D01*
X022919Y003770D01*
X022781Y003908D01*
X022601Y003982D01*
X022406Y003982D01*
X022226Y003908D01*
X022089Y003770D01*
X022014Y003590D01*
X022014Y003395D01*
X022089Y003215D01*
X022226Y003077D01*
X022260Y002983D02*
X021740Y002983D01*
X021740Y002825D02*
X022260Y002825D01*
X022260Y002666D02*
X021740Y002666D01*
X021740Y002508D02*
X022260Y002508D01*
X022260Y002349D02*
X021740Y002349D01*
X021740Y002191D02*
X022260Y002191D01*
X022260Y002032D02*
X021740Y002032D01*
X021819Y001874D02*
X022181Y001874D01*
X022022Y001715D02*
X021978Y001715D01*
X021990Y001557D02*
X022010Y001557D01*
X022010Y001398D02*
X021990Y001398D01*
X021933Y001240D02*
X022067Y001240D01*
X022226Y001081D02*
X021774Y001081D01*
X022500Y001500D02*
X022500Y003488D01*
X022504Y003492D01*
X022053Y003300D02*
X021955Y003300D01*
X021994Y003459D02*
X022014Y003459D01*
X022025Y003617D02*
X021983Y003617D01*
X021913Y003776D02*
X022094Y003776D01*
X022290Y003934D02*
X021717Y003934D01*
X022717Y003934D02*
X023283Y003934D01*
X023219Y003908D02*
X023081Y003770D01*
X023006Y003590D01*
X023006Y003395D01*
X023081Y003215D01*
X023219Y003077D01*
X023260Y003060D01*
X023260Y001953D01*
X023010Y001703D01*
X023010Y001297D01*
X023297Y001010D01*
X023703Y001010D01*
X023990Y001297D01*
X023990Y001703D01*
X023740Y001953D01*
X023740Y003063D01*
X023774Y003077D01*
X023911Y003215D01*
X023986Y003395D01*
X023986Y003590D01*
X023911Y003770D01*
X023774Y003908D01*
X023594Y003982D01*
X023399Y003982D01*
X023219Y003908D01*
X023087Y003776D02*
X022913Y003776D01*
X022983Y003617D02*
X023017Y003617D01*
X023006Y003459D02*
X022994Y003459D01*
X022955Y003300D02*
X023045Y003300D01*
X023154Y003142D02*
X022846Y003142D01*
X022740Y002983D02*
X023260Y002983D01*
X023260Y002825D02*
X022740Y002825D01*
X022740Y002666D02*
X023260Y002666D01*
X023260Y002508D02*
X022740Y002508D01*
X022740Y002349D02*
X023260Y002349D01*
X023260Y002191D02*
X022740Y002191D01*
X022740Y002032D02*
X023260Y002032D01*
X023181Y001874D02*
X022819Y001874D01*
X022978Y001715D02*
X023022Y001715D01*
X023010Y001557D02*
X022990Y001557D01*
X022990Y001398D02*
X023010Y001398D01*
X023067Y001240D02*
X022933Y001240D01*
X022774Y001081D02*
X023226Y001081D01*
X023500Y001500D02*
X023500Y003488D01*
X023496Y003492D01*
X023838Y003142D02*
X024154Y003142D01*
X024219Y003077D02*
X024081Y003215D01*
X024006Y003395D01*
X024006Y003590D01*
X024081Y003770D01*
X024219Y003908D01*
X024399Y003982D01*
X024594Y003982D01*
X024774Y003908D01*
X024911Y003770D01*
X024986Y003590D01*
X024986Y003395D01*
X024911Y003215D01*
X024774Y003077D01*
X024740Y003063D01*
X024740Y001953D01*
X024990Y001703D01*
X024990Y001297D01*
X024703Y001010D01*
X024297Y001010D01*
X024010Y001297D01*
X024010Y001703D01*
X024260Y001953D01*
X024260Y003060D01*
X024219Y003077D01*
X024260Y002983D02*
X023740Y002983D01*
X023740Y002825D02*
X024260Y002825D01*
X024260Y002666D02*
X023740Y002666D01*
X023740Y002508D02*
X024260Y002508D01*
X024260Y002349D02*
X023740Y002349D01*
X023740Y002191D02*
X024260Y002191D01*
X024260Y002032D02*
X023740Y002032D01*
X023819Y001874D02*
X024181Y001874D01*
X024022Y001715D02*
X023978Y001715D01*
X023990Y001557D02*
X024010Y001557D01*
X024010Y001398D02*
X023990Y001398D01*
X023933Y001240D02*
X024067Y001240D01*
X024226Y001081D02*
X023774Y001081D01*
X024500Y001500D02*
X024500Y003488D01*
X024496Y003492D01*
X024838Y003142D02*
X025154Y003142D01*
X025260Y002983D02*
X024740Y002983D01*
X024740Y002825D02*
X025260Y002825D01*
X025260Y002666D02*
X024740Y002666D01*
X024740Y002508D02*
X025260Y002508D01*
X025260Y002349D02*
X024740Y002349D01*
X024740Y002191D02*
X025260Y002191D01*
X025260Y002032D02*
X024740Y002032D01*
X024819Y001874D02*
X025181Y001874D01*
X025022Y001715D02*
X024978Y001715D01*
X024990Y001557D02*
X025010Y001557D01*
X025010Y001398D02*
X024990Y001398D01*
X024933Y001240D02*
X025067Y001240D01*
X025226Y001081D02*
X024774Y001081D01*
X025500Y001500D02*
X025500Y003488D01*
X025496Y003492D01*
X025045Y003300D02*
X024947Y003300D01*
X024986Y003459D02*
X025006Y003459D01*
X025017Y003617D02*
X024975Y003617D01*
X024906Y003776D02*
X025087Y003776D01*
X025283Y003934D02*
X024710Y003934D01*
X024283Y003934D02*
X023710Y003934D01*
X023906Y003776D02*
X024087Y003776D01*
X024017Y003617D02*
X023975Y003617D01*
X023986Y003459D02*
X024006Y003459D01*
X024045Y003300D02*
X023947Y003300D01*
X025457Y004607D02*
X025503Y004595D01*
X026257Y004595D01*
X026257Y005005D01*
X025347Y005005D01*
X025347Y004751D01*
X025359Y004705D01*
X025383Y004664D01*
X025416Y004631D01*
X025457Y004607D01*
X025353Y004727D02*
X001040Y004727D01*
X001040Y004885D02*
X025347Y004885D01*
X025347Y005202D02*
X001040Y005202D01*
X001040Y005044D02*
X026257Y005044D01*
X026257Y005202D02*
X026397Y005202D01*
X026397Y005361D02*
X026257Y005361D01*
X026257Y005519D02*
X026397Y005519D01*
X026327Y006075D02*
X018983Y006075D01*
X018969Y006077D01*
X018956Y006082D01*
X018945Y006091D01*
X018639Y005836D02*
X018271Y005836D01*
X018258Y005819D02*
X018297Y005872D01*
X018327Y005931D01*
X018347Y005993D01*
X018356Y006052D01*
X017979Y006052D01*
X017979Y005675D01*
X018038Y005685D01*
X018101Y005705D01*
X018159Y005735D01*
X018212Y005773D01*
X018258Y005819D01*
X018347Y005995D02*
X018556Y005995D01*
X018549Y006153D02*
X018352Y006153D01*
X018356Y006129D02*
X018347Y006188D01*
X018327Y006250D01*
X018297Y006309D01*
X018258Y006362D01*
X018212Y006408D01*
X018159Y006447D01*
X018101Y006476D01*
X018038Y006497D01*
X017979Y006506D01*
X017979Y006129D01*
X017903Y006129D01*
X017903Y006506D01*
X017843Y006497D01*
X017781Y006476D01*
X017723Y006447D01*
X017670Y006408D01*
X017623Y006362D01*
X017585Y006309D01*
X017555Y006250D01*
X017535Y006188D01*
X017526Y006129D01*
X017903Y006129D01*
X017903Y006052D01*
X017979Y006052D01*
X017979Y006129D01*
X018356Y006129D01*
X018295Y006312D02*
X018608Y006312D01*
X018826Y006470D02*
X018113Y006470D01*
X017979Y006470D02*
X017903Y006470D01*
X017769Y006470D02*
X017056Y006470D01*
X017016Y006487D02*
X016858Y006487D01*
X016713Y006426D01*
X016601Y006315D01*
X016541Y006169D01*
X016541Y006012D01*
X016601Y005866D01*
X016713Y005755D01*
X016858Y005694D01*
X017016Y005694D01*
X017161Y005755D01*
X017273Y005866D01*
X017333Y006012D01*
X017333Y006169D01*
X017273Y006315D01*
X017161Y006426D01*
X017016Y006487D01*
X016818Y006470D02*
X016052Y006470D01*
X016012Y006487D02*
X015854Y006487D01*
X015709Y006426D01*
X015597Y006315D01*
X015537Y006169D01*
X015537Y006012D01*
X015597Y005866D01*
X015709Y005755D01*
X015854Y005694D01*
X016012Y005694D01*
X016158Y005755D01*
X016269Y005866D01*
X016329Y006012D01*
X016329Y006169D01*
X016269Y006315D01*
X016158Y006426D01*
X016012Y006487D01*
X015814Y006470D02*
X015068Y006470D01*
X015028Y006487D02*
X014870Y006487D01*
X014724Y006426D01*
X014613Y006315D01*
X014553Y006169D01*
X014553Y006012D01*
X014613Y005866D01*
X014724Y005755D01*
X014870Y005694D01*
X015028Y005694D01*
X015173Y005755D01*
X015285Y005866D01*
X015345Y006012D01*
X015345Y006169D01*
X015285Y006315D01*
X015173Y006426D01*
X015028Y006487D01*
X014830Y006470D02*
X001040Y006470D01*
X001040Y006312D02*
X014612Y006312D01*
X014553Y006153D02*
X001040Y006153D01*
X001040Y005995D02*
X014560Y005995D01*
X014643Y005836D02*
X001040Y005836D01*
X001040Y005678D02*
X017888Y005678D01*
X017903Y005678D02*
X017979Y005678D01*
X017994Y005678D02*
X025398Y005678D01*
X025417Y005519D02*
X001040Y005519D01*
X001040Y005361D02*
X025347Y005361D01*
X026257Y004885D02*
X026397Y004885D01*
X026397Y004727D02*
X026257Y004727D01*
X026011Y004410D02*
X001040Y004410D01*
X001040Y004568D02*
X027020Y004568D01*
X027020Y004410D02*
X026958Y004410D01*
X025785Y004251D02*
X001040Y004251D01*
X001040Y004093D02*
X025640Y004093D01*
X025740Y002666D02*
X025853Y002666D01*
X025740Y002508D02*
X026174Y002508D01*
X025740Y002349D02*
X026670Y002349D01*
X026794Y002508D02*
X026829Y002508D01*
X026512Y002191D02*
X025740Y002191D01*
X025740Y002032D02*
X026353Y002032D01*
X026195Y001874D02*
X025819Y001874D01*
X025978Y001715D02*
X026070Y001715D01*
X026020Y001557D02*
X025990Y001557D01*
X025990Y001398D02*
X026019Y001398D01*
X026020Y001240D02*
X025933Y001240D01*
X025985Y001081D02*
X025774Y001081D01*
X020500Y001500D02*
X020500Y003488D01*
X020504Y003492D01*
X020260Y002825D02*
X018740Y002825D01*
X018740Y002666D02*
X020260Y002666D01*
X020260Y002508D02*
X018740Y002508D01*
X018740Y002349D02*
X020260Y002349D01*
X020260Y002191D02*
X018740Y002191D01*
X018740Y002032D02*
X020260Y002032D01*
X020181Y001874D02*
X018819Y001874D01*
X018978Y001715D02*
X020022Y001715D01*
X020010Y001557D02*
X018990Y001557D01*
X018990Y001398D02*
X020010Y001398D01*
X020067Y001240D02*
X018933Y001240D01*
X018774Y001081D02*
X020226Y001081D01*
X018500Y001500D02*
X018500Y003469D01*
X018496Y003472D01*
X017081Y003142D02*
X016911Y003142D01*
X017848Y001874D02*
X018181Y001874D01*
X018022Y001715D02*
X018006Y001715D01*
X018010Y001557D02*
X018010Y001557D01*
X018010Y001398D02*
X018010Y001398D01*
X017961Y001240D02*
X018067Y001240D01*
X018226Y001081D02*
X017802Y001081D01*
X017518Y001081D02*
X017482Y001081D01*
X017482Y001240D02*
X017518Y001240D01*
X017518Y001398D02*
X017482Y001398D01*
X017039Y001240D02*
X016961Y001240D01*
X016802Y001081D02*
X017198Y001081D01*
X016039Y001240D02*
X015933Y001240D01*
X015990Y001398D02*
X015990Y001398D01*
X015990Y001557D02*
X015990Y001557D01*
X015978Y001715D02*
X015994Y001715D01*
X017781Y005705D02*
X017843Y005685D01*
X017903Y005675D01*
X017903Y006052D01*
X017526Y006052D01*
X017535Y005993D01*
X017555Y005931D01*
X017585Y005872D01*
X017623Y005819D01*
X017670Y005773D01*
X017723Y005735D01*
X017781Y005705D01*
X017903Y005836D02*
X017979Y005836D01*
X017979Y005995D02*
X017903Y005995D01*
X017903Y006153D02*
X017979Y006153D01*
X017979Y006312D02*
X017903Y006312D01*
X017587Y006312D02*
X017274Y006312D01*
X017333Y006153D02*
X017529Y006153D01*
X017535Y005995D02*
X017326Y005995D01*
X017243Y005836D02*
X017611Y005836D01*
X016631Y005836D02*
X016239Y005836D01*
X016322Y005995D02*
X016548Y005995D01*
X016541Y006153D02*
X016329Y006153D01*
X016270Y006312D02*
X016600Y006312D01*
X015596Y006312D02*
X015286Y006312D01*
X015345Y006153D02*
X015537Y006153D01*
X015544Y005995D02*
X015338Y005995D01*
X015255Y005836D02*
X015627Y005836D01*
X014261Y006870D02*
X014321Y007016D01*
X014321Y007173D01*
X014261Y007319D01*
X014150Y007430D01*
X014004Y007491D01*
X013846Y007491D01*
X013701Y007430D01*
X013589Y007319D01*
X013529Y007173D01*
X013529Y007016D01*
X013589Y006870D01*
X013701Y006759D01*
X013846Y006698D01*
X014004Y006698D01*
X014150Y006759D01*
X014261Y006870D01*
X014292Y006946D02*
X019582Y006946D01*
X019553Y007016D02*
X019613Y006870D01*
X019724Y006759D01*
X019870Y006698D01*
X020028Y006698D01*
X020173Y006759D01*
X020285Y006870D01*
X020345Y007016D01*
X020345Y007173D01*
X020285Y007319D01*
X020173Y007430D01*
X020028Y007491D01*
X019870Y007491D01*
X019724Y007430D01*
X019613Y007319D01*
X019553Y007173D01*
X019553Y007016D01*
X019553Y007104D02*
X014321Y007104D01*
X014284Y007263D02*
X019590Y007263D01*
X019715Y007421D02*
X014159Y007421D01*
X013691Y007421D02*
X001040Y007421D01*
X001040Y007263D02*
X013566Y007263D01*
X013529Y007104D02*
X001040Y007104D01*
X001040Y006946D02*
X013558Y006946D01*
X013672Y006787D02*
X001040Y006787D01*
X001040Y006629D02*
X025420Y006629D01*
X025416Y006631D02*
X025457Y006607D01*
X025503Y006595D01*
X026257Y006595D01*
X026257Y007005D01*
X025347Y007005D01*
X025347Y006751D01*
X025359Y006705D01*
X025383Y006664D01*
X025416Y006631D01*
X025396Y006470D02*
X019064Y006470D01*
X019281Y006315D02*
X019281Y006315D01*
X019696Y006787D02*
X014178Y006787D01*
X013984Y007702D02*
X013827Y007702D01*
X013681Y007763D01*
X013570Y007874D01*
X013509Y008020D01*
X013509Y008177D01*
X013570Y008323D01*
X013681Y008434D01*
X013827Y008495D01*
X013984Y008495D01*
X014130Y008434D01*
X014241Y008323D01*
X014302Y008177D01*
X014302Y008020D01*
X014241Y007874D01*
X014130Y007763D01*
X013984Y007702D01*
X014071Y007738D02*
X019783Y007738D01*
X019724Y007763D02*
X019870Y007702D01*
X020028Y007702D01*
X020173Y007763D01*
X020285Y007874D01*
X020345Y008020D01*
X020345Y008177D01*
X020285Y008323D01*
X020173Y008434D01*
X020028Y008495D01*
X019870Y008495D01*
X019824Y008476D01*
X019417Y008882D01*
X019611Y008882D01*
X019613Y008878D01*
X019724Y008766D01*
X019870Y008706D01*
X020028Y008706D01*
X020098Y008735D01*
X020164Y008708D01*
X021486Y008708D01*
X021486Y008665D01*
X021580Y008571D01*
X022146Y008571D01*
X022239Y008665D01*
X022239Y008677D01*
X022319Y008677D01*
X022319Y008673D01*
X022413Y008580D01*
X022899Y008580D01*
X022993Y008673D01*
X022993Y009121D01*
X022899Y009215D01*
X022413Y009215D01*
X022319Y009121D01*
X022319Y009117D01*
X022239Y009117D01*
X022239Y009191D01*
X022168Y009262D01*
X022239Y009334D01*
X022239Y009425D01*
X022319Y009425D01*
X022319Y009421D01*
X022413Y009328D01*
X022899Y009328D01*
X022993Y009421D01*
X022993Y009645D01*
X023077Y009724D01*
X023077Y009724D01*
X023177Y009945D01*
X023178Y009983D01*
X023180Y009986D01*
X023180Y010069D01*
X023183Y010153D01*
X023180Y010156D01*
X023180Y011123D01*
X023182Y011123D01*
X023685Y010620D01*
X023685Y010559D01*
X023731Y010449D01*
X023815Y010365D01*
X023925Y010319D01*
X023986Y010319D01*
X023993Y010313D01*
X024016Y010285D01*
X024043Y010219D01*
X024047Y010183D01*
X024047Y009954D01*
X023974Y009954D01*
X023880Y009860D01*
X023880Y009334D01*
X023952Y009262D01*
X023880Y009191D01*
X023880Y009188D01*
X023866Y009199D01*
X023820Y009245D01*
X023820Y009495D01*
X023726Y009589D01*
X023239Y009589D01*
X023146Y009495D01*
X023146Y009047D01*
X023239Y008954D01*
X023489Y008954D01*
X023620Y008823D01*
X023642Y008801D01*
X023867Y008708D01*
X023880Y008708D01*
X023880Y008665D01*
X023974Y008571D01*
X024539Y008571D01*
X024629Y008661D01*
X024712Y008626D01*
X024831Y008626D01*
X024941Y008672D01*
X024977Y008708D01*
X024999Y008708D01*
X025020Y008686D01*
X025547Y008686D01*
X025618Y008758D01*
X025690Y008686D01*
X026216Y008686D01*
X026310Y008780D01*
X026310Y009346D01*
X026216Y009440D01*
X026193Y009440D01*
X026206Y009690D01*
X026275Y009690D01*
X026369Y009784D01*
X026369Y010389D01*
X026275Y010483D01*
X025670Y010483D01*
X025576Y010389D01*
X025576Y009784D01*
X025670Y009690D01*
X025765Y009690D01*
X025752Y009440D01*
X025690Y009440D01*
X025618Y009368D01*
X025547Y009440D01*
X025020Y009440D01*
X024927Y009346D01*
X024927Y009185D01*
X024831Y009224D01*
X024712Y009224D01*
X024633Y009191D01*
X024562Y009262D01*
X024633Y009334D01*
X024633Y009860D01*
X024539Y009954D01*
X024467Y009954D01*
X024467Y010303D01*
X024423Y010408D01*
X024768Y010408D01*
X024749Y010389D01*
X024749Y009784D01*
X024843Y009690D01*
X025448Y009690D01*
X025542Y009784D01*
X025542Y010389D01*
X025448Y010483D01*
X025366Y010483D01*
X025366Y010734D01*
X025448Y010734D01*
X025542Y010827D01*
X025542Y011432D01*
X025448Y011526D01*
X024843Y011526D01*
X024749Y011432D01*
X024749Y010828D01*
X024197Y010828D01*
X024154Y010872D01*
X024044Y010917D01*
X023982Y010917D01*
X023427Y011472D01*
X023401Y011508D01*
X023370Y011593D01*
X023367Y011634D01*
X023367Y011643D01*
X023368Y011654D01*
X023489Y011654D01*
X023600Y011544D01*
X023622Y011522D01*
X023622Y011522D01*
X023847Y011428D01*
X023880Y011428D01*
X023880Y011385D01*
X023974Y011291D01*
X024539Y011291D01*
X024633Y011385D01*
X024633Y011684D01*
X024793Y011844D01*
X024793Y011844D01*
X024808Y011859D01*
X024958Y011859D01*
X024927Y011890D02*
X025020Y011797D01*
X025547Y011797D01*
X025618Y011868D01*
X025690Y011797D01*
X025753Y011797D01*
X025768Y011526D01*
X025670Y011526D01*
X025576Y011432D01*
X025576Y010827D01*
X025670Y010734D01*
X026275Y010734D01*
X026369Y010827D01*
X026369Y011432D01*
X026275Y011526D01*
X026208Y011526D01*
X026194Y011797D01*
X026216Y011797D01*
X026310Y011890D01*
X026310Y012456D01*
X026216Y012550D01*
X025690Y012550D01*
X025618Y012478D01*
X025547Y012550D01*
X025020Y012550D01*
X024992Y012521D01*
X024992Y012703D01*
X024898Y012929D01*
X024876Y012951D01*
X021759Y016068D01*
X021762Y016069D01*
X021900Y016207D01*
X021974Y016387D01*
X021974Y016582D01*
X021900Y016762D01*
X021762Y016900D01*
X021582Y016974D01*
X021387Y016974D01*
X021207Y016900D01*
X021069Y016762D01*
X020994Y016582D01*
X020994Y016387D01*
X021069Y016207D01*
X021207Y016069D01*
X021278Y016039D01*
X021358Y015847D01*
X021380Y015825D01*
X024436Y012768D01*
X024447Y012758D01*
X024501Y012704D01*
X024522Y012678D01*
X024524Y012674D01*
X023974Y012674D01*
X023880Y012581D01*
X023880Y012580D01*
X023427Y012580D01*
X023342Y012584D01*
X023176Y012523D01*
X023124Y012474D01*
X023066Y012437D01*
X023066Y012437D01*
X023066Y012437D01*
X022993Y012329D01*
X022993Y012570D01*
X022899Y012663D01*
X022413Y012663D01*
X022319Y012570D01*
X022319Y012566D01*
X022239Y012566D01*
X022239Y012581D01*
X022146Y012674D01*
X021580Y012674D01*
X021486Y012581D01*
X021486Y012538D01*
X020193Y012538D01*
X020078Y012490D01*
X020028Y012510D01*
X019870Y012510D01*
X019724Y012450D01*
X019628Y012354D01*
X019566Y012354D01*
X019478Y012318D01*
X019411Y012250D01*
X019259Y012098D01*
X019240Y012098D01*
X019130Y012053D01*
X019046Y011969D01*
X019000Y011859D01*
X018468Y011859D01*
X018626Y011701D02*
X019016Y011701D01*
X019000Y011740D02*
X019046Y011630D01*
X019130Y011546D01*
X019240Y011500D01*
X019359Y011500D01*
X019469Y011546D01*
X019553Y011630D01*
X019598Y011740D01*
X019598Y011759D01*
X019671Y011832D01*
X019724Y011778D01*
X019870Y011718D01*
X020028Y011718D01*
X020173Y011778D01*
X020285Y011890D01*
X020345Y012035D01*
X020345Y012098D01*
X021486Y012098D01*
X021486Y012054D01*
X021558Y011983D01*
X021486Y011911D01*
X021486Y011583D01*
X020857Y010954D01*
X020897Y011051D01*
X020897Y011170D01*
X020852Y011280D01*
X020768Y011364D01*
X020658Y011409D01*
X020539Y011409D01*
X020429Y011364D01*
X020395Y011330D01*
X020287Y011330D01*
X020285Y011335D01*
X020173Y011446D01*
X020028Y011506D01*
X019870Y011506D01*
X019724Y011446D01*
X019613Y011335D01*
X019553Y011189D01*
X019553Y011031D01*
X019613Y010886D01*
X019724Y010774D01*
X019870Y010714D01*
X020028Y010714D01*
X020173Y010774D01*
X020285Y010886D01*
X020287Y010890D01*
X020395Y010890D01*
X020429Y010857D01*
X020539Y010811D01*
X020658Y010811D01*
X020755Y010851D01*
X020261Y010357D01*
X020248Y010347D01*
X020173Y010423D01*
X020028Y010483D01*
X019870Y010483D01*
X019852Y010475D01*
X016783Y013544D01*
X016783Y013591D01*
X016738Y013701D01*
X016654Y013785D01*
X016544Y013831D01*
X016425Y013831D01*
X016315Y013785D01*
X016231Y013701D01*
X016185Y013591D01*
X016185Y013472D01*
X016231Y013362D01*
X016315Y013278D01*
X016425Y013232D01*
X016472Y013232D01*
X019553Y010152D01*
X019553Y010008D01*
X019613Y009862D01*
X019724Y009751D01*
X019870Y009690D01*
X020028Y009690D01*
X020173Y009751D01*
X020285Y009862D01*
X020292Y009880D01*
X020486Y009960D01*
X020508Y009982D01*
X021817Y011291D01*
X022146Y011291D01*
X022232Y011378D01*
X022319Y011378D01*
X022319Y011374D01*
X022413Y011280D01*
X022760Y011280D01*
X022760Y010078D01*
X022756Y010042D01*
X022726Y009975D01*
X022715Y009963D01*
X022413Y009963D01*
X022319Y009869D01*
X022319Y009865D01*
X022234Y009865D01*
X022146Y009954D01*
X021580Y009954D01*
X021486Y009860D01*
X021486Y009334D01*
X021558Y009262D01*
X021486Y009191D01*
X021486Y009148D01*
X020345Y009148D01*
X020345Y009181D01*
X020285Y009327D01*
X020173Y009438D01*
X020028Y009499D01*
X019870Y009499D01*
X019724Y009438D01*
X019613Y009327D01*
X019611Y009322D01*
X019390Y009322D01*
X017708Y011005D01*
X017708Y011301D01*
X017742Y011335D01*
X017787Y011444D01*
X017787Y011563D01*
X017742Y011673D01*
X017658Y011757D01*
X017548Y011803D01*
X017429Y011803D01*
X017319Y011757D01*
X017235Y011673D01*
X017189Y011563D01*
X017189Y011444D01*
X017235Y011335D01*
X017268Y011301D01*
X017268Y011031D01*
X016764Y011536D01*
X016764Y011583D01*
X016718Y011693D01*
X016634Y011777D01*
X016524Y011823D01*
X016405Y011823D01*
X016295Y011777D01*
X016211Y011693D01*
X016166Y011583D01*
X016166Y011464D01*
X016211Y011354D01*
X016295Y011270D01*
X016405Y011225D01*
X016452Y011225D01*
X019553Y008124D01*
X019553Y008020D01*
X019613Y007874D01*
X019724Y007763D01*
X019604Y007897D02*
X014251Y007897D01*
X014302Y008055D02*
X019553Y008055D01*
X019463Y008214D02*
X014287Y008214D01*
X014192Y008372D02*
X019305Y008372D01*
X019146Y008531D02*
X001040Y008531D01*
X001040Y008689D02*
X018988Y008689D01*
X018829Y008848D02*
X014211Y008848D01*
X014241Y008878D02*
X014302Y009024D01*
X014302Y009181D01*
X014241Y009327D01*
X014130Y009438D01*
X013984Y009499D01*
X013827Y009499D01*
X013681Y009438D01*
X013570Y009327D01*
X013509Y009181D01*
X013509Y009024D01*
X013570Y008878D01*
X013681Y008766D01*
X013827Y008706D01*
X013984Y008706D01*
X014130Y008766D01*
X014241Y008878D01*
X014294Y009006D02*
X018671Y009006D01*
X018512Y009165D02*
X014302Y009165D01*
X014243Y009323D02*
X018354Y009323D01*
X018195Y009482D02*
X014025Y009482D01*
X013984Y009690D02*
X013827Y009690D01*
X013681Y009751D01*
X013570Y009862D01*
X013509Y010008D01*
X013509Y010165D01*
X013570Y010311D01*
X013681Y010423D01*
X013827Y010483D01*
X013984Y010483D01*
X014130Y010423D01*
X014241Y010311D01*
X014302Y010165D01*
X014302Y010008D01*
X014241Y009862D01*
X014130Y009751D01*
X013984Y009690D01*
X014178Y009799D02*
X017878Y009799D01*
X017720Y009957D02*
X014281Y009957D01*
X014302Y010116D02*
X017561Y010116D01*
X017403Y010274D02*
X014257Y010274D01*
X014106Y010433D02*
X017244Y010433D01*
X017086Y010591D02*
X001040Y010591D01*
X001040Y010433D02*
X013705Y010433D01*
X013554Y010274D02*
X001040Y010274D01*
X001040Y010116D02*
X013509Y010116D01*
X013530Y009957D02*
X001040Y009957D01*
X001040Y009799D02*
X013633Y009799D01*
X013786Y009482D02*
X001040Y009482D01*
X001040Y009640D02*
X018037Y009640D01*
X018597Y010116D02*
X019553Y010116D01*
X019574Y009957D02*
X018756Y009957D01*
X018914Y009799D02*
X019677Y009799D01*
X019829Y009482D02*
X019231Y009482D01*
X019073Y009640D02*
X021486Y009640D01*
X021486Y009482D02*
X020069Y009482D01*
X020286Y009323D02*
X021497Y009323D01*
X021486Y009165D02*
X020345Y009165D01*
X020221Y009799D02*
X021486Y009799D01*
X022228Y009323D02*
X023146Y009323D01*
X023146Y009165D02*
X022949Y009165D01*
X022993Y009006D02*
X023187Y009006D01*
X022993Y008848D02*
X023595Y008848D01*
X023620Y008823D02*
X023620Y008823D01*
X023642Y008801D02*
X023642Y008801D01*
X023880Y008689D02*
X022993Y008689D01*
X022656Y008897D02*
X022625Y008928D01*
X022362Y009165D02*
X022239Y009165D01*
X022608Y009597D02*
X022656Y009645D01*
X022993Y009640D02*
X023880Y009640D01*
X023880Y009482D02*
X023820Y009482D01*
X023820Y009323D02*
X023891Y009323D01*
X023880Y009799D02*
X023111Y009799D01*
X023177Y009945D02*
X023177Y009945D01*
X023177Y009957D02*
X024047Y009957D01*
X024047Y010116D02*
X023182Y010116D01*
X023180Y010274D02*
X024020Y010274D01*
X023747Y010433D02*
X023180Y010433D01*
X023180Y010591D02*
X023685Y010591D01*
X023556Y010750D02*
X023180Y010750D01*
X023180Y010908D02*
X023397Y010908D01*
X023239Y011067D02*
X023180Y011067D01*
X022760Y011067D02*
X021592Y011067D01*
X021751Y011225D02*
X022760Y011225D01*
X022760Y010908D02*
X021434Y010908D01*
X021275Y010750D02*
X022760Y010750D01*
X022760Y010591D02*
X021117Y010591D01*
X020958Y010433D02*
X022760Y010433D01*
X022760Y010274D02*
X020800Y010274D01*
X020641Y010116D02*
X022760Y010116D01*
X022407Y009957D02*
X020479Y009957D01*
X020486Y009960D02*
X020486Y009960D01*
X020508Y009982D02*
X020508Y009982D01*
X020336Y010433D02*
X020149Y010433D01*
X020495Y010591D02*
X019736Y010591D01*
X019784Y010750D02*
X019577Y010750D01*
X019604Y010908D02*
X019419Y010908D01*
X019553Y011067D02*
X019260Y011067D01*
X019102Y011225D02*
X019568Y011225D01*
X019662Y011384D02*
X018943Y011384D01*
X018785Y011542D02*
X019139Y011542D01*
X019000Y011740D02*
X019000Y011859D01*
X019095Y012018D02*
X018309Y012018D01*
X018151Y012176D02*
X019337Y012176D01*
X019519Y012335D02*
X017992Y012335D01*
X017834Y012493D02*
X019828Y012493D01*
X019851Y012692D02*
X019911Y012683D01*
X019911Y013060D01*
X019987Y013060D01*
X019987Y012683D01*
X020046Y012692D01*
X020109Y012713D01*
X020167Y012742D01*
X020220Y012781D01*
X020266Y012827D01*
X020305Y012880D01*
X020335Y012939D01*
X020355Y013001D01*
X020364Y013060D01*
X019987Y013060D01*
X019987Y013137D01*
X019911Y013137D01*
X019911Y013514D01*
X019851Y013504D01*
X019789Y013484D01*
X019731Y013454D01*
X019678Y013416D01*
X019631Y013370D01*
X019593Y013317D01*
X019563Y013258D01*
X019543Y013196D01*
X019533Y013137D01*
X019911Y013137D01*
X019911Y013060D01*
X019533Y013060D01*
X019543Y013001D01*
X019563Y012939D01*
X019593Y012880D01*
X019631Y012827D01*
X019678Y012781D01*
X019731Y012742D01*
X019789Y012713D01*
X019851Y012692D01*
X019911Y012810D02*
X019987Y012810D01*
X019987Y012969D02*
X019911Y012969D01*
X019911Y013127D02*
X017200Y013127D01*
X017358Y012969D02*
X019553Y012969D01*
X019649Y012810D02*
X017517Y012810D01*
X017675Y012652D02*
X021557Y012652D01*
X022168Y012652D02*
X022401Y012652D01*
X022667Y012357D02*
X022656Y012346D01*
X022993Y012335D02*
X022997Y012335D01*
X022993Y012493D02*
X023144Y012493D01*
X023176Y012523D02*
X023176Y012523D01*
X023342Y012584D02*
X023342Y012584D01*
X022911Y012652D02*
X023951Y012652D01*
X024257Y012318D02*
X024260Y012321D01*
X024436Y012768D02*
X024436Y012768D01*
X024395Y012810D02*
X020249Y012810D01*
X020344Y012969D02*
X024236Y012969D01*
X024078Y013127D02*
X019987Y013127D01*
X019987Y013137D02*
X020364Y013137D01*
X020355Y013196D01*
X020335Y013258D01*
X020305Y013317D01*
X020266Y013370D01*
X020220Y013416D01*
X020167Y013454D01*
X020109Y013484D01*
X020046Y013504D01*
X019987Y013514D01*
X019987Y013137D01*
X019987Y013286D02*
X019911Y013286D01*
X019911Y013444D02*
X019987Y013444D01*
X020181Y013444D02*
X023761Y013444D01*
X023919Y013286D02*
X020321Y013286D01*
X019716Y013444D02*
X016883Y013444D01*
X016779Y013603D02*
X023602Y013603D01*
X023444Y013761D02*
X019109Y013761D01*
X019169Y013786D02*
X019024Y013726D01*
X018866Y013726D01*
X018720Y013786D01*
X018609Y013898D01*
X018549Y014043D01*
X018549Y014201D01*
X018609Y014346D01*
X018720Y014458D01*
X018866Y014518D01*
X019024Y014518D01*
X019169Y014458D01*
X019281Y014346D01*
X019341Y014201D01*
X019341Y014043D01*
X019281Y013898D01*
X019169Y013786D01*
X019290Y013920D02*
X023285Y013920D01*
X023127Y014078D02*
X019341Y014078D01*
X019326Y014237D02*
X022968Y014237D01*
X022810Y014395D02*
X019232Y014395D01*
X018658Y014395D02*
X018228Y014395D01*
X018277Y014346D02*
X018165Y014458D01*
X018020Y014518D01*
X017862Y014518D01*
X017717Y014458D01*
X017605Y014346D01*
X017545Y014201D01*
X017545Y014043D01*
X017605Y013898D01*
X017717Y013786D01*
X017862Y013726D01*
X018020Y013726D01*
X018165Y013786D01*
X018277Y013898D01*
X018337Y014043D01*
X018337Y014201D01*
X018277Y014346D01*
X018322Y014237D02*
X018563Y014237D01*
X018549Y014078D02*
X018337Y014078D01*
X018286Y013920D02*
X018600Y013920D01*
X018781Y013761D02*
X018105Y013761D01*
X017777Y013761D02*
X017121Y013761D01*
X017181Y013786D02*
X017036Y013726D01*
X016878Y013726D01*
X016732Y013786D01*
X016621Y013898D01*
X016560Y014043D01*
X016560Y014201D01*
X016621Y014346D01*
X016732Y014458D01*
X016878Y014518D01*
X017036Y014518D01*
X017181Y014458D01*
X017293Y014346D01*
X017353Y014201D01*
X017353Y014043D01*
X017293Y013898D01*
X017181Y013786D01*
X017302Y013920D02*
X017596Y013920D01*
X017545Y014078D02*
X017353Y014078D01*
X017338Y014237D02*
X017560Y014237D01*
X017654Y014395D02*
X017244Y014395D01*
X016669Y014395D02*
X016260Y014395D01*
X016308Y014346D02*
X016197Y014458D01*
X016051Y014518D01*
X015894Y014518D01*
X015748Y014458D01*
X015637Y014346D01*
X015576Y014201D01*
X015576Y014043D01*
X015637Y013898D01*
X015748Y013786D01*
X015894Y013726D01*
X016051Y013726D01*
X016197Y013786D01*
X016308Y013898D01*
X016369Y014043D01*
X016369Y014201D01*
X016308Y014346D01*
X016354Y014237D02*
X016575Y014237D01*
X016560Y014078D02*
X016369Y014078D01*
X016317Y013920D02*
X016612Y013920D01*
X016678Y013761D02*
X016793Y013761D01*
X016291Y013761D02*
X016136Y013761D01*
X016190Y013603D02*
X013249Y013603D01*
X013249Y013761D02*
X014785Y013761D01*
X014724Y013786D02*
X014870Y013726D01*
X015028Y013726D01*
X015173Y013786D01*
X015285Y013898D01*
X015345Y014043D01*
X015345Y014201D01*
X015285Y014346D01*
X015173Y014458D01*
X015028Y014518D01*
X014870Y014518D01*
X014724Y014458D01*
X014613Y014346D01*
X014553Y014201D01*
X014553Y014043D01*
X014613Y013898D01*
X014724Y013786D01*
X014604Y013920D02*
X013249Y013920D01*
X013249Y014078D02*
X014553Y014078D01*
X014567Y014237D02*
X013249Y014237D01*
X013249Y014395D02*
X014662Y014395D01*
X015236Y014395D02*
X015685Y014395D01*
X015591Y014237D02*
X015330Y014237D01*
X015345Y014078D02*
X015576Y014078D01*
X015627Y013920D02*
X015294Y013920D01*
X015113Y013761D02*
X015809Y013761D01*
X016197Y013444D02*
X014106Y013444D01*
X014130Y013434D02*
X013984Y013495D01*
X013827Y013495D01*
X013681Y013434D01*
X013570Y013323D01*
X013509Y013177D01*
X013509Y013020D01*
X013570Y012874D01*
X013681Y012763D01*
X013827Y012702D01*
X013984Y012702D01*
X014130Y012763D01*
X014241Y012874D01*
X014302Y013020D01*
X014302Y013177D01*
X014241Y013323D01*
X014130Y013434D01*
X014257Y013286D02*
X016307Y013286D01*
X016578Y013127D02*
X014302Y013127D01*
X014281Y012969D02*
X016736Y012969D01*
X016895Y012810D02*
X014178Y012810D01*
X013984Y012491D02*
X013827Y012491D01*
X013681Y012430D01*
X013570Y012319D01*
X013566Y012311D01*
X013556Y012312D01*
X013418Y012369D01*
X013314Y012474D01*
X013257Y012611D01*
X013249Y012685D01*
X013249Y015461D01*
X013257Y015543D01*
X013320Y015694D01*
X013436Y015810D01*
X013587Y015872D01*
X013669Y015881D01*
X013739Y015881D01*
X013739Y015735D01*
X013832Y015641D01*
X014215Y015641D01*
X014569Y015641D01*
X014663Y015735D01*
X014663Y016367D01*
X014569Y016461D01*
X013832Y016461D01*
X013739Y016367D01*
X013739Y016301D01*
X013502Y016301D01*
X013194Y016173D01*
X012957Y015936D01*
X012829Y015628D01*
X012829Y012526D01*
X012951Y012232D01*
X012951Y012232D01*
X013176Y012006D01*
X013176Y012006D01*
X013471Y011884D01*
X013564Y011884D01*
X013570Y011870D01*
X013681Y011759D01*
X013827Y011698D01*
X013984Y011698D01*
X014130Y011759D01*
X014241Y011870D01*
X014302Y012016D01*
X014302Y012173D01*
X014241Y012319D01*
X014130Y012430D01*
X013984Y012491D01*
X014226Y012335D02*
X017370Y012335D01*
X017212Y012493D02*
X013305Y012493D01*
X013253Y012652D02*
X017053Y012652D01*
X017529Y012176D02*
X014301Y012176D01*
X014302Y012018D02*
X017687Y012018D01*
X017846Y011859D02*
X014230Y011859D01*
X013990Y011701D02*
X016219Y011701D01*
X016166Y011542D02*
X001040Y011542D01*
X001040Y011384D02*
X013638Y011384D01*
X013681Y011426D02*
X013570Y011315D01*
X013509Y011169D01*
X013509Y011012D01*
X013570Y010866D01*
X013681Y010755D01*
X013827Y010694D01*
X013984Y010694D01*
X014130Y010755D01*
X014241Y010866D01*
X014302Y011012D01*
X014302Y011169D01*
X014241Y011315D01*
X014130Y011426D01*
X013984Y011487D01*
X013827Y011487D01*
X013681Y011426D01*
X013532Y011225D02*
X001040Y011225D01*
X001040Y011067D02*
X013509Y011067D01*
X013552Y010908D02*
X001040Y010908D01*
X001040Y010750D02*
X013693Y010750D01*
X014118Y010750D02*
X016927Y010750D01*
X016769Y010908D02*
X014259Y010908D01*
X014302Y011067D02*
X016610Y011067D01*
X016404Y011225D02*
X014279Y011225D01*
X014173Y011384D02*
X016199Y011384D01*
X016764Y011542D02*
X017189Y011542D01*
X017214Y011384D02*
X016916Y011384D01*
X017074Y011225D02*
X017268Y011225D01*
X017268Y011067D02*
X017233Y011067D01*
X017708Y011067D02*
X018638Y011067D01*
X018480Y011225D02*
X017708Y011225D01*
X017762Y011384D02*
X018321Y011384D01*
X018163Y011542D02*
X017787Y011542D01*
X017714Y011701D02*
X018004Y011701D01*
X017262Y011701D02*
X016711Y011701D01*
X017805Y010908D02*
X018797Y010908D01*
X018955Y010750D02*
X017963Y010750D01*
X018122Y010591D02*
X019114Y010591D01*
X019272Y010433D02*
X018280Y010433D01*
X018439Y010274D02*
X019431Y010274D01*
X020113Y010750D02*
X020653Y010750D01*
X020897Y011067D02*
X020970Y011067D01*
X020875Y011225D02*
X021129Y011225D01*
X021287Y011384D02*
X020720Y011384D01*
X020477Y011384D02*
X020236Y011384D01*
X020254Y011859D02*
X021486Y011859D01*
X021486Y011701D02*
X019582Y011701D01*
X019460Y011542D02*
X021446Y011542D01*
X021523Y012018D02*
X020338Y012018D01*
X019949Y012114D02*
X019614Y012114D01*
X019299Y011799D01*
X020069Y012493D02*
X020086Y012493D01*
X019577Y013286D02*
X017041Y013286D01*
X014591Y015663D02*
X021542Y015663D01*
X021700Y015505D02*
X013254Y015505D01*
X013249Y015346D02*
X021859Y015346D01*
X022017Y015188D02*
X013249Y015188D01*
X013249Y015029D02*
X022176Y015029D01*
X022334Y014871D02*
X013249Y014871D01*
X013249Y014712D02*
X022493Y014712D01*
X022651Y014554D02*
X013249Y014554D01*
X012829Y014554D02*
X001040Y014554D01*
X001040Y014712D02*
X012829Y014712D01*
X012829Y014871D02*
X001040Y014871D01*
X001040Y015029D02*
X012829Y015029D01*
X012829Y015188D02*
X001040Y015188D01*
X001040Y015346D02*
X012829Y015346D01*
X012829Y015505D02*
X001040Y015505D01*
X001040Y015663D02*
X012844Y015663D01*
X012910Y015822D02*
X001040Y015822D01*
X001040Y015980D02*
X013001Y015980D01*
X012957Y015936D02*
X012957Y015936D01*
X013159Y016139D02*
X001040Y016139D01*
X001040Y016297D02*
X013494Y016297D01*
X013194Y016173D02*
X013194Y016173D01*
X013464Y015822D02*
X013739Y015822D01*
X013810Y015663D02*
X013307Y015663D01*
X013827Y016456D02*
X001040Y016456D01*
X001040Y016614D02*
X020008Y016614D01*
X019994Y016582D02*
X019994Y016387D01*
X020069Y016207D01*
X020207Y016069D01*
X020387Y015994D01*
X020582Y015994D01*
X020762Y016069D01*
X020900Y016207D01*
X020974Y016387D01*
X020974Y016582D01*
X020900Y016762D01*
X020762Y016900D01*
X020700Y016925D01*
X020700Y017094D01*
X020704Y017128D01*
X020730Y017191D01*
X020778Y017239D01*
X020840Y017265D01*
X020874Y017268D01*
X022031Y017268D01*
X022351Y017401D01*
X022595Y017645D01*
X022595Y017645D01*
X022728Y017965D01*
X022728Y018033D01*
X022793Y018060D01*
X022936Y018203D01*
X023004Y018367D01*
X023072Y018203D01*
X023215Y018060D01*
X023276Y018034D01*
X023276Y016923D01*
X023219Y016900D01*
X023081Y016762D01*
X023006Y016582D01*
X023006Y016387D01*
X023081Y016207D01*
X023219Y016069D01*
X023399Y015994D01*
X023594Y015994D01*
X023774Y016069D01*
X023911Y016207D01*
X023986Y016387D01*
X023986Y016582D01*
X023911Y016762D01*
X023774Y016900D01*
X023716Y016923D01*
X023716Y018028D01*
X023793Y018060D01*
X023936Y018203D01*
X024004Y018367D01*
X024072Y018203D01*
X024215Y018060D01*
X024402Y017982D01*
X024605Y017982D01*
X024793Y018060D01*
X024936Y018203D01*
X025004Y018367D01*
X025072Y018203D01*
X025215Y018060D01*
X025276Y018034D01*
X025276Y016923D01*
X025219Y016900D01*
X025081Y016762D01*
X025006Y016582D01*
X025006Y016387D01*
X025081Y016207D01*
X025219Y016069D01*
X025399Y015994D01*
X025594Y015994D01*
X025774Y016069D01*
X025911Y016207D01*
X025986Y016387D01*
X025986Y016582D01*
X025911Y016762D01*
X025774Y016900D01*
X025716Y016923D01*
X025716Y018028D01*
X025793Y018060D01*
X025936Y018203D01*
X026014Y018391D01*
X026014Y018594D01*
X025936Y018781D01*
X025793Y018924D01*
X025744Y018945D01*
X025744Y020051D01*
X025990Y020297D01*
X025990Y020703D01*
X025703Y020990D01*
X025297Y020990D01*
X025010Y020703D01*
X025010Y020297D01*
X025264Y020043D01*
X025264Y018945D01*
X025215Y018924D01*
X025072Y018781D01*
X025004Y018618D01*
X024936Y018781D01*
X024793Y018924D01*
X024740Y018946D01*
X024740Y020047D01*
X024990Y020297D01*
X024990Y020703D01*
X024703Y020990D01*
X024297Y020990D01*
X024010Y020703D01*
X024010Y020297D01*
X024260Y020047D01*
X024260Y018943D01*
X024215Y018924D01*
X024072Y018781D01*
X024004Y018618D01*
X023936Y018781D01*
X023793Y018924D01*
X023744Y018945D01*
X023744Y020051D01*
X023990Y020297D01*
X023990Y020703D01*
X023703Y020990D01*
X023297Y020990D01*
X023010Y020703D01*
X023010Y020297D01*
X023264Y020043D01*
X023264Y018945D01*
X023215Y018924D01*
X023072Y018781D01*
X023004Y018618D01*
X022936Y018781D01*
X022793Y018924D01*
X022744Y018945D01*
X022744Y020051D01*
X022990Y020297D01*
X022990Y020703D01*
X022703Y020990D01*
X022297Y020990D01*
X022010Y020703D01*
X022010Y020297D01*
X022264Y020043D01*
X022264Y018945D01*
X022215Y018924D01*
X022072Y018781D01*
X022006Y018622D01*
X021940Y018781D01*
X021797Y018924D01*
X021740Y018948D01*
X021740Y020047D01*
X021990Y020297D01*
X021990Y020703D01*
X021703Y020990D01*
X021297Y020990D01*
X021010Y020703D01*
X021010Y020297D01*
X021260Y020047D01*
X021260Y018941D01*
X021219Y018924D01*
X021076Y018781D01*
X021008Y018618D01*
X020940Y018781D01*
X020797Y018924D01*
X020740Y018948D01*
X020740Y020047D01*
X020990Y020297D01*
X020990Y020703D01*
X020703Y020990D01*
X020297Y020990D01*
X020010Y020703D01*
X020010Y020297D01*
X020260Y020047D01*
X020260Y018941D01*
X020219Y018924D01*
X020076Y018781D01*
X020008Y018618D01*
X019940Y018781D01*
X019797Y018924D01*
X019740Y018948D01*
X019740Y020047D01*
X019990Y020297D01*
X019990Y020703D01*
X019703Y020990D01*
X019297Y020990D01*
X019010Y020703D01*
X019010Y020297D01*
X019260Y020047D01*
X019260Y018941D01*
X019219Y018924D01*
X019076Y018781D01*
X019008Y018618D01*
X018940Y018781D01*
X018797Y018924D01*
X018740Y018948D01*
X018740Y020047D01*
X018990Y020297D01*
X018990Y020703D01*
X018703Y020990D01*
X018297Y020990D01*
X018010Y020703D01*
X018010Y020297D01*
X018260Y020047D01*
X018260Y018941D01*
X018219Y018924D01*
X018076Y018781D01*
X017998Y018594D01*
X017998Y018391D01*
X018076Y018203D01*
X018219Y018060D01*
X018406Y017982D01*
X018609Y017982D01*
X018797Y018060D01*
X018940Y018203D01*
X019008Y018367D01*
X019076Y018203D01*
X019219Y018060D01*
X019406Y017982D01*
X019609Y017982D01*
X019797Y018060D01*
X019940Y018203D01*
X020008Y018367D01*
X020076Y018203D01*
X020219Y018060D01*
X020406Y017982D01*
X020609Y017982D01*
X020797Y018060D01*
X020940Y018203D01*
X021008Y018367D01*
X021076Y018203D01*
X021219Y018060D01*
X021406Y017982D01*
X021609Y017982D01*
X021797Y018060D01*
X021940Y018203D01*
X022006Y018362D01*
X022072Y018203D01*
X022215Y018060D01*
X022272Y018036D01*
X022215Y017899D01*
X022097Y017781D01*
X021942Y017716D01*
X021858Y017708D01*
X020752Y017708D01*
X020526Y017615D01*
X020354Y017442D01*
X020260Y017217D01*
X020260Y016922D01*
X020207Y016900D01*
X020069Y016762D01*
X019994Y016582D01*
X019994Y016456D02*
X014575Y016456D01*
X014663Y016297D02*
X020031Y016297D01*
X020137Y016139D02*
X014663Y016139D01*
X014663Y015980D02*
X021303Y015980D01*
X021358Y015847D02*
X021358Y015847D01*
X021380Y015825D02*
X021380Y015825D01*
X021383Y015822D02*
X014663Y015822D01*
X012829Y014395D02*
X001040Y014395D01*
X001040Y014237D02*
X012829Y014237D01*
X012829Y014078D02*
X001040Y014078D01*
X001040Y013920D02*
X012829Y013920D01*
X012829Y013761D02*
X001040Y013761D01*
X001040Y013603D02*
X012829Y013603D01*
X012829Y013444D02*
X001040Y013444D01*
X001040Y013286D02*
X012829Y013286D01*
X012829Y013127D02*
X001040Y013127D01*
X001040Y012969D02*
X012829Y012969D01*
X012829Y012810D02*
X001040Y012810D01*
X001040Y012652D02*
X012829Y012652D01*
X012843Y012493D02*
X001040Y012493D01*
X001040Y012335D02*
X012909Y012335D01*
X013007Y012176D02*
X001040Y012176D01*
X001040Y012018D02*
X013165Y012018D01*
X013581Y011859D02*
X001040Y011859D01*
X001040Y011701D02*
X013821Y011701D01*
X013585Y012335D02*
X013501Y012335D01*
X013634Y012810D02*
X013249Y012810D01*
X013249Y012969D02*
X013530Y012969D01*
X013509Y013127D02*
X013249Y013127D01*
X013249Y013286D02*
X013554Y013286D01*
X013705Y013444D02*
X013249Y013444D01*
X013568Y009323D02*
X001040Y009323D01*
X001040Y009165D02*
X013509Y009165D01*
X013517Y009006D02*
X001040Y009006D01*
X001040Y008848D02*
X013600Y008848D01*
X013619Y008372D02*
X001040Y008372D01*
X001040Y008214D02*
X013524Y008214D01*
X013509Y008055D02*
X001040Y008055D01*
X001040Y007897D02*
X013560Y007897D01*
X013740Y007738D02*
X001040Y007738D01*
X001040Y007580D02*
X027020Y007580D01*
X027020Y007738D02*
X020114Y007738D01*
X020294Y007897D02*
X027020Y007897D01*
X027020Y008055D02*
X020345Y008055D01*
X020330Y008214D02*
X027020Y008214D01*
X027020Y008372D02*
X020236Y008372D01*
X019769Y008531D02*
X027020Y008531D01*
X027020Y008689D02*
X026219Y008689D01*
X026310Y008848D02*
X027020Y008848D01*
X027020Y009006D02*
X026310Y009006D01*
X026310Y009165D02*
X027020Y009165D01*
X027020Y009323D02*
X026310Y009323D01*
X026195Y009482D02*
X027020Y009482D01*
X027020Y009640D02*
X026203Y009640D01*
X026369Y009799D02*
X027020Y009799D01*
X027020Y009957D02*
X026369Y009957D01*
X026369Y010116D02*
X027020Y010116D01*
X027020Y010274D02*
X026369Y010274D01*
X026325Y010433D02*
X027020Y010433D01*
X027020Y010591D02*
X025366Y010591D01*
X025464Y010750D02*
X025654Y010750D01*
X025576Y010908D02*
X025542Y010908D01*
X025542Y011067D02*
X025576Y011067D01*
X025576Y011225D02*
X025542Y011225D01*
X025542Y011384D02*
X025576Y011384D01*
X025767Y011542D02*
X024633Y011542D01*
X024632Y011384D02*
X024749Y011384D01*
X024749Y011225D02*
X023674Y011225D01*
X023516Y011384D02*
X023882Y011384D01*
X023622Y011522D02*
X023622Y011522D01*
X023602Y011542D02*
X023388Y011542D01*
X023600Y011544D02*
X023600Y011544D01*
X023833Y011067D02*
X024749Y011067D01*
X024749Y010908D02*
X024066Y010908D01*
X024467Y010274D02*
X024749Y010274D01*
X024749Y010116D02*
X024467Y010116D01*
X024467Y009957D02*
X024749Y009957D01*
X024749Y009799D02*
X024633Y009799D01*
X024633Y009640D02*
X025763Y009640D01*
X025754Y009482D02*
X024633Y009482D01*
X024622Y009323D02*
X024927Y009323D01*
X025283Y009063D02*
X025148Y008928D01*
X025018Y008689D02*
X024958Y008689D01*
X025549Y008689D02*
X025687Y008689D01*
X025576Y009799D02*
X025542Y009799D01*
X025542Y009957D02*
X025576Y009957D01*
X025576Y010116D02*
X025542Y010116D01*
X025542Y010274D02*
X025576Y010274D01*
X025620Y010433D02*
X025498Y010433D01*
X026291Y010750D02*
X027020Y010750D01*
X027020Y010908D02*
X026369Y010908D01*
X026369Y011067D02*
X027020Y011067D01*
X027020Y011225D02*
X026369Y011225D01*
X026369Y011384D02*
X027020Y011384D01*
X027020Y011542D02*
X026208Y011542D01*
X026199Y011701D02*
X027020Y011701D01*
X027020Y011859D02*
X026278Y011859D01*
X026310Y012018D02*
X027020Y012018D01*
X027020Y012176D02*
X026310Y012176D01*
X026310Y012335D02*
X027020Y012335D01*
X027020Y012493D02*
X026273Y012493D01*
X025633Y012493D02*
X025603Y012493D01*
X024992Y012652D02*
X027020Y012652D01*
X027020Y012810D02*
X024947Y012810D01*
X024898Y012929D02*
X024898Y012929D01*
X024876Y012951D02*
X024876Y012951D01*
X024858Y012969D02*
X027020Y012969D01*
X027020Y013127D02*
X024700Y013127D01*
X024541Y013286D02*
X027020Y013286D01*
X027020Y013444D02*
X024383Y013444D01*
X024224Y013603D02*
X025969Y013603D01*
X025761Y013761D02*
X024066Y013761D01*
X023907Y013920D02*
X025626Y013920D01*
X025535Y014078D02*
X023749Y014078D01*
X023590Y014237D02*
X025486Y014237D01*
X025453Y014395D02*
X023432Y014395D01*
X023273Y014554D02*
X025453Y014554D01*
X025475Y014712D02*
X023115Y014712D01*
X022956Y014871D02*
X025517Y014871D01*
X025601Y015029D02*
X022798Y015029D01*
X022639Y015188D02*
X025717Y015188D01*
X025894Y015346D02*
X022481Y015346D01*
X022322Y015505D02*
X026264Y015505D01*
X026502Y015663D02*
X022164Y015663D01*
X022005Y015822D02*
X026344Y015822D01*
X026288Y015877D02*
X026288Y015877D01*
X026229Y015980D02*
X021847Y015980D01*
X021832Y016139D02*
X022137Y016139D01*
X022069Y016207D02*
X022207Y016069D01*
X022387Y015994D01*
X022582Y015994D01*
X022762Y016069D01*
X022900Y016207D01*
X022974Y016387D01*
X022974Y016582D01*
X022900Y016762D01*
X022762Y016900D01*
X022582Y016974D01*
X022387Y016974D01*
X022207Y016900D01*
X022069Y016762D01*
X021994Y016582D01*
X021994Y016387D01*
X022069Y016207D01*
X022031Y016297D02*
X021937Y016297D01*
X021974Y016456D02*
X021994Y016456D01*
X022008Y016614D02*
X021961Y016614D01*
X021889Y016773D02*
X022080Y016773D01*
X022283Y016931D02*
X021686Y016931D01*
X021283Y016931D02*
X020700Y016931D01*
X020700Y017090D02*
X023276Y017090D01*
X023276Y017248D02*
X020800Y017248D01*
X020354Y017442D02*
X020354Y017442D01*
X020339Y017407D02*
X001040Y017407D01*
X001040Y017565D02*
X020477Y017565D01*
X020526Y017615D02*
X020526Y017615D01*
X020273Y017248D02*
X001040Y017248D01*
X001040Y017090D02*
X020260Y017090D01*
X020260Y016931D02*
X001040Y016931D01*
X001040Y016773D02*
X020080Y016773D01*
X020481Y016494D02*
X020482Y016489D01*
X020485Y016485D01*
X020937Y016297D02*
X021031Y016297D01*
X020994Y016456D02*
X020974Y016456D01*
X020961Y016614D02*
X021008Y016614D01*
X021080Y016773D02*
X020889Y016773D01*
X020832Y016139D02*
X021137Y016139D01*
X022686Y016931D02*
X023276Y016931D01*
X023091Y016773D02*
X022889Y016773D01*
X022961Y016614D02*
X023019Y016614D01*
X023006Y016456D02*
X022974Y016456D01*
X022937Y016297D02*
X023043Y016297D01*
X023149Y016139D02*
X022832Y016139D01*
X023843Y016139D02*
X024149Y016139D01*
X024081Y016207D02*
X024219Y016069D01*
X024399Y015994D01*
X024594Y015994D01*
X024774Y016069D01*
X024911Y016207D01*
X024986Y016387D01*
X024986Y016582D01*
X024911Y016762D01*
X024774Y016900D01*
X024594Y016974D01*
X024399Y016974D01*
X024219Y016900D01*
X024081Y016762D01*
X024006Y016582D01*
X024006Y016387D01*
X024081Y016207D01*
X024043Y016297D02*
X023949Y016297D01*
X023986Y016456D02*
X024006Y016456D01*
X024019Y016614D02*
X023973Y016614D01*
X023901Y016773D02*
X024091Y016773D01*
X024294Y016931D02*
X023716Y016931D01*
X023716Y017090D02*
X025276Y017090D01*
X025276Y017248D02*
X023716Y017248D01*
X023716Y017407D02*
X025276Y017407D01*
X025276Y017565D02*
X023716Y017565D01*
X023716Y017724D02*
X025276Y017724D01*
X025276Y017882D02*
X023716Y017882D01*
X023747Y018041D02*
X024261Y018041D01*
X024076Y018199D02*
X023932Y018199D01*
X024000Y018358D02*
X024008Y018358D01*
X024027Y018675D02*
X023980Y018675D01*
X023884Y018833D02*
X024124Y018833D01*
X024260Y018992D02*
X023744Y018992D01*
X023744Y019150D02*
X024260Y019150D01*
X024260Y019309D02*
X023744Y019309D01*
X023744Y019467D02*
X024260Y019467D01*
X024260Y019626D02*
X023744Y019626D01*
X023744Y019784D02*
X024260Y019784D01*
X024260Y019943D02*
X023744Y019943D01*
X023794Y020101D02*
X024206Y020101D01*
X024047Y020260D02*
X023953Y020260D01*
X023990Y020418D02*
X024010Y020418D01*
X024010Y020577D02*
X023990Y020577D01*
X023958Y020735D02*
X024042Y020735D01*
X024201Y020894D02*
X023799Y020894D01*
X023504Y020500D02*
X023504Y018492D01*
X023496Y018492D01*
X023027Y018675D02*
X022980Y018675D01*
X022884Y018833D02*
X023124Y018833D01*
X023264Y018992D02*
X022744Y018992D01*
X022744Y019150D02*
X023264Y019150D01*
X023264Y019309D02*
X022744Y019309D01*
X022744Y019467D02*
X023264Y019467D01*
X023264Y019626D02*
X022744Y019626D01*
X022744Y019784D02*
X023264Y019784D01*
X023264Y019943D02*
X022744Y019943D01*
X022794Y020101D02*
X023206Y020101D01*
X023047Y020260D02*
X022953Y020260D01*
X022990Y020418D02*
X023010Y020418D01*
X023010Y020577D02*
X022990Y020577D01*
X022958Y020735D02*
X023042Y020735D01*
X023201Y020894D02*
X022799Y020894D01*
X022504Y020500D02*
X022504Y018492D01*
X022506Y018491D01*
X022507Y018490D01*
X022508Y018488D01*
X022027Y018675D02*
X021984Y018675D01*
X021888Y018833D02*
X022124Y018833D01*
X022264Y018992D02*
X021740Y018992D01*
X021740Y019150D02*
X022264Y019150D01*
X022264Y019309D02*
X021740Y019309D01*
X021740Y019467D02*
X022264Y019467D01*
X022264Y019626D02*
X021740Y019626D01*
X021740Y019784D02*
X022264Y019784D01*
X022264Y019943D02*
X021740Y019943D01*
X021794Y020101D02*
X022206Y020101D01*
X022047Y020260D02*
X021953Y020260D01*
X021990Y020418D02*
X022010Y020418D01*
X022010Y020577D02*
X021990Y020577D01*
X021958Y020735D02*
X022042Y020735D01*
X022201Y020894D02*
X021799Y020894D01*
X021500Y020500D02*
X021500Y018500D01*
X021508Y018492D01*
X021936Y018199D02*
X022076Y018199D01*
X022008Y018358D02*
X022004Y018358D01*
X021750Y018041D02*
X022261Y018041D01*
X022198Y017882D02*
X001040Y017882D01*
X001040Y017724D02*
X021959Y017724D01*
X022351Y017401D02*
X022351Y017401D01*
X022357Y017407D02*
X023276Y017407D01*
X023276Y017565D02*
X022515Y017565D01*
X022628Y017724D02*
X023276Y017724D01*
X023276Y017882D02*
X022694Y017882D01*
X022747Y018041D02*
X023261Y018041D01*
X023076Y018199D02*
X022932Y018199D01*
X023000Y018358D02*
X023008Y018358D01*
X024500Y018502D02*
X024500Y020500D01*
X024990Y020577D02*
X025010Y020577D01*
X025010Y020418D02*
X024990Y020418D01*
X024953Y020260D02*
X025047Y020260D01*
X025206Y020101D02*
X024794Y020101D01*
X024740Y019943D02*
X025264Y019943D01*
X025264Y019784D02*
X024740Y019784D01*
X024740Y019626D02*
X025264Y019626D01*
X025264Y019467D02*
X024740Y019467D01*
X024740Y019309D02*
X025264Y019309D01*
X025264Y019150D02*
X024740Y019150D01*
X024740Y018992D02*
X025264Y018992D01*
X025124Y018833D02*
X024884Y018833D01*
X024980Y018675D02*
X025027Y018675D01*
X025496Y018492D02*
X025504Y018492D01*
X025504Y020500D01*
X025500Y020500D01*
X025042Y020735D02*
X024958Y020735D01*
X024799Y020894D02*
X025201Y020894D01*
X025799Y020894D02*
X025828Y020894D01*
X025958Y020735D02*
X025986Y020735D01*
X025990Y020577D02*
X026020Y020577D01*
X026020Y020418D02*
X025990Y020418D01*
X026020Y020260D02*
X025953Y020260D01*
X026020Y020101D02*
X025794Y020101D01*
X025744Y019943D02*
X026020Y019943D01*
X026020Y019784D02*
X025744Y019784D01*
X025744Y019626D02*
X026020Y019626D01*
X026020Y019467D02*
X025744Y019467D01*
X025744Y019309D02*
X026020Y019309D01*
X026020Y019150D02*
X025744Y019150D01*
X025744Y018992D02*
X026020Y018992D01*
X026020Y018833D02*
X025884Y018833D01*
X025980Y018675D02*
X026020Y018675D01*
X026014Y018516D02*
X026020Y018516D01*
X026020Y018358D02*
X026000Y018358D01*
X026020Y018199D02*
X025932Y018199D01*
X026020Y018041D02*
X025747Y018041D01*
X025716Y017882D02*
X026020Y017882D01*
X026020Y017724D02*
X025716Y017724D01*
X025716Y017565D02*
X026020Y017565D01*
X026020Y017407D02*
X025716Y017407D01*
X025716Y017248D02*
X026020Y017248D01*
X026020Y017090D02*
X025716Y017090D01*
X025716Y016931D02*
X026020Y016931D01*
X026020Y016773D02*
X025901Y016773D01*
X025973Y016614D02*
X026020Y016614D01*
X026020Y016456D02*
X025986Y016456D01*
X025949Y016297D02*
X026023Y016297D01*
X026089Y016139D02*
X025843Y016139D01*
X025149Y016139D02*
X024843Y016139D01*
X024949Y016297D02*
X025043Y016297D01*
X025006Y016456D02*
X024986Y016456D01*
X024973Y016614D02*
X025019Y016614D01*
X025091Y016773D02*
X024901Y016773D01*
X024698Y016931D02*
X025276Y016931D01*
X025261Y018041D02*
X024747Y018041D01*
X024932Y018199D02*
X025076Y018199D01*
X025008Y018358D02*
X025000Y018358D01*
X024504Y018493D02*
X024501Y018497D01*
X024500Y018502D01*
X023504Y020500D02*
X023500Y020500D01*
X022504Y020500D02*
X022500Y020500D01*
X021206Y020101D02*
X020794Y020101D01*
X020740Y019943D02*
X021260Y019943D01*
X021260Y019784D02*
X020740Y019784D01*
X020740Y019626D02*
X021260Y019626D01*
X021260Y019467D02*
X020740Y019467D01*
X020740Y019309D02*
X021260Y019309D01*
X021260Y019150D02*
X020740Y019150D01*
X020740Y018992D02*
X021260Y018992D01*
X021128Y018833D02*
X020888Y018833D01*
X020984Y018675D02*
X021031Y018675D01*
X021012Y018358D02*
X021004Y018358D01*
X020936Y018199D02*
X021080Y018199D01*
X021265Y018041D02*
X020750Y018041D01*
X020265Y018041D02*
X019750Y018041D01*
X019936Y018199D02*
X020080Y018199D01*
X020012Y018358D02*
X020004Y018358D01*
X019508Y018492D02*
X019500Y018500D01*
X019500Y020500D01*
X019990Y020577D02*
X020010Y020577D01*
X020010Y020418D02*
X019990Y020418D01*
X019953Y020260D02*
X020047Y020260D01*
X020206Y020101D02*
X019794Y020101D01*
X019740Y019943D02*
X020260Y019943D01*
X020260Y019784D02*
X019740Y019784D01*
X019740Y019626D02*
X020260Y019626D01*
X020260Y019467D02*
X019740Y019467D01*
X019740Y019309D02*
X020260Y019309D01*
X020260Y019150D02*
X019740Y019150D01*
X019740Y018992D02*
X020260Y018992D01*
X020128Y018833D02*
X019888Y018833D01*
X019984Y018675D02*
X020031Y018675D01*
X020500Y018500D02*
X020508Y018492D01*
X020500Y018500D02*
X020500Y020500D01*
X020042Y020735D02*
X019958Y020735D01*
X019799Y020894D02*
X020201Y020894D01*
X020799Y020894D02*
X021201Y020894D01*
X021042Y020735D02*
X020958Y020735D01*
X020990Y020577D02*
X021010Y020577D01*
X021010Y020418D02*
X020990Y020418D01*
X020953Y020260D02*
X021047Y020260D01*
X019260Y019943D02*
X018740Y019943D01*
X018740Y019784D02*
X019260Y019784D01*
X019260Y019626D02*
X018740Y019626D01*
X018740Y019467D02*
X019260Y019467D01*
X019260Y019309D02*
X018740Y019309D01*
X018740Y019150D02*
X019260Y019150D01*
X019260Y018992D02*
X018740Y018992D01*
X018888Y018833D02*
X019128Y018833D01*
X019031Y018675D02*
X018984Y018675D01*
X019004Y018358D02*
X019012Y018358D01*
X019080Y018199D02*
X018936Y018199D01*
X018750Y018041D02*
X019265Y018041D01*
X018508Y018492D02*
X018500Y018500D01*
X018500Y020500D01*
X018201Y020894D02*
X017199Y020894D01*
X017103Y020990D02*
X016697Y020990D01*
X016410Y020703D01*
X016410Y020297D01*
X016660Y020047D01*
X016660Y018918D01*
X016636Y018908D01*
X016498Y018770D01*
X016423Y018590D01*
X016423Y018395D01*
X016498Y018215D01*
X016636Y018077D01*
X016816Y018002D01*
X017011Y018002D01*
X017191Y018077D01*
X017329Y018215D01*
X017403Y018395D01*
X017403Y018590D01*
X017329Y018770D01*
X017191Y018908D01*
X017140Y018929D01*
X017140Y020047D01*
X017390Y020297D01*
X017390Y020703D01*
X017103Y020990D01*
X017358Y020735D02*
X018042Y020735D01*
X018010Y020577D02*
X017390Y020577D01*
X017390Y020418D02*
X018010Y020418D01*
X018047Y020260D02*
X017353Y020260D01*
X017194Y020101D02*
X018206Y020101D01*
X018260Y019943D02*
X017140Y019943D01*
X017140Y019784D02*
X018260Y019784D01*
X018260Y019626D02*
X017140Y019626D01*
X017140Y019467D02*
X018260Y019467D01*
X018260Y019309D02*
X017140Y019309D01*
X017140Y019150D02*
X018260Y019150D01*
X018260Y018992D02*
X017140Y018992D01*
X017265Y018833D02*
X018128Y018833D01*
X018031Y018675D02*
X017368Y018675D01*
X017403Y018516D02*
X017998Y018516D01*
X018012Y018358D02*
X017388Y018358D01*
X017313Y018199D02*
X018080Y018199D01*
X018265Y018041D02*
X017104Y018041D01*
X016723Y018041D02*
X016104Y018041D01*
X016191Y018077D02*
X016011Y018002D01*
X015816Y018002D01*
X015636Y018077D01*
X015498Y018215D01*
X015423Y018395D01*
X015423Y018590D01*
X015498Y018770D01*
X015636Y018908D01*
X015660Y018918D01*
X015660Y020047D01*
X015410Y020297D01*
X015410Y020703D01*
X015697Y020990D01*
X016103Y020990D01*
X016390Y020703D01*
X016390Y020297D01*
X016140Y020047D01*
X016140Y018929D01*
X016191Y018908D01*
X016329Y018770D01*
X016403Y018590D01*
X016403Y018395D01*
X016329Y018215D01*
X016191Y018077D01*
X016313Y018199D02*
X016513Y018199D01*
X016439Y018358D02*
X016388Y018358D01*
X016403Y018516D02*
X016423Y018516D01*
X016459Y018675D02*
X016368Y018675D01*
X016265Y018833D02*
X016561Y018833D01*
X016660Y018992D02*
X016140Y018992D01*
X016140Y019150D02*
X016660Y019150D01*
X016660Y019309D02*
X016140Y019309D01*
X016140Y019467D02*
X016660Y019467D01*
X016660Y019626D02*
X016140Y019626D01*
X016140Y019784D02*
X016660Y019784D01*
X016660Y019943D02*
X016140Y019943D01*
X016194Y020101D02*
X016606Y020101D01*
X016447Y020260D02*
X016353Y020260D01*
X016390Y020418D02*
X016410Y020418D01*
X016410Y020577D02*
X016390Y020577D01*
X016358Y020735D02*
X016442Y020735D01*
X016601Y020894D02*
X016199Y020894D01*
X015900Y020500D02*
X015900Y018506D01*
X015913Y018492D01*
X015459Y018675D02*
X015368Y018675D01*
X015403Y018590D02*
X015329Y018770D01*
X015191Y018908D01*
X015140Y018929D01*
X015140Y020047D01*
X015390Y020297D01*
X015390Y020703D01*
X015103Y020990D01*
X014697Y020990D01*
X014410Y020703D01*
X014410Y020297D01*
X014660Y020047D01*
X014660Y018918D01*
X014636Y018908D01*
X014498Y018770D01*
X014423Y018590D01*
X014423Y018395D01*
X014498Y018215D01*
X014636Y018077D01*
X014816Y018002D01*
X015011Y018002D01*
X015191Y018077D01*
X015329Y018215D01*
X015403Y018395D01*
X015403Y018590D01*
X015403Y018516D02*
X015423Y018516D01*
X015439Y018358D02*
X015388Y018358D01*
X015313Y018199D02*
X015513Y018199D01*
X015723Y018041D02*
X015104Y018041D01*
X014723Y018041D02*
X014112Y018041D01*
X014199Y018077D02*
X014019Y018002D01*
X013824Y018002D01*
X013644Y018077D01*
X013506Y018215D01*
X013431Y018395D01*
X013431Y018590D01*
X013506Y018770D01*
X013644Y018908D01*
X013660Y018914D01*
X013660Y020047D01*
X013410Y020297D01*
X013410Y020703D01*
X013697Y020990D01*
X014103Y020990D01*
X014390Y020703D01*
X014390Y020297D01*
X014140Y020047D01*
X014140Y018932D01*
X014199Y018908D01*
X014337Y018770D01*
X014411Y018590D01*
X014411Y018395D01*
X014337Y018215D01*
X014199Y018077D01*
X014321Y018199D02*
X014513Y018199D01*
X014439Y018358D02*
X014396Y018358D01*
X014411Y018516D02*
X014423Y018516D01*
X014459Y018675D02*
X014376Y018675D01*
X014273Y018833D02*
X014561Y018833D01*
X014660Y018992D02*
X014140Y018992D01*
X014140Y019150D02*
X014660Y019150D01*
X014660Y019309D02*
X014140Y019309D01*
X014140Y019467D02*
X014660Y019467D01*
X014660Y019626D02*
X014140Y019626D01*
X014140Y019784D02*
X014660Y019784D01*
X014660Y019943D02*
X014140Y019943D01*
X014194Y020101D02*
X014606Y020101D01*
X014447Y020260D02*
X014353Y020260D01*
X014390Y020418D02*
X014410Y020418D01*
X014410Y020577D02*
X014390Y020577D01*
X014358Y020735D02*
X014442Y020735D01*
X014601Y020894D02*
X014199Y020894D01*
X013900Y020500D02*
X013900Y018513D01*
X013921Y018492D01*
X013731Y018041D02*
X013112Y018041D01*
X013199Y018077D02*
X013337Y018215D01*
X013411Y018395D01*
X013411Y018590D01*
X013337Y018770D01*
X013199Y018908D01*
X013140Y018932D01*
X013140Y020047D01*
X013390Y020297D01*
X013390Y020703D01*
X013103Y020990D01*
X012697Y020990D01*
X012410Y020703D01*
X012410Y020297D01*
X012660Y020047D01*
X012660Y018914D01*
X012644Y018908D01*
X012506Y018770D01*
X012431Y018590D01*
X012431Y018395D01*
X012506Y018215D01*
X012644Y018077D01*
X012824Y018002D01*
X013019Y018002D01*
X013199Y018077D01*
X013321Y018199D02*
X013521Y018199D01*
X013447Y018358D02*
X013396Y018358D01*
X013411Y018516D02*
X013431Y018516D01*
X013466Y018675D02*
X013376Y018675D01*
X013273Y018833D02*
X013569Y018833D01*
X013660Y018992D02*
X013140Y018992D01*
X013140Y019150D02*
X013660Y019150D01*
X013660Y019309D02*
X013140Y019309D01*
X013140Y019467D02*
X013660Y019467D01*
X013660Y019626D02*
X013140Y019626D01*
X013140Y019784D02*
X013660Y019784D01*
X013660Y019943D02*
X013140Y019943D01*
X013194Y020101D02*
X013606Y020101D01*
X013447Y020260D02*
X013353Y020260D01*
X013390Y020418D02*
X013410Y020418D01*
X013410Y020577D02*
X013390Y020577D01*
X013358Y020735D02*
X013442Y020735D01*
X013601Y020894D02*
X013199Y020894D01*
X012900Y020500D02*
X012900Y018513D01*
X012921Y018492D01*
X012521Y018199D02*
X012321Y018199D01*
X012337Y018215D02*
X012411Y018395D01*
X012411Y018590D01*
X012337Y018770D01*
X012199Y018908D01*
X012140Y018932D01*
X012140Y020047D01*
X012390Y020297D01*
X012390Y020703D01*
X012103Y020990D01*
X011697Y020990D01*
X011410Y020703D01*
X011410Y020297D01*
X011660Y020047D01*
X011660Y018914D01*
X011644Y018908D01*
X011506Y018770D01*
X011431Y018590D01*
X011431Y018395D01*
X011506Y018215D01*
X011644Y018077D01*
X011824Y018002D01*
X012019Y018002D01*
X012199Y018077D01*
X012337Y018215D01*
X012396Y018358D02*
X012447Y018358D01*
X012431Y018516D02*
X012411Y018516D01*
X012376Y018675D02*
X012466Y018675D01*
X012569Y018833D02*
X012273Y018833D01*
X012140Y018992D02*
X012660Y018992D01*
X012660Y019150D02*
X012140Y019150D01*
X012140Y019309D02*
X012660Y019309D01*
X012660Y019467D02*
X012140Y019467D01*
X012140Y019626D02*
X012660Y019626D01*
X012660Y019784D02*
X012140Y019784D01*
X012140Y019943D02*
X012660Y019943D01*
X012606Y020101D02*
X012194Y020101D01*
X012353Y020260D02*
X012447Y020260D01*
X012410Y020418D02*
X012390Y020418D01*
X012390Y020577D02*
X012410Y020577D01*
X012442Y020735D02*
X012358Y020735D01*
X012199Y020894D02*
X012601Y020894D01*
X011900Y020500D02*
X011900Y018513D01*
X011921Y018492D01*
X011466Y018675D02*
X011374Y018675D01*
X011408Y018516D02*
X011431Y018516D01*
X011447Y018358D02*
X011394Y018358D01*
X011326Y018199D02*
X011521Y018199D01*
X011731Y018041D02*
X011140Y018041D01*
X010655Y018041D02*
X010140Y018041D01*
X010326Y018199D02*
X010469Y018199D01*
X010401Y018358D02*
X010394Y018358D01*
X010374Y018675D02*
X010421Y018675D01*
X010517Y018833D02*
X010278Y018833D01*
X010140Y018992D02*
X010660Y018992D01*
X010660Y019150D02*
X010140Y019150D01*
X010140Y019309D02*
X010660Y019309D01*
X010660Y019467D02*
X010140Y019467D01*
X010140Y019626D02*
X010660Y019626D01*
X010660Y019784D02*
X010140Y019784D01*
X010140Y019943D02*
X010660Y019943D01*
X010606Y020101D02*
X010194Y020101D01*
X010353Y020260D02*
X010447Y020260D01*
X010410Y020418D02*
X010390Y020418D01*
X010390Y020577D02*
X010410Y020577D01*
X010442Y020735D02*
X010358Y020735D01*
X010199Y020894D02*
X010601Y020894D01*
X010900Y020500D02*
X010900Y018494D01*
X010898Y018492D01*
X011278Y018833D02*
X011569Y018833D01*
X011660Y018992D02*
X011140Y018992D01*
X011140Y019150D02*
X011660Y019150D01*
X011660Y019309D02*
X011140Y019309D01*
X011140Y019467D02*
X011660Y019467D01*
X011660Y019626D02*
X011140Y019626D01*
X011140Y019784D02*
X011660Y019784D01*
X011660Y019943D02*
X011140Y019943D01*
X011194Y020101D02*
X011606Y020101D01*
X011447Y020260D02*
X011353Y020260D01*
X011390Y020418D02*
X011410Y020418D01*
X011410Y020577D02*
X011390Y020577D01*
X011358Y020735D02*
X011442Y020735D01*
X011601Y020894D02*
X011199Y020894D01*
X009900Y020500D02*
X009900Y018494D01*
X009898Y018492D01*
X009469Y018199D02*
X009326Y018199D01*
X009394Y018358D02*
X009401Y018358D01*
X009655Y018041D02*
X009140Y018041D01*
X008655Y018041D02*
X008140Y018041D01*
X008326Y018199D02*
X008469Y018199D01*
X008401Y018358D02*
X008394Y018358D01*
X008898Y018492D02*
X008900Y018494D01*
X008900Y020500D01*
X009390Y020577D02*
X009410Y020577D01*
X009410Y020418D02*
X009390Y020418D01*
X009353Y020260D02*
X009447Y020260D01*
X009606Y020101D02*
X009194Y020101D01*
X009140Y019943D02*
X009660Y019943D01*
X009660Y019784D02*
X009140Y019784D01*
X009140Y019626D02*
X009660Y019626D01*
X009660Y019467D02*
X009140Y019467D01*
X009140Y019309D02*
X009660Y019309D01*
X009660Y019150D02*
X009140Y019150D01*
X009140Y018992D02*
X009660Y018992D01*
X009517Y018833D02*
X009278Y018833D01*
X009374Y018675D02*
X009421Y018675D01*
X008660Y018992D02*
X008140Y018992D01*
X008140Y019150D02*
X008660Y019150D01*
X008660Y019309D02*
X008140Y019309D01*
X008140Y019467D02*
X008660Y019467D01*
X008660Y019626D02*
X008140Y019626D01*
X008140Y019784D02*
X008660Y019784D01*
X008660Y019943D02*
X008140Y019943D01*
X008194Y020101D02*
X008606Y020101D01*
X008447Y020260D02*
X008353Y020260D01*
X008390Y020418D02*
X008410Y020418D01*
X008410Y020577D02*
X008390Y020577D01*
X008358Y020735D02*
X008442Y020735D01*
X008601Y020894D02*
X008199Y020894D01*
X007900Y020500D02*
X007900Y018494D01*
X007898Y018492D01*
X008374Y018675D02*
X008421Y018675D01*
X008517Y018833D02*
X008278Y018833D01*
X007660Y018992D02*
X001040Y018992D01*
X001040Y019150D02*
X007660Y019150D01*
X007660Y019309D02*
X001040Y019309D01*
X001040Y019467D02*
X007660Y019467D01*
X007660Y019626D02*
X007018Y019626D01*
X007227Y019784D02*
X007660Y019784D01*
X007660Y019943D02*
X007361Y019943D01*
X007453Y020101D02*
X007606Y020101D01*
X007601Y020894D02*
X007471Y020894D01*
X005990Y019626D02*
X001040Y019626D01*
X001040Y019784D02*
X005781Y019784D01*
X005646Y019943D02*
X001040Y019943D01*
X001040Y020101D02*
X005555Y020101D01*
X005506Y020260D02*
X001040Y020260D01*
X001040Y020418D02*
X005473Y020418D01*
X005473Y020577D02*
X001040Y020577D01*
X001040Y020735D02*
X005494Y020735D01*
X005537Y020894D02*
X001071Y020894D01*
X001040Y018833D02*
X007517Y018833D01*
X007421Y018675D02*
X001040Y018675D01*
X001040Y018516D02*
X007388Y018516D01*
X007401Y018358D02*
X001040Y018358D01*
X001040Y018199D02*
X007469Y018199D01*
X007655Y018041D02*
X001040Y018041D01*
X009199Y020894D02*
X009601Y020894D01*
X009442Y020735D02*
X009358Y020735D01*
X012112Y018041D02*
X012731Y018041D01*
X014900Y018506D02*
X014913Y018492D01*
X014900Y018506D02*
X014900Y020500D01*
X015199Y020894D02*
X015601Y020894D01*
X015442Y020735D02*
X015358Y020735D01*
X015390Y020577D02*
X015410Y020577D01*
X015410Y020418D02*
X015390Y020418D01*
X015353Y020260D02*
X015447Y020260D01*
X015606Y020101D02*
X015194Y020101D01*
X015140Y019943D02*
X015660Y019943D01*
X015660Y019784D02*
X015140Y019784D01*
X015140Y019626D02*
X015660Y019626D01*
X015660Y019467D02*
X015140Y019467D01*
X015140Y019309D02*
X015660Y019309D01*
X015660Y019150D02*
X015140Y019150D01*
X015140Y018992D02*
X015660Y018992D01*
X015561Y018833D02*
X015265Y018833D01*
X016900Y018506D02*
X016913Y018492D01*
X016900Y018506D02*
X016900Y020500D01*
X018794Y020101D02*
X019206Y020101D01*
X019047Y020260D02*
X018953Y020260D01*
X018990Y020418D02*
X019010Y020418D01*
X019010Y020577D02*
X018990Y020577D01*
X018958Y020735D02*
X019042Y020735D01*
X019201Y020894D02*
X018799Y020894D01*
X026999Y013603D02*
X027020Y013603D01*
X025627Y011859D02*
X025609Y011859D01*
X025758Y011701D02*
X024650Y011701D01*
X024808Y011859D02*
X024858Y011909D01*
X024881Y011928D01*
X024927Y011947D01*
X024927Y011890D01*
X022656Y011598D02*
X022606Y011648D01*
X022993Y009482D02*
X023146Y009482D01*
X021486Y008689D02*
X019610Y008689D01*
X019643Y008848D02*
X019452Y008848D01*
X019390Y009323D02*
X019611Y009323D01*
X020183Y007421D02*
X025353Y007421D01*
X025347Y007263D02*
X020308Y007263D01*
X020345Y007104D02*
X026257Y007104D01*
X026257Y006946D02*
X026397Y006946D01*
X026397Y006787D02*
X026257Y006787D01*
X026257Y006629D02*
X026397Y006629D01*
X026397Y007263D02*
X026257Y007263D01*
X026257Y007421D02*
X026397Y007421D01*
X025347Y006946D02*
X020316Y006946D01*
X020202Y006787D02*
X025347Y006787D01*
D21*
X025047Y006642D03*
X024575Y006642D03*
X024083Y006642D03*
X023610Y006642D03*
X023118Y006642D03*
X022626Y006642D03*
X022114Y006642D03*
X021622Y006642D03*
X021150Y006642D03*
X020677Y006642D03*
X020677Y005539D03*
X020185Y005539D03*
X019693Y005539D03*
X019201Y005520D03*
X021169Y005539D03*
X021642Y005539D03*
X022134Y005539D03*
X022646Y005539D03*
X023138Y005539D03*
X023630Y005539D03*
X024102Y005539D03*
X024594Y005539D03*
X025067Y005539D03*
X024772Y008925D03*
X023984Y010618D03*
X020598Y011110D03*
X019299Y011799D03*
X017488Y011504D03*
X016465Y011524D03*
X016484Y013531D03*
D22*
X013906Y012094D02*
X013630Y012094D01*
X013584Y012096D01*
X013538Y012101D01*
X013492Y012110D01*
X013447Y012123D01*
X013404Y012139D01*
X013362Y012158D01*
X013321Y012181D01*
X013283Y012207D01*
X013246Y012236D01*
X013212Y012267D01*
X013181Y012301D01*
X013152Y012338D01*
X013126Y012376D01*
X013103Y012417D01*
X013084Y012459D01*
X013068Y012502D01*
X013055Y012547D01*
X013046Y012593D01*
X013041Y012639D01*
X013039Y012685D01*
X013039Y015461D01*
X013041Y015510D01*
X013047Y015560D01*
X013056Y015608D01*
X013070Y015656D01*
X013087Y015702D01*
X013108Y015747D01*
X013132Y015790D01*
X013159Y015831D01*
X013190Y015870D01*
X013224Y015906D01*
X013260Y015940D01*
X013299Y015971D01*
X013340Y015998D01*
X013383Y016022D01*
X013428Y016043D01*
X013474Y016060D01*
X013522Y016074D01*
X013570Y016083D01*
X013620Y016089D01*
X013669Y016091D01*
X013886Y016091D01*
X019929Y010087D02*
X019949Y010087D01*
X019890Y008098D02*
X019949Y008098D01*
X022696Y009645D02*
X022845Y009794D01*
X022970Y010073D02*
X022970Y011959D01*
X022885Y012139D02*
X022667Y012357D01*
X022738Y012318D01*
X022884Y012139D02*
X022905Y012118D01*
X022923Y012096D01*
X022938Y012071D01*
X022951Y012045D01*
X022960Y012017D01*
X022966Y011989D01*
X022970Y011960D01*
X023157Y012168D02*
X023157Y011647D01*
X023157Y011648D02*
X023157Y011609D01*
X023161Y011571D01*
X023167Y011533D01*
X023177Y011495D01*
X023190Y011459D01*
X023207Y011424D01*
X023226Y011391D01*
X023248Y011359D01*
X023273Y011330D01*
X023984Y010618D01*
X024141Y010461D01*
X023984Y010618D02*
X025146Y010618D01*
X024257Y010183D02*
X024257Y009597D01*
X024257Y010183D02*
X024255Y010222D01*
X024249Y010260D01*
X024240Y010297D01*
X024227Y010334D01*
X024210Y010369D01*
X024191Y010402D01*
X024168Y010433D01*
X024142Y010462D01*
X022971Y010072D02*
X022968Y010033D01*
X022961Y009995D01*
X022950Y009957D01*
X022936Y009920D01*
X022918Y009886D01*
X022897Y009853D01*
X022873Y009822D01*
X022846Y009794D01*
X023158Y012167D02*
X023165Y012195D01*
X023177Y012222D01*
X023191Y012247D01*
X023209Y012270D01*
X023230Y012290D01*
X023253Y012308D01*
X023422Y012370D02*
X024086Y012370D01*
X024125Y012331D02*
X024257Y012318D01*
X023422Y012370D02*
X023395Y012369D01*
X023369Y012366D01*
X023344Y012360D01*
X023319Y012351D01*
X023295Y012339D01*
X023273Y012325D01*
X023253Y012308D01*
D23*
X023483Y011972D02*
X023691Y011764D01*
X023970Y011648D02*
X024257Y011648D01*
X024417Y011780D01*
X024702Y012064D01*
X024772Y012232D02*
X024772Y012581D01*
X024656Y012859D02*
X021600Y015916D01*
X021484Y016195D02*
X021484Y016484D01*
X021484Y016195D02*
X021486Y016156D01*
X021492Y016118D01*
X021501Y016081D01*
X021514Y016044D01*
X021531Y016009D01*
X021550Y015976D01*
X021573Y015945D01*
X021599Y015916D01*
X020480Y016494D02*
X020480Y017094D01*
X020482Y017133D01*
X020488Y017171D01*
X020497Y017208D01*
X020510Y017245D01*
X020527Y017280D01*
X020546Y017313D01*
X020569Y017344D01*
X020595Y017373D01*
X020624Y017399D01*
X020655Y017422D01*
X020688Y017441D01*
X020723Y017458D01*
X020760Y017471D01*
X020797Y017480D01*
X020835Y017486D01*
X020874Y017488D01*
X021858Y017488D01*
X021907Y017490D01*
X021955Y017495D01*
X022003Y017504D01*
X022050Y017517D01*
X022095Y017533D01*
X022140Y017552D01*
X022183Y017575D01*
X022224Y017601D01*
X022263Y017630D01*
X022300Y017662D01*
X022334Y017696D01*
X022366Y017733D01*
X022395Y017772D01*
X022421Y017813D01*
X022444Y017856D01*
X022463Y017901D01*
X022479Y017946D01*
X022492Y017993D01*
X022501Y018041D01*
X022506Y018089D01*
X022508Y018138D01*
X022508Y018488D01*
X023496Y018492D02*
X023496Y016484D01*
X025496Y016484D02*
X025496Y018492D01*
X024657Y012860D02*
X024683Y012831D01*
X024706Y012800D01*
X024725Y012767D01*
X024742Y012732D01*
X024755Y012695D01*
X024764Y012658D01*
X024770Y012620D01*
X024772Y012581D01*
X024772Y012232D02*
X024771Y012205D01*
X024766Y012179D01*
X024759Y012153D01*
X024748Y012129D01*
X024736Y012105D01*
X024720Y012084D01*
X024702Y012064D01*
X024965Y012173D02*
X025283Y012173D01*
X024965Y012173D02*
X024929Y012171D01*
X024892Y012166D01*
X024857Y012157D01*
X024823Y012145D01*
X024790Y012129D01*
X024758Y012110D01*
X024729Y012089D01*
X024702Y012064D01*
X024125Y012331D02*
X024086Y012370D01*
X023691Y011763D02*
X023720Y011737D01*
X023751Y011714D01*
X023784Y011695D01*
X023819Y011678D01*
X023856Y011665D01*
X023893Y011656D01*
X023931Y011650D01*
X023970Y011648D01*
X025146Y011130D02*
X025146Y010618D01*
X025146Y010087D01*
X026012Y010185D02*
X025953Y009063D01*
X025148Y008928D02*
X024772Y008928D01*
X024772Y008925D01*
X024772Y008928D02*
X024257Y008928D01*
X023989Y008928D01*
X023711Y009043D02*
X023483Y009271D01*
X023710Y009042D02*
X023739Y009016D01*
X023770Y008993D01*
X023803Y008974D01*
X023838Y008957D01*
X023875Y008944D01*
X023912Y008935D01*
X023950Y008929D01*
X023989Y008927D01*
X022656Y008897D02*
X021891Y008897D01*
X021863Y008928D01*
X020286Y008928D01*
X020008Y009043D02*
X019949Y009102D01*
X019299Y009102D01*
X017488Y010913D01*
X017488Y011504D01*
X016465Y011524D02*
X019890Y008098D01*
X020286Y008927D02*
X020247Y008929D01*
X020209Y008935D01*
X020172Y008944D01*
X020135Y008957D01*
X020100Y008974D01*
X020067Y008993D01*
X020036Y009016D01*
X020007Y009042D01*
X019949Y010087D02*
X020138Y010087D01*
X019929Y010087D02*
X016484Y013531D01*
X014023Y016051D02*
X014013Y016066D01*
X014001Y016078D01*
X013987Y016089D01*
X013971Y016096D01*
X013954Y016101D01*
X013937Y016103D01*
X013919Y016102D01*
X013902Y016097D01*
X013886Y016090D01*
X019949Y012114D02*
X020037Y012202D01*
X020315Y012318D02*
X021863Y012318D01*
X021893Y012346D01*
X022656Y012346D01*
X022656Y011598D02*
X021872Y011598D01*
X021863Y011648D01*
X020416Y010202D01*
X020417Y010201D02*
X020388Y010175D01*
X020357Y010152D01*
X020324Y010133D01*
X020289Y010116D01*
X020252Y010103D01*
X020215Y010094D01*
X020177Y010088D01*
X020138Y010086D01*
X019949Y011110D02*
X020598Y011110D01*
X020036Y012203D02*
X020065Y012229D01*
X020096Y012252D01*
X020129Y012271D01*
X020164Y012288D01*
X020201Y012301D01*
X020238Y012310D01*
X020276Y012316D01*
X020315Y012318D01*
X021874Y009645D02*
X022656Y009645D01*
X022696Y009645D01*
X021874Y009645D02*
X021863Y009597D01*
X025972Y010086D02*
X025968Y010100D01*
X025966Y010115D01*
X025967Y010130D01*
X025971Y010144D01*
X025978Y010157D01*
X025987Y010168D01*
X025999Y010178D01*
X026011Y010185D01*
X026012Y011091D02*
X025953Y012173D01*
X025973Y011130D02*
X025974Y011120D01*
X025978Y011111D01*
X025984Y011102D01*
X025993Y011096D01*
X026002Y011092D01*
X026012Y011091D01*
D24*
X015500Y003469D02*
X015500Y001500D01*
X014500Y001500D02*
X014500Y003492D01*
X015496Y003473D02*
X015498Y003472D01*
X015499Y003471D01*
X015500Y003469D01*
M02*
