G75*
%MOIN*%
%OFA0B0*%
%FSLAX24Y24*%
%IPPOS*%
%LPD*%
%AMOC8*
5,1,8,0,0,1.08239X$1,22.5*
%
%ADD10C,0.1182*%
%ADD11R,0.1680X0.0680*%
%ADD12OC8,0.0740*%
%ADD13C,0.0740*%
%ADD14C,0.0780*%
%ADD15C,0.0749*%
D10*
X006012Y001504D03*
X026484Y003492D03*
X026484Y014496D03*
X006504Y020520D03*
D11*
X026327Y007075D03*
X026327Y005075D03*
D12*
X025500Y001500D03*
X024500Y001500D03*
X023500Y001500D03*
X022500Y001500D03*
X021500Y001500D03*
X020500Y001500D03*
X018500Y001500D03*
X017500Y001500D03*
X016500Y001500D03*
X015500Y001500D03*
X014500Y001500D03*
X013500Y001500D03*
X012500Y001500D03*
X011500Y001500D03*
X011900Y020500D03*
X010900Y020500D03*
X009900Y020500D03*
X008900Y020500D03*
X007900Y020500D03*
X012900Y020500D03*
X013900Y020500D03*
X014900Y020500D03*
X015900Y020500D03*
X016900Y020500D03*
X018500Y020500D03*
X019500Y020500D03*
X020500Y020500D03*
X021500Y020500D03*
X022500Y020500D03*
X023500Y020500D03*
X024500Y020500D03*
X025500Y020500D03*
D13*
X025496Y016484D03*
X024496Y016484D03*
X023496Y016484D03*
X022484Y016484D03*
X021484Y016484D03*
X020484Y016484D03*
X016913Y018492D03*
X015913Y018492D03*
X014913Y018492D03*
X013921Y018492D03*
X012921Y018492D03*
X011921Y018492D03*
X020504Y003492D03*
X021504Y003492D03*
X022504Y003492D03*
X023496Y003492D03*
X024496Y003492D03*
X025496Y003492D03*
D14*
X018496Y003472D03*
X017496Y003472D03*
X016496Y003472D03*
X015496Y003472D03*
X014500Y003492D03*
X013500Y003492D03*
X012500Y003492D03*
X011500Y003492D03*
X010898Y018492D03*
X009898Y018492D03*
X008898Y018492D03*
X007898Y018492D03*
X018508Y018492D03*
X019508Y018492D03*
X020508Y018492D03*
X021508Y018492D03*
X022504Y018492D03*
X023504Y018492D03*
X024504Y018492D03*
X025504Y018492D03*
D15*
X018492Y016504D03*
X017488Y016504D03*
X016484Y016524D03*
X015480Y016504D03*
X014476Y016504D03*
X013492Y016504D03*
M02*
