G75*
%MOIN*%
%OFA0B0*%
%FSLAX24Y24*%
%IPPOS*%
%LPD*%
%AMOC8*
5,1,8,0,0,1.08239X$1,22.5*
%
%ADD10C,0.0160*%
%ADD11C,0.0120*%
%ADD12C,0.0060*%
%ADD13C,0.0000*%
%ADD14C,0.0050*%
%ADD15C,0.0079*%
%ADD16C,0.0080*%
%ADD17C,0.0030*%
%ADD18R,0.0200X0.0200*%
%ADD19R,0.0160X0.0340*%
%ADD20C,0.0040*%
%ADD21R,0.0118X0.0059*%
%ADD22R,0.0118X0.0118*%
%ADD23R,0.0236X0.0531*%
%ADD24C,0.0100*%
%ADD25R,0.0340X0.0160*%
D10*
X013906Y006110D02*
X013906Y006661D01*
X013906Y006110D02*
X014476Y006110D01*
X019378Y006091D02*
X019949Y006091D01*
X019949Y006642D01*
X019949Y013551D02*
X019949Y014102D01*
X019949Y014122D02*
X019378Y014122D01*
X014516Y014122D02*
X013945Y014122D01*
X013945Y013571D01*
D11*
X018165Y007882D02*
X018167Y007927D01*
X018173Y007971D01*
X018183Y008014D01*
X018196Y008057D01*
X018214Y008098D01*
X018234Y008137D01*
X018259Y008175D01*
X018286Y008210D01*
X018317Y008242D01*
X018350Y008272D01*
X018386Y008299D01*
X018423Y008322D01*
X018463Y008342D01*
X018505Y008359D01*
X018548Y008371D01*
X018591Y008380D01*
X018636Y008385D01*
X018680Y008386D01*
X018725Y008383D01*
X018769Y008376D01*
X018812Y008365D01*
X018854Y008351D01*
X018895Y008333D01*
X018934Y008311D01*
X018971Y008286D01*
X019005Y008258D01*
X019037Y008226D01*
X019066Y008192D01*
X019092Y008156D01*
X019114Y008118D01*
X019134Y008077D01*
X019149Y008036D01*
X019161Y007993D01*
X019169Y007949D01*
X019173Y007904D01*
X019173Y007860D01*
X019169Y007815D01*
X019161Y007771D01*
X019149Y007728D01*
X019134Y007687D01*
X019114Y007646D01*
X019092Y007608D01*
X019066Y007572D01*
X019037Y007538D01*
X019005Y007506D01*
X018971Y007478D01*
X018934Y007453D01*
X018895Y007431D01*
X018854Y007413D01*
X018812Y007399D01*
X018769Y007388D01*
X018725Y007381D01*
X018680Y007378D01*
X018636Y007379D01*
X018591Y007384D01*
X018548Y007393D01*
X018505Y007405D01*
X018463Y007422D01*
X018423Y007442D01*
X018386Y007465D01*
X018350Y007492D01*
X018317Y007522D01*
X018286Y007554D01*
X018259Y007589D01*
X018234Y007627D01*
X018214Y007666D01*
X018196Y007707D01*
X018183Y007750D01*
X018173Y007793D01*
X018167Y007837D01*
X018165Y007882D01*
X026659Y001560D02*
X027336Y002238D01*
X027567Y002795D02*
X027567Y015036D01*
X027336Y015593D02*
X026794Y016136D01*
X026563Y016692D02*
X026563Y020776D01*
X026561Y020830D01*
X026556Y020883D01*
X026547Y020936D01*
X026534Y020988D01*
X026518Y021040D01*
X026498Y021090D01*
X026475Y021138D01*
X026448Y021185D01*
X026419Y021230D01*
X026386Y021273D01*
X026351Y021313D01*
X026313Y021351D01*
X026273Y021386D01*
X026230Y021419D01*
X026185Y021448D01*
X026138Y021475D01*
X026090Y021498D01*
X026040Y021518D01*
X025988Y021534D01*
X025936Y021547D01*
X025883Y021556D01*
X025830Y021561D01*
X025776Y021563D01*
X001287Y021563D01*
X001233Y021561D01*
X001180Y021556D01*
X001127Y021547D01*
X001075Y021534D01*
X001023Y021518D01*
X000973Y021498D01*
X000925Y021475D01*
X000878Y021448D01*
X000833Y021419D01*
X000790Y021386D01*
X000750Y021351D01*
X000712Y021313D01*
X000677Y021273D01*
X000644Y021230D01*
X000615Y021185D01*
X000588Y021138D01*
X000565Y021090D01*
X000545Y021040D01*
X000529Y020988D01*
X000516Y020936D01*
X000507Y020883D01*
X000502Y020830D01*
X000500Y020776D01*
X000500Y001209D01*
X000502Y001155D01*
X000507Y001102D01*
X000516Y001049D01*
X000529Y000997D01*
X000545Y000945D01*
X000565Y000895D01*
X000588Y000847D01*
X000615Y000800D01*
X000644Y000755D01*
X000677Y000712D01*
X000712Y000672D01*
X000750Y000634D01*
X000790Y000599D01*
X000833Y000566D01*
X000878Y000537D01*
X000925Y000510D01*
X000973Y000487D01*
X001023Y000467D01*
X001075Y000451D01*
X001127Y000438D01*
X001180Y000429D01*
X001233Y000424D01*
X001287Y000422D01*
X001287Y000421D02*
X025776Y000421D01*
X025776Y000422D02*
X025830Y000424D01*
X025883Y000429D01*
X025936Y000438D01*
X025988Y000451D01*
X026040Y000467D01*
X026090Y000487D01*
X026138Y000510D01*
X026185Y000537D01*
X026230Y000566D01*
X026273Y000599D01*
X026313Y000634D01*
X026351Y000672D01*
X026386Y000712D01*
X026419Y000755D01*
X026448Y000800D01*
X026475Y000847D01*
X026498Y000895D01*
X026518Y000945D01*
X026534Y000997D01*
X026547Y001049D01*
X026556Y001102D01*
X026561Y001155D01*
X026563Y001209D01*
X026563Y001301D01*
X026564Y001336D01*
X026567Y001372D01*
X026575Y001406D01*
X026585Y001440D01*
X026599Y001472D01*
X026616Y001503D01*
X026636Y001532D01*
X026659Y001560D01*
X027336Y002239D02*
X027372Y002276D01*
X027404Y002316D01*
X027434Y002358D01*
X027462Y002401D01*
X027486Y002447D01*
X027507Y002494D01*
X027525Y002542D01*
X027540Y002591D01*
X027552Y002641D01*
X027560Y002692D01*
X027565Y002744D01*
X027567Y002795D01*
X027567Y015036D02*
X027565Y015087D01*
X027560Y015139D01*
X027552Y015190D01*
X027540Y015240D01*
X027525Y015289D01*
X027507Y015337D01*
X027486Y015384D01*
X027462Y015430D01*
X027434Y015473D01*
X027404Y015515D01*
X027372Y015555D01*
X027336Y015592D01*
X026794Y016136D02*
X026758Y016173D01*
X026726Y016213D01*
X026696Y016255D01*
X026668Y016298D01*
X026644Y016344D01*
X026623Y016391D01*
X026605Y016439D01*
X026590Y016488D01*
X026578Y016538D01*
X026570Y016589D01*
X026565Y016641D01*
X026563Y016692D01*
X024437Y017055D02*
X024439Y017070D01*
X024444Y017083D01*
X024453Y017095D01*
X024464Y017105D01*
X024478Y017111D01*
X024492Y017114D01*
X024507Y017113D01*
X024521Y017108D01*
X024534Y017100D01*
X024544Y017090D01*
X024551Y017077D01*
X024555Y017062D01*
X024555Y017048D01*
X024551Y017033D01*
X024544Y017020D01*
X024534Y017010D01*
X024521Y017002D01*
X024507Y016997D01*
X024492Y016996D01*
X024478Y016999D01*
X024464Y017005D01*
X024453Y017015D01*
X024444Y017027D01*
X024439Y017040D01*
X024437Y017055D01*
X024437Y015913D02*
X024439Y015928D01*
X024444Y015941D01*
X024453Y015953D01*
X024464Y015963D01*
X024478Y015969D01*
X024492Y015972D01*
X024507Y015971D01*
X024521Y015966D01*
X024534Y015958D01*
X024544Y015948D01*
X024551Y015935D01*
X024555Y015920D01*
X024555Y015906D01*
X024551Y015891D01*
X024544Y015878D01*
X024534Y015868D01*
X024521Y015860D01*
X024507Y015855D01*
X024492Y015854D01*
X024478Y015857D01*
X024464Y015863D01*
X024453Y015873D01*
X024444Y015885D01*
X024439Y015898D01*
X024437Y015913D01*
X021425Y015913D02*
X021427Y015928D01*
X021432Y015941D01*
X021441Y015953D01*
X021452Y015963D01*
X021466Y015969D01*
X021480Y015972D01*
X021495Y015971D01*
X021509Y015966D01*
X021522Y015958D01*
X021532Y015948D01*
X021539Y015935D01*
X021543Y015920D01*
X021543Y015906D01*
X021539Y015891D01*
X021532Y015878D01*
X021522Y015868D01*
X021509Y015860D01*
X021495Y015855D01*
X021480Y015854D01*
X021466Y015857D01*
X021452Y015863D01*
X021441Y015873D01*
X021432Y015885D01*
X021427Y015898D01*
X021425Y015913D01*
X021425Y017055D02*
X021427Y017070D01*
X021432Y017083D01*
X021441Y017095D01*
X021452Y017105D01*
X021466Y017111D01*
X021480Y017114D01*
X021495Y017113D01*
X021509Y017108D01*
X021522Y017100D01*
X021532Y017090D01*
X021539Y017077D01*
X021543Y017062D01*
X021543Y017048D01*
X021539Y017033D01*
X021532Y017020D01*
X021522Y017010D01*
X021509Y017002D01*
X021495Y016997D01*
X021480Y016996D01*
X021466Y016999D01*
X021452Y017005D01*
X021441Y017015D01*
X021432Y017027D01*
X021427Y017040D01*
X021425Y017055D01*
D12*
X022790Y012532D02*
X023310Y012532D01*
X023310Y011412D01*
X022790Y011412D01*
X022790Y012532D01*
X022003Y012153D02*
X022003Y011813D01*
X021723Y011813D02*
X021723Y012153D01*
X024116Y012153D02*
X024116Y011813D01*
X024397Y011813D02*
X024397Y012153D01*
X025448Y012033D02*
X025788Y012033D01*
X025788Y012313D02*
X025448Y012313D01*
X023310Y009831D02*
X022790Y009831D01*
X022790Y008711D01*
X023310Y008711D01*
X023310Y009831D01*
X024116Y009433D02*
X024116Y009092D01*
X024397Y009092D02*
X024397Y009433D01*
X025448Y009203D02*
X025788Y009203D01*
X025788Y008923D02*
X025448Y008923D01*
X022003Y009092D02*
X022003Y009433D01*
X021723Y009433D02*
X021723Y009092D01*
X011994Y006409D02*
X011932Y006409D01*
X011932Y006347D01*
X011994Y006347D01*
X011994Y006409D01*
X011994Y006222D02*
X011932Y006222D01*
X011932Y006160D01*
X011994Y006160D01*
X011994Y006222D01*
X011994Y006160D02*
X011870Y006035D01*
X011728Y006284D02*
X011604Y006160D01*
X011728Y006284D02*
X011728Y006409D01*
X011604Y006533D01*
X011458Y006471D02*
X011396Y006409D01*
X011458Y006471D02*
X011458Y006596D01*
X011334Y006596D02*
X011334Y006471D01*
X011271Y006409D01*
X011138Y006347D02*
X011138Y006596D01*
X010989Y006533D02*
X010989Y006160D01*
X010802Y006160D01*
X010740Y006222D01*
X010740Y006347D01*
X010802Y006409D01*
X010989Y006409D01*
X011138Y006222D02*
X011138Y006160D01*
X010598Y006160D02*
X010474Y006160D01*
X010536Y006160D02*
X010536Y006533D01*
X010474Y006533D01*
X010328Y006409D02*
X010266Y006409D01*
X010142Y006284D01*
X010142Y006160D02*
X010142Y006409D01*
X009992Y006347D02*
X009992Y006222D01*
X009929Y006160D01*
X009805Y006160D01*
X009743Y006222D01*
X009743Y006347D01*
X009805Y006409D01*
X009929Y006409D01*
X009992Y006347D01*
X009593Y006409D02*
X009593Y006222D01*
X009531Y006160D01*
X009468Y006222D01*
X009406Y006160D01*
X009344Y006222D01*
X009344Y006409D01*
X008795Y006347D02*
X008795Y006222D01*
X008733Y006160D01*
X008609Y006160D01*
X008546Y006222D01*
X008546Y006347D01*
X008609Y006409D01*
X008733Y006409D01*
X008795Y006347D01*
X008405Y006160D02*
X008281Y006160D01*
X008343Y006160D02*
X008343Y006533D01*
X008281Y006533D01*
X008077Y006533D02*
X008077Y006160D01*
X008015Y006160D02*
X008139Y006160D01*
X007865Y006284D02*
X007865Y006347D01*
X007803Y006409D01*
X007678Y006409D01*
X007616Y006347D01*
X007616Y006222D01*
X007678Y006160D01*
X007803Y006160D01*
X007865Y006284D02*
X007616Y006284D01*
X007466Y006347D02*
X007466Y006160D01*
X007466Y006347D02*
X007404Y006409D01*
X007279Y006409D01*
X007217Y006347D01*
X007217Y006533D02*
X007217Y006160D01*
X007009Y006409D02*
X007072Y006471D01*
X007072Y006596D01*
X006947Y006596D02*
X006947Y006471D01*
X006885Y006409D01*
X006744Y006533D02*
X006619Y006409D01*
X006619Y006284D01*
X006744Y006160D01*
X006469Y006284D02*
X006469Y006347D01*
X006407Y006409D01*
X006283Y006409D01*
X006220Y006347D01*
X006220Y006222D01*
X006283Y006160D01*
X006407Y006160D01*
X006469Y006284D02*
X006220Y006284D01*
X006079Y006160D02*
X006017Y006222D01*
X006017Y006471D01*
X006079Y006409D02*
X005954Y006409D01*
X005751Y006409D02*
X005751Y006160D01*
X005689Y006160D02*
X005813Y006160D01*
X005751Y006409D02*
X005689Y006409D01*
X005751Y006533D02*
X005751Y006596D01*
X005609Y006810D02*
X005423Y006810D01*
X005423Y006685D02*
X005423Y007058D01*
X005609Y007058D01*
X005672Y006996D01*
X005672Y006872D01*
X005609Y006810D01*
X005822Y006934D02*
X005822Y007058D01*
X005946Y007183D01*
X006087Y007183D02*
X006212Y007058D01*
X006212Y006934D01*
X006087Y006810D01*
X005946Y006810D02*
X005822Y006934D01*
X005273Y006996D02*
X005211Y007058D01*
X005086Y007058D01*
X005024Y006996D01*
X005024Y006872D01*
X005086Y006810D01*
X005211Y006810D01*
X005273Y006872D01*
X005273Y006996D01*
X004874Y006996D02*
X004812Y007058D01*
X004687Y007058D01*
X004625Y006996D01*
X004625Y006872D01*
X004687Y006810D01*
X004812Y006810D01*
X004874Y006872D01*
X004874Y006996D01*
X004484Y006810D02*
X004359Y006810D01*
X004422Y006810D02*
X004422Y007183D01*
X004359Y007183D01*
X003811Y007183D02*
X003811Y006810D01*
X003624Y006810D01*
X003562Y006872D01*
X003562Y006996D01*
X003624Y007058D01*
X003811Y007058D01*
X003358Y007058D02*
X003358Y006810D01*
X003296Y006810D02*
X003420Y006810D01*
X003358Y007058D02*
X003296Y007058D01*
X003358Y007183D02*
X003358Y007245D01*
X003146Y006996D02*
X003084Y007058D01*
X002960Y007058D01*
X002897Y006996D01*
X002897Y006872D01*
X002960Y006810D01*
X003084Y006810D01*
X003146Y006872D01*
X003146Y006996D01*
X002747Y007058D02*
X002623Y006810D01*
X002499Y007058D01*
X003296Y006347D02*
X003358Y006409D01*
X003483Y006409D01*
X003545Y006347D01*
X003545Y006284D01*
X003296Y006284D01*
X003296Y006222D02*
X003296Y006347D01*
X003296Y006222D02*
X003358Y006160D01*
X003483Y006160D01*
X003695Y006160D02*
X003695Y006533D01*
X003881Y006533D01*
X003944Y006471D01*
X003944Y006347D01*
X003881Y006284D01*
X003695Y006284D01*
X003819Y006284D02*
X003944Y006160D01*
X004094Y006160D02*
X004218Y006160D01*
X004156Y006160D02*
X004156Y006533D01*
X004094Y006533D02*
X004218Y006533D01*
X004359Y006471D02*
X004359Y006222D01*
X004422Y006160D01*
X004546Y006160D01*
X004608Y006222D01*
X004758Y006222D02*
X004820Y006222D01*
X004820Y006160D01*
X004758Y006160D01*
X004758Y006222D01*
X004958Y006222D02*
X005020Y006160D01*
X005082Y006222D01*
X005144Y006160D01*
X005206Y006222D01*
X005206Y006409D01*
X005356Y006409D02*
X005356Y006160D01*
X005356Y006284D02*
X005481Y006409D01*
X005543Y006409D01*
X004958Y006409D02*
X004958Y006222D01*
X004608Y006471D02*
X004546Y006533D01*
X004422Y006533D01*
X004359Y006471D01*
X004156Y005884D02*
X004156Y005510D01*
X004094Y005510D02*
X004218Y005510D01*
X004359Y005573D02*
X004422Y005635D01*
X004608Y005635D01*
X004608Y005697D02*
X004608Y005510D01*
X004422Y005510D01*
X004359Y005573D01*
X004422Y005759D02*
X004546Y005759D01*
X004608Y005697D01*
X004758Y005759D02*
X004758Y005573D01*
X004820Y005510D01*
X005007Y005510D01*
X005007Y005448D02*
X004945Y005386D01*
X004883Y005386D01*
X005007Y005448D02*
X005007Y005759D01*
X005157Y005759D02*
X005281Y005884D01*
X005157Y005759D02*
X005157Y005635D01*
X005281Y005510D01*
X005423Y005510D02*
X005672Y005510D01*
X005547Y005510D02*
X005547Y005884D01*
X005423Y005759D01*
X005822Y005821D02*
X005822Y005573D01*
X006070Y005821D01*
X006070Y005573D01*
X006008Y005510D01*
X005884Y005510D01*
X005822Y005573D01*
X005822Y005821D02*
X005884Y005884D01*
X006008Y005884D01*
X006070Y005821D01*
X006220Y005821D02*
X006220Y005573D01*
X006469Y005821D01*
X006469Y005573D01*
X006407Y005510D01*
X006283Y005510D01*
X006220Y005573D01*
X006220Y005821D02*
X006283Y005884D01*
X006407Y005884D01*
X006469Y005821D01*
X006619Y005821D02*
X006681Y005884D01*
X006806Y005884D01*
X006868Y005821D01*
X006619Y005573D01*
X006681Y005510D01*
X006806Y005510D01*
X006868Y005573D01*
X006868Y005821D01*
X007018Y005884D02*
X007142Y005759D01*
X007142Y005635D01*
X007018Y005510D01*
X007284Y005386D02*
X007408Y005510D01*
X007346Y005510D01*
X007346Y005573D01*
X007408Y005573D01*
X007408Y005510D01*
X007408Y005697D02*
X007346Y005697D01*
X007346Y005759D01*
X007408Y005759D01*
X007408Y005697D01*
X006619Y005573D02*
X006619Y005821D01*
X006876Y006810D02*
X006939Y006810D01*
X006876Y006810D02*
X006814Y006872D01*
X006814Y006934D01*
X006752Y006996D01*
X006814Y007058D01*
X006814Y007121D01*
X006876Y007183D01*
X006939Y007183D01*
X008015Y006533D02*
X008077Y006533D01*
X009344Y008634D02*
X009468Y008758D01*
X009406Y008758D01*
X009406Y008821D01*
X009468Y008821D01*
X009468Y008758D01*
X009468Y008945D02*
X009406Y008945D01*
X009406Y009007D01*
X009468Y009007D01*
X009468Y008945D01*
X009203Y008883D02*
X009203Y009007D01*
X009078Y009132D01*
X008928Y009070D02*
X008679Y008821D01*
X008742Y008758D01*
X008866Y008758D01*
X008928Y008821D01*
X008928Y009070D01*
X008866Y009132D01*
X008742Y009132D01*
X008679Y009070D01*
X008679Y008821D01*
X008530Y008821D02*
X008530Y009070D01*
X008281Y008821D01*
X008343Y008758D01*
X008467Y008758D01*
X008530Y008821D01*
X008530Y009070D02*
X008467Y009132D01*
X008343Y009132D01*
X008281Y009070D01*
X008281Y008821D01*
X008131Y008758D02*
X007882Y008758D01*
X008131Y009007D01*
X008131Y009070D01*
X008069Y009132D01*
X007944Y009132D01*
X007882Y009070D01*
X007732Y009070D02*
X007732Y008821D01*
X007670Y008758D01*
X007545Y008758D01*
X007483Y008821D01*
X007545Y008945D02*
X007483Y009007D01*
X007483Y009070D01*
X007545Y009132D01*
X007670Y009132D01*
X007732Y009070D01*
X007732Y008945D02*
X007545Y008945D01*
X007333Y008758D02*
X007084Y008758D01*
X007209Y008758D02*
X007209Y009132D01*
X007084Y009007D01*
X006943Y009132D02*
X006818Y009007D01*
X006818Y008883D01*
X006943Y008758D01*
X006669Y008758D02*
X006669Y008945D01*
X006606Y009007D01*
X006420Y009007D01*
X006420Y008758D01*
X006278Y008758D02*
X006154Y008758D01*
X006216Y008758D02*
X006216Y009007D01*
X006154Y009007D01*
X006216Y009132D02*
X006216Y009194D01*
X006345Y009408D02*
X006220Y009532D01*
X006220Y009657D01*
X006345Y009781D01*
X006486Y009781D02*
X006611Y009657D01*
X006611Y009532D01*
X006486Y009408D01*
X006070Y009470D02*
X006008Y009408D01*
X005822Y009408D01*
X005822Y009283D02*
X005822Y009657D01*
X006008Y009657D01*
X006070Y009595D01*
X006070Y009470D01*
X005672Y009408D02*
X005672Y009657D01*
X005423Y009657D02*
X005423Y009470D01*
X005485Y009408D01*
X005672Y009408D01*
X005543Y009007D02*
X005605Y008945D01*
X005605Y008883D01*
X005356Y008883D01*
X005356Y008945D02*
X005419Y009007D01*
X005543Y009007D01*
X005356Y008945D02*
X005356Y008821D01*
X005419Y008758D01*
X005543Y008758D01*
X005755Y008821D02*
X005817Y008758D01*
X006004Y008758D01*
X006004Y008696D02*
X006004Y009007D01*
X005817Y009007D01*
X005755Y008945D01*
X005755Y008821D01*
X005880Y008634D02*
X005942Y008634D01*
X006004Y008696D01*
X005206Y008821D02*
X005206Y008945D01*
X005144Y009007D01*
X004958Y009007D01*
X004958Y009132D02*
X004958Y008758D01*
X005144Y008758D01*
X005206Y008821D01*
X004820Y008821D02*
X004820Y008758D01*
X004758Y008758D01*
X004758Y008821D01*
X004820Y008821D01*
X004608Y008821D02*
X004546Y008758D01*
X004422Y008758D01*
X004359Y008821D01*
X004359Y009070D01*
X004422Y009132D01*
X004546Y009132D01*
X004608Y009070D01*
X004546Y009408D02*
X004359Y009408D01*
X004422Y009532D02*
X004359Y009595D01*
X004422Y009657D01*
X004608Y009657D01*
X004546Y009532D02*
X004422Y009532D01*
X004546Y009532D02*
X004608Y009470D01*
X004546Y009408D01*
X004758Y009470D02*
X004758Y009595D01*
X004820Y009657D01*
X004945Y009657D01*
X005007Y009595D01*
X005007Y009532D01*
X004758Y009532D01*
X004758Y009470D02*
X004820Y009408D01*
X004945Y009408D01*
X005219Y009470D02*
X005281Y009408D01*
X005219Y009470D02*
X005219Y009719D01*
X005157Y009657D02*
X005281Y009657D01*
X004218Y009132D02*
X004094Y009132D01*
X004156Y009132D02*
X004156Y008758D01*
X004094Y008758D02*
X004218Y008758D01*
X003944Y008758D02*
X003819Y008883D01*
X003881Y008883D02*
X003695Y008883D01*
X003695Y008758D02*
X003695Y009132D01*
X003881Y009132D01*
X003944Y009070D01*
X003944Y008945D01*
X003881Y008883D01*
X003545Y008883D02*
X003296Y008883D01*
X003296Y008945D02*
X003358Y009007D01*
X003483Y009007D01*
X003545Y008945D01*
X003545Y008883D01*
X003483Y008758D02*
X003358Y008758D01*
X003296Y008821D01*
X003296Y008945D01*
X003296Y009408D02*
X003420Y009408D01*
X003358Y009408D02*
X003358Y009657D01*
X003296Y009657D01*
X003358Y009781D02*
X003358Y009844D01*
X003562Y009595D02*
X003624Y009657D01*
X003811Y009657D01*
X003811Y009781D02*
X003811Y009408D01*
X003624Y009408D01*
X003562Y009470D01*
X003562Y009595D01*
X003146Y009595D02*
X003084Y009657D01*
X002960Y009657D01*
X002897Y009595D01*
X002897Y009470D01*
X002960Y009408D01*
X003084Y009408D01*
X003146Y009470D01*
X003146Y009595D01*
X002747Y009657D02*
X002623Y009408D01*
X002499Y009657D01*
X002561Y010707D02*
X002499Y010769D01*
X002561Y010707D02*
X002685Y010707D01*
X002747Y010769D01*
X002747Y010832D01*
X002685Y010894D01*
X002561Y010894D01*
X002499Y010956D01*
X002499Y011018D01*
X002561Y011081D01*
X002685Y011081D01*
X002747Y011018D01*
X002897Y010894D02*
X002897Y010769D01*
X002960Y010707D01*
X003084Y010707D01*
X003146Y010769D01*
X003146Y010894D01*
X003084Y010956D01*
X002960Y010956D01*
X002897Y010894D01*
X003296Y010894D02*
X003420Y010894D01*
X003358Y011018D02*
X003358Y010707D01*
X003624Y010769D02*
X003686Y010707D01*
X003624Y010769D02*
X003624Y011018D01*
X003562Y010956D02*
X003686Y010956D01*
X003828Y010956D02*
X003828Y010769D01*
X003890Y010707D01*
X003952Y010769D01*
X004014Y010707D01*
X004077Y010769D01*
X004077Y010956D01*
X004289Y010956D02*
X004413Y010956D01*
X004475Y010894D01*
X004475Y010707D01*
X004289Y010707D01*
X004226Y010769D01*
X004289Y010832D01*
X004475Y010832D01*
X004625Y010832D02*
X004750Y010956D01*
X004812Y010956D01*
X004958Y010894D02*
X005020Y010956D01*
X005144Y010956D01*
X005206Y010894D01*
X005206Y010832D01*
X004958Y010832D01*
X004958Y010894D02*
X004958Y010769D01*
X005020Y010707D01*
X005144Y010707D01*
X005356Y010769D02*
X005419Y010707D01*
X005543Y010707D01*
X005605Y010769D01*
X005605Y010832D01*
X005543Y010894D01*
X005419Y010894D01*
X005356Y010956D01*
X005356Y011018D01*
X005419Y011081D01*
X005543Y011081D01*
X005605Y011018D01*
X005755Y010894D02*
X005817Y010956D01*
X005942Y010956D01*
X006004Y010894D01*
X006004Y010832D01*
X005755Y010832D01*
X005755Y010894D02*
X005755Y010769D01*
X005817Y010707D01*
X005942Y010707D01*
X006154Y010707D02*
X006154Y010956D01*
X006278Y010956D02*
X006341Y010956D01*
X006278Y010956D02*
X006154Y010832D01*
X006486Y010956D02*
X006548Y010956D01*
X006548Y010707D01*
X006486Y010707D02*
X006611Y010707D01*
X006752Y010769D02*
X006814Y010832D01*
X007001Y010832D01*
X007001Y010894D02*
X007001Y010707D01*
X006814Y010707D01*
X006752Y010769D01*
X006814Y010956D02*
X006939Y010956D01*
X007001Y010894D01*
X007151Y011081D02*
X007213Y011081D01*
X007213Y010707D01*
X007151Y010707D02*
X007275Y010707D01*
X007815Y010769D02*
X007878Y010707D01*
X008002Y010707D01*
X008064Y010832D02*
X007815Y010832D01*
X007815Y010894D02*
X007878Y010956D01*
X008002Y010956D01*
X008064Y010894D01*
X008064Y010832D01*
X008214Y010832D02*
X008401Y010832D01*
X008463Y010894D01*
X008463Y011018D01*
X008401Y011081D01*
X008214Y011081D01*
X008214Y010707D01*
X008339Y010832D02*
X008463Y010707D01*
X008613Y010707D02*
X008737Y010707D01*
X008675Y010707D02*
X008675Y011081D01*
X008613Y011081D02*
X008737Y011081D01*
X008879Y011018D02*
X008879Y010769D01*
X008941Y010707D01*
X009065Y010707D01*
X009128Y010769D01*
X009278Y010832D02*
X009402Y010707D01*
X009543Y010707D02*
X009792Y010956D01*
X009792Y011018D01*
X009730Y011081D01*
X009606Y011081D01*
X009543Y011018D01*
X009402Y011081D02*
X009278Y010956D01*
X009278Y010832D01*
X009128Y011018D02*
X009065Y011081D01*
X008941Y011081D01*
X008879Y011018D01*
X009543Y010707D02*
X009792Y010707D01*
X009942Y010583D02*
X010067Y010707D01*
X010004Y010707D01*
X010004Y010769D01*
X010067Y010769D01*
X010067Y010707D01*
X010208Y010769D02*
X010270Y010707D01*
X010395Y010707D01*
X010457Y010769D01*
X010457Y010832D01*
X010395Y010894D01*
X010332Y010894D01*
X010395Y010894D02*
X010457Y010956D01*
X010457Y011018D01*
X010395Y011081D01*
X010270Y011081D01*
X010208Y011018D01*
X010607Y011081D02*
X010731Y010956D01*
X010731Y010832D01*
X010607Y010707D01*
X010873Y010583D02*
X010997Y010707D01*
X010935Y010707D01*
X010935Y010769D01*
X010997Y010769D01*
X010997Y010707D01*
X010997Y010894D02*
X010935Y010894D01*
X010935Y010956D01*
X010997Y010956D01*
X010997Y010894D01*
X010997Y012006D02*
X010873Y012006D01*
X010935Y012006D02*
X010935Y012380D01*
X010873Y012380D01*
X010723Y012193D02*
X010723Y012006D01*
X010536Y012006D01*
X010474Y012069D01*
X010536Y012131D01*
X010723Y012131D01*
X010723Y012193D02*
X010661Y012255D01*
X010536Y012255D01*
X010270Y012255D02*
X010270Y012006D01*
X010208Y012006D02*
X010332Y012006D01*
X010270Y012255D02*
X010208Y012255D01*
X010270Y012380D02*
X010270Y012442D01*
X010062Y012255D02*
X010000Y012255D01*
X009876Y012131D01*
X009876Y012255D02*
X009876Y012006D01*
X009726Y012131D02*
X009477Y012131D01*
X009477Y012193D02*
X009539Y012255D01*
X009664Y012255D01*
X009726Y012193D01*
X009726Y012131D01*
X009664Y012006D02*
X009539Y012006D01*
X009477Y012069D01*
X009477Y012193D01*
X009327Y012131D02*
X009327Y012069D01*
X009265Y012006D01*
X009140Y012006D01*
X009078Y012069D01*
X009140Y012193D02*
X009265Y012193D01*
X009327Y012131D01*
X009327Y012318D02*
X009265Y012380D01*
X009140Y012380D01*
X009078Y012318D01*
X009078Y012255D01*
X009140Y012193D01*
X008928Y012193D02*
X008928Y012131D01*
X008679Y012131D01*
X008679Y012193D02*
X008742Y012255D01*
X008866Y012255D01*
X008928Y012193D01*
X008866Y012006D02*
X008742Y012006D01*
X008679Y012069D01*
X008679Y012193D01*
X008534Y012255D02*
X008472Y012255D01*
X008347Y012131D01*
X008347Y012255D02*
X008347Y012006D01*
X008197Y012006D02*
X008197Y012193D01*
X008135Y012255D01*
X008011Y012255D01*
X008011Y012131D02*
X008197Y012131D01*
X008197Y012006D02*
X008011Y012006D01*
X007948Y012069D01*
X008011Y012131D01*
X007798Y012069D02*
X007798Y012255D01*
X007798Y012069D02*
X007736Y012006D01*
X007674Y012069D01*
X007612Y012006D01*
X007550Y012069D01*
X007550Y012255D01*
X007408Y012255D02*
X007284Y012255D01*
X007346Y012318D02*
X007346Y012069D01*
X007408Y012006D01*
X007142Y012193D02*
X007018Y012193D01*
X007080Y012318D02*
X007080Y012006D01*
X006868Y012069D02*
X006868Y012193D01*
X006806Y012255D01*
X006681Y012255D01*
X006619Y012193D01*
X006619Y012069D01*
X006681Y012006D01*
X006806Y012006D01*
X006868Y012069D01*
X007080Y012318D02*
X007142Y012380D01*
X006469Y012318D02*
X006407Y012380D01*
X006283Y012380D01*
X006220Y012318D01*
X006220Y012255D01*
X006283Y012193D01*
X006407Y012193D01*
X006469Y012131D01*
X006469Y012069D01*
X006407Y012006D01*
X006283Y012006D01*
X006220Y012069D01*
X006070Y012006D02*
X005822Y012193D01*
X006070Y012380D01*
X005273Y012193D02*
X005273Y012131D01*
X005024Y012131D01*
X005024Y012193D02*
X005086Y012255D01*
X005211Y012255D01*
X005273Y012193D01*
X005211Y012006D02*
X005086Y012006D01*
X005024Y012069D01*
X005024Y012193D01*
X004874Y012255D02*
X004687Y012255D01*
X004625Y012193D01*
X004625Y012069D01*
X004687Y012006D01*
X004874Y012006D01*
X004874Y012380D01*
X004475Y012255D02*
X004475Y012006D01*
X004289Y012006D01*
X004226Y012069D01*
X004226Y012255D01*
X004023Y012380D02*
X004023Y012006D01*
X003961Y012006D02*
X004085Y012006D01*
X003811Y012006D02*
X003624Y012006D01*
X003562Y012069D01*
X003562Y012193D01*
X003624Y012255D01*
X003811Y012255D01*
X003961Y012380D02*
X004023Y012380D01*
X003412Y012193D02*
X003412Y012006D01*
X003412Y012193D02*
X003350Y012255D01*
X003163Y012255D01*
X003163Y012006D01*
X003022Y012006D02*
X002897Y012006D01*
X002960Y012006D02*
X002960Y012255D01*
X002897Y012255D01*
X002960Y012380D02*
X002960Y012442D01*
X002685Y012380D02*
X002685Y012006D01*
X002561Y012006D02*
X002561Y012380D01*
X002499Y012255D02*
X002685Y012255D01*
X002747Y012255D01*
X002747Y012131D02*
X002499Y012131D01*
X003420Y011081D02*
X003358Y011018D01*
X004625Y010956D02*
X004625Y010707D01*
X006548Y011081D02*
X006548Y011143D01*
X007815Y010894D02*
X007815Y010769D01*
X007736Y009781D02*
X007674Y009781D01*
X007612Y009719D01*
X007612Y009657D01*
X007550Y009595D01*
X007612Y009532D01*
X007612Y009470D01*
X007674Y009408D01*
X007736Y009408D01*
X009078Y008758D02*
X009203Y008883D01*
X011138Y012006D02*
X011201Y012006D01*
X011201Y012069D01*
X011138Y012069D01*
X011138Y012006D01*
X011338Y012006D02*
X011338Y012380D01*
X011400Y012255D02*
X011525Y012255D01*
X011587Y012193D01*
X011587Y012006D01*
X011737Y012006D02*
X011986Y012193D01*
X011737Y012380D01*
X011400Y012255D02*
X011338Y012193D01*
X008330Y013955D02*
X008330Y014142D01*
X008268Y014204D01*
X008206Y014142D01*
X008206Y013955D01*
X008081Y013955D02*
X008081Y014204D01*
X008143Y014204D01*
X008206Y014142D01*
X007931Y014142D02*
X007869Y014204D01*
X007745Y014204D01*
X007682Y014142D01*
X007682Y014017D01*
X007745Y013955D01*
X007869Y013955D01*
X007931Y014017D01*
X007931Y014142D01*
X007533Y014204D02*
X007346Y014204D01*
X007284Y014142D01*
X007284Y014017D01*
X007346Y013955D01*
X007533Y013955D01*
X007147Y013955D02*
X007084Y013955D01*
X007084Y014017D01*
X007147Y014017D01*
X007147Y013955D01*
X006934Y013955D02*
X006686Y014204D01*
X006482Y014204D02*
X006482Y013955D01*
X006420Y013955D02*
X006544Y013955D01*
X006686Y013955D02*
X006934Y014204D01*
X006482Y014204D02*
X006420Y014204D01*
X006482Y014329D02*
X006482Y014391D01*
X006216Y014329D02*
X006216Y013955D01*
X006154Y013955D02*
X006278Y013955D01*
X006012Y013955D02*
X005888Y013955D01*
X005950Y013955D02*
X005950Y014204D01*
X005888Y014204D01*
X005950Y014329D02*
X005950Y014391D01*
X006154Y014329D02*
X006216Y014329D01*
X005738Y014204D02*
X005738Y013955D01*
X005551Y013955D01*
X005489Y014017D01*
X005489Y014204D01*
X005339Y014204D02*
X005153Y014204D01*
X005090Y014142D01*
X005090Y014017D01*
X005153Y013955D01*
X005339Y013955D01*
X005339Y013831D02*
X005339Y014204D01*
X004953Y014017D02*
X004953Y013955D01*
X004891Y013955D01*
X004891Y014017D01*
X004953Y014017D01*
X004741Y014017D02*
X004741Y014204D01*
X004741Y014017D02*
X004679Y013955D01*
X004617Y014017D01*
X004555Y013955D01*
X004492Y014017D01*
X004492Y014204D01*
X004342Y014204D02*
X004342Y014017D01*
X004280Y013955D01*
X004218Y014017D01*
X004156Y013955D01*
X004094Y014017D01*
X004094Y014204D01*
X003944Y014204D02*
X003944Y014017D01*
X003881Y013955D01*
X003819Y014017D01*
X003757Y013955D01*
X003695Y014017D01*
X003695Y014204D01*
X003545Y013679D02*
X003296Y013306D01*
X003146Y013368D02*
X002897Y013617D01*
X002897Y013492D02*
X003146Y013492D01*
X003146Y013617D02*
X002897Y013368D01*
X003022Y013368D02*
X003022Y013617D01*
X003022Y014017D02*
X003022Y014266D01*
X003146Y014266D02*
X002897Y014017D01*
X002897Y014142D02*
X003146Y014142D01*
X003146Y014017D02*
X002897Y014266D01*
X002897Y014667D02*
X003146Y014916D01*
X003022Y014916D02*
X003022Y014667D01*
X003146Y014667D02*
X002897Y014916D01*
X002897Y014791D02*
X003146Y014791D01*
X003296Y014791D02*
X003545Y014791D01*
X003545Y014667D02*
X003296Y014916D01*
X003420Y014916D02*
X003420Y014667D01*
X003296Y014667D02*
X003545Y014916D01*
X002747Y014978D02*
X002499Y014605D01*
X002499Y008482D02*
X002561Y008482D01*
X002623Y008420D01*
X002623Y008358D01*
X002685Y008295D01*
X002623Y008233D01*
X002623Y008171D01*
X002561Y008109D01*
X002499Y008109D01*
X003545Y005884D02*
X003545Y005510D01*
X003358Y005510D01*
X003296Y005573D01*
X003296Y005697D01*
X003358Y005759D01*
X003545Y005759D01*
X003695Y005697D02*
X003695Y005573D01*
X003757Y005510D01*
X003881Y005510D01*
X003944Y005635D02*
X003695Y005635D01*
X003695Y005697D02*
X003757Y005759D01*
X003881Y005759D01*
X003944Y005697D01*
X003944Y005635D01*
X004094Y005884D02*
X004156Y005884D01*
X002623Y005172D02*
X002623Y005110D01*
X002685Y005047D01*
X002623Y004985D01*
X002623Y004923D01*
X002561Y004861D01*
X002499Y004861D01*
X002623Y005172D02*
X002561Y005234D01*
X002499Y005234D01*
D13*
X000500Y000500D02*
X000500Y021500D01*
X025900Y021500D01*
X026500Y020900D01*
X026500Y016400D01*
X027500Y015400D01*
X027500Y002500D01*
X026500Y001500D01*
X026500Y000500D01*
X000500Y000500D01*
X005461Y001504D02*
X005463Y001551D01*
X005469Y001597D01*
X005479Y001643D01*
X005492Y001688D01*
X005510Y001731D01*
X005531Y001773D01*
X005555Y001813D01*
X005583Y001850D01*
X005614Y001885D01*
X005648Y001918D01*
X005684Y001947D01*
X005723Y001973D01*
X005764Y001996D01*
X005807Y002015D01*
X005851Y002031D01*
X005896Y002043D01*
X005942Y002051D01*
X005989Y002055D01*
X006035Y002055D01*
X006082Y002051D01*
X006128Y002043D01*
X006173Y002031D01*
X006217Y002015D01*
X006260Y001996D01*
X006301Y001973D01*
X006340Y001947D01*
X006376Y001918D01*
X006410Y001885D01*
X006441Y001850D01*
X006469Y001813D01*
X006493Y001773D01*
X006514Y001731D01*
X006532Y001688D01*
X006545Y001643D01*
X006555Y001597D01*
X006561Y001551D01*
X006563Y001504D01*
X006561Y001457D01*
X006555Y001411D01*
X006545Y001365D01*
X006532Y001320D01*
X006514Y001277D01*
X006493Y001235D01*
X006469Y001195D01*
X006441Y001158D01*
X006410Y001123D01*
X006376Y001090D01*
X006340Y001061D01*
X006301Y001035D01*
X006260Y001012D01*
X006217Y000993D01*
X006173Y000977D01*
X006128Y000965D01*
X006082Y000957D01*
X006035Y000953D01*
X005989Y000953D01*
X005942Y000957D01*
X005896Y000965D01*
X005851Y000977D01*
X005807Y000993D01*
X005764Y001012D01*
X005723Y001035D01*
X005684Y001061D01*
X005648Y001090D01*
X005614Y001123D01*
X005583Y001158D01*
X005555Y001195D01*
X005531Y001235D01*
X005510Y001277D01*
X005492Y001320D01*
X005479Y001365D01*
X005469Y001411D01*
X005463Y001457D01*
X005461Y001504D01*
X025933Y003492D02*
X025935Y003539D01*
X025941Y003585D01*
X025951Y003631D01*
X025964Y003676D01*
X025982Y003719D01*
X026003Y003761D01*
X026027Y003801D01*
X026055Y003838D01*
X026086Y003873D01*
X026120Y003906D01*
X026156Y003935D01*
X026195Y003961D01*
X026236Y003984D01*
X026279Y004003D01*
X026323Y004019D01*
X026368Y004031D01*
X026414Y004039D01*
X026461Y004043D01*
X026507Y004043D01*
X026554Y004039D01*
X026600Y004031D01*
X026645Y004019D01*
X026689Y004003D01*
X026732Y003984D01*
X026773Y003961D01*
X026812Y003935D01*
X026848Y003906D01*
X026882Y003873D01*
X026913Y003838D01*
X026941Y003801D01*
X026965Y003761D01*
X026986Y003719D01*
X027004Y003676D01*
X027017Y003631D01*
X027027Y003585D01*
X027033Y003539D01*
X027035Y003492D01*
X027033Y003445D01*
X027027Y003399D01*
X027017Y003353D01*
X027004Y003308D01*
X026986Y003265D01*
X026965Y003223D01*
X026941Y003183D01*
X026913Y003146D01*
X026882Y003111D01*
X026848Y003078D01*
X026812Y003049D01*
X026773Y003023D01*
X026732Y003000D01*
X026689Y002981D01*
X026645Y002965D01*
X026600Y002953D01*
X026554Y002945D01*
X026507Y002941D01*
X026461Y002941D01*
X026414Y002945D01*
X026368Y002953D01*
X026323Y002965D01*
X026279Y002981D01*
X026236Y003000D01*
X026195Y003023D01*
X026156Y003049D01*
X026120Y003078D01*
X026086Y003111D01*
X026055Y003146D01*
X026027Y003183D01*
X026003Y003223D01*
X025982Y003265D01*
X025964Y003308D01*
X025951Y003353D01*
X025941Y003399D01*
X025935Y003445D01*
X025933Y003492D01*
X025933Y014496D02*
X025935Y014543D01*
X025941Y014589D01*
X025951Y014635D01*
X025964Y014680D01*
X025982Y014723D01*
X026003Y014765D01*
X026027Y014805D01*
X026055Y014842D01*
X026086Y014877D01*
X026120Y014910D01*
X026156Y014939D01*
X026195Y014965D01*
X026236Y014988D01*
X026279Y015007D01*
X026323Y015023D01*
X026368Y015035D01*
X026414Y015043D01*
X026461Y015047D01*
X026507Y015047D01*
X026554Y015043D01*
X026600Y015035D01*
X026645Y015023D01*
X026689Y015007D01*
X026732Y014988D01*
X026773Y014965D01*
X026812Y014939D01*
X026848Y014910D01*
X026882Y014877D01*
X026913Y014842D01*
X026941Y014805D01*
X026965Y014765D01*
X026986Y014723D01*
X027004Y014680D01*
X027017Y014635D01*
X027027Y014589D01*
X027033Y014543D01*
X027035Y014496D01*
X027033Y014449D01*
X027027Y014403D01*
X027017Y014357D01*
X027004Y014312D01*
X026986Y014269D01*
X026965Y014227D01*
X026941Y014187D01*
X026913Y014150D01*
X026882Y014115D01*
X026848Y014082D01*
X026812Y014053D01*
X026773Y014027D01*
X026732Y014004D01*
X026689Y013985D01*
X026645Y013969D01*
X026600Y013957D01*
X026554Y013949D01*
X026507Y013945D01*
X026461Y013945D01*
X026414Y013949D01*
X026368Y013957D01*
X026323Y013969D01*
X026279Y013985D01*
X026236Y014004D01*
X026195Y014027D01*
X026156Y014053D01*
X026120Y014082D01*
X026086Y014115D01*
X026055Y014150D01*
X026027Y014187D01*
X026003Y014227D01*
X025982Y014269D01*
X025964Y014312D01*
X025951Y014357D01*
X025941Y014403D01*
X025935Y014449D01*
X025933Y014496D01*
X005953Y020520D02*
X005955Y020567D01*
X005961Y020613D01*
X005971Y020659D01*
X005984Y020704D01*
X006002Y020747D01*
X006023Y020789D01*
X006047Y020829D01*
X006075Y020866D01*
X006106Y020901D01*
X006140Y020934D01*
X006176Y020963D01*
X006215Y020989D01*
X006256Y021012D01*
X006299Y021031D01*
X006343Y021047D01*
X006388Y021059D01*
X006434Y021067D01*
X006481Y021071D01*
X006527Y021071D01*
X006574Y021067D01*
X006620Y021059D01*
X006665Y021047D01*
X006709Y021031D01*
X006752Y021012D01*
X006793Y020989D01*
X006832Y020963D01*
X006868Y020934D01*
X006902Y020901D01*
X006933Y020866D01*
X006961Y020829D01*
X006985Y020789D01*
X007006Y020747D01*
X007024Y020704D01*
X007037Y020659D01*
X007047Y020613D01*
X007053Y020567D01*
X007055Y020520D01*
X007053Y020473D01*
X007047Y020427D01*
X007037Y020381D01*
X007024Y020336D01*
X007006Y020293D01*
X006985Y020251D01*
X006961Y020211D01*
X006933Y020174D01*
X006902Y020139D01*
X006868Y020106D01*
X006832Y020077D01*
X006793Y020051D01*
X006752Y020028D01*
X006709Y020009D01*
X006665Y019993D01*
X006620Y019981D01*
X006574Y019973D01*
X006527Y019969D01*
X006481Y019969D01*
X006434Y019973D01*
X006388Y019981D01*
X006343Y019993D01*
X006299Y020009D01*
X006256Y020028D01*
X006215Y020051D01*
X006176Y020077D01*
X006140Y020106D01*
X006106Y020139D01*
X006075Y020174D01*
X006047Y020211D01*
X006023Y020251D01*
X006002Y020293D01*
X005984Y020336D01*
X005971Y020381D01*
X005961Y020427D01*
X005955Y020473D01*
X005953Y020520D01*
D14*
X005793Y020500D02*
X005795Y020553D01*
X005801Y020605D01*
X005811Y020657D01*
X005824Y020708D01*
X005842Y020758D01*
X005863Y020807D01*
X005888Y020854D01*
X005916Y020898D01*
X005947Y020941D01*
X005982Y020981D01*
X006019Y021018D01*
X006059Y021053D01*
X006102Y021084D01*
X006147Y021112D01*
X006193Y021137D01*
X006242Y021158D01*
X006292Y021176D01*
X006343Y021189D01*
X006395Y021199D01*
X006447Y021205D01*
X006500Y021207D01*
X006553Y021205D01*
X006605Y021199D01*
X006657Y021189D01*
X006708Y021176D01*
X006758Y021158D01*
X006807Y021137D01*
X006854Y021112D01*
X006898Y021084D01*
X006941Y021053D01*
X006981Y021018D01*
X007018Y020981D01*
X007053Y020941D01*
X007084Y020898D01*
X007112Y020853D01*
X007137Y020807D01*
X007158Y020758D01*
X007176Y020708D01*
X007189Y020657D01*
X007199Y020605D01*
X007205Y020553D01*
X007207Y020500D01*
X007205Y020447D01*
X007199Y020395D01*
X007189Y020343D01*
X007176Y020292D01*
X007158Y020242D01*
X007137Y020193D01*
X007112Y020146D01*
X007084Y020102D01*
X007053Y020059D01*
X007018Y020019D01*
X006981Y019982D01*
X006941Y019947D01*
X006898Y019916D01*
X006853Y019888D01*
X006807Y019863D01*
X006758Y019842D01*
X006708Y019824D01*
X006657Y019811D01*
X006605Y019801D01*
X006553Y019795D01*
X006500Y019793D01*
X006447Y019795D01*
X006395Y019801D01*
X006343Y019811D01*
X006292Y019824D01*
X006242Y019842D01*
X006193Y019863D01*
X006146Y019888D01*
X006102Y019916D01*
X006059Y019947D01*
X006019Y019982D01*
X005982Y020019D01*
X005947Y020059D01*
X005916Y020102D01*
X005888Y020147D01*
X005863Y020193D01*
X005842Y020242D01*
X005824Y020292D01*
X005811Y020343D01*
X005801Y020395D01*
X005795Y020447D01*
X005793Y020500D01*
X014991Y016204D02*
X014991Y015853D01*
X014991Y016028D02*
X015108Y016028D01*
X015224Y016204D02*
X014991Y016204D01*
X015359Y016204D02*
X015359Y015853D01*
X015359Y015970D02*
X015534Y015970D01*
X015593Y016028D01*
X015593Y016145D01*
X015534Y016204D01*
X015359Y016204D01*
X015728Y016145D02*
X015786Y016204D01*
X015903Y016204D01*
X015961Y016145D01*
X015961Y015912D01*
X015903Y015853D01*
X015786Y015853D01*
X015728Y015912D01*
X015728Y016145D01*
X015844Y015970D02*
X015961Y015853D01*
X015593Y015853D02*
X015476Y015970D01*
X025793Y014500D02*
X025795Y014553D01*
X025801Y014605D01*
X025811Y014657D01*
X025824Y014708D01*
X025842Y014758D01*
X025863Y014807D01*
X025888Y014854D01*
X025916Y014898D01*
X025947Y014941D01*
X025982Y014981D01*
X026019Y015018D01*
X026059Y015053D01*
X026102Y015084D01*
X026147Y015112D01*
X026193Y015137D01*
X026242Y015158D01*
X026292Y015176D01*
X026343Y015189D01*
X026395Y015199D01*
X026447Y015205D01*
X026500Y015207D01*
X026553Y015205D01*
X026605Y015199D01*
X026657Y015189D01*
X026708Y015176D01*
X026758Y015158D01*
X026807Y015137D01*
X026854Y015112D01*
X026898Y015084D01*
X026941Y015053D01*
X026981Y015018D01*
X027018Y014981D01*
X027053Y014941D01*
X027084Y014898D01*
X027112Y014853D01*
X027137Y014807D01*
X027158Y014758D01*
X027176Y014708D01*
X027189Y014657D01*
X027199Y014605D01*
X027205Y014553D01*
X027207Y014500D01*
X027205Y014447D01*
X027199Y014395D01*
X027189Y014343D01*
X027176Y014292D01*
X027158Y014242D01*
X027137Y014193D01*
X027112Y014146D01*
X027084Y014102D01*
X027053Y014059D01*
X027018Y014019D01*
X026981Y013982D01*
X026941Y013947D01*
X026898Y013916D01*
X026853Y013888D01*
X026807Y013863D01*
X026758Y013842D01*
X026708Y013824D01*
X026657Y013811D01*
X026605Y013801D01*
X026553Y013795D01*
X026500Y013793D01*
X026447Y013795D01*
X026395Y013801D01*
X026343Y013811D01*
X026292Y013824D01*
X026242Y013842D01*
X026193Y013863D01*
X026146Y013888D01*
X026102Y013916D01*
X026059Y013947D01*
X026019Y013982D01*
X025982Y014019D01*
X025947Y014059D01*
X025916Y014102D01*
X025888Y014147D01*
X025863Y014193D01*
X025842Y014242D01*
X025824Y014292D01*
X025811Y014343D01*
X025801Y014395D01*
X025795Y014447D01*
X025793Y014500D01*
X025793Y003500D02*
X025795Y003553D01*
X025801Y003605D01*
X025811Y003657D01*
X025824Y003708D01*
X025842Y003758D01*
X025863Y003807D01*
X025888Y003854D01*
X025916Y003898D01*
X025947Y003941D01*
X025982Y003981D01*
X026019Y004018D01*
X026059Y004053D01*
X026102Y004084D01*
X026147Y004112D01*
X026193Y004137D01*
X026242Y004158D01*
X026292Y004176D01*
X026343Y004189D01*
X026395Y004199D01*
X026447Y004205D01*
X026500Y004207D01*
X026553Y004205D01*
X026605Y004199D01*
X026657Y004189D01*
X026708Y004176D01*
X026758Y004158D01*
X026807Y004137D01*
X026854Y004112D01*
X026898Y004084D01*
X026941Y004053D01*
X026981Y004018D01*
X027018Y003981D01*
X027053Y003941D01*
X027084Y003898D01*
X027112Y003853D01*
X027137Y003807D01*
X027158Y003758D01*
X027176Y003708D01*
X027189Y003657D01*
X027199Y003605D01*
X027205Y003553D01*
X027207Y003500D01*
X027205Y003447D01*
X027199Y003395D01*
X027189Y003343D01*
X027176Y003292D01*
X027158Y003242D01*
X027137Y003193D01*
X027112Y003146D01*
X027084Y003102D01*
X027053Y003059D01*
X027018Y003019D01*
X026981Y002982D01*
X026941Y002947D01*
X026898Y002916D01*
X026853Y002888D01*
X026807Y002863D01*
X026758Y002842D01*
X026708Y002824D01*
X026657Y002811D01*
X026605Y002801D01*
X026553Y002795D01*
X026500Y002793D01*
X026447Y002795D01*
X026395Y002801D01*
X026343Y002811D01*
X026292Y002824D01*
X026242Y002842D01*
X026193Y002863D01*
X026146Y002888D01*
X026102Y002916D01*
X026059Y002947D01*
X026019Y002982D01*
X025982Y003019D01*
X025947Y003059D01*
X025916Y003102D01*
X025888Y003147D01*
X025863Y003193D01*
X025842Y003242D01*
X025824Y003292D01*
X025811Y003343D01*
X025801Y003395D01*
X025795Y003447D01*
X025793Y003500D01*
X005293Y001500D02*
X005295Y001553D01*
X005301Y001605D01*
X005311Y001657D01*
X005324Y001708D01*
X005342Y001758D01*
X005363Y001807D01*
X005388Y001854D01*
X005416Y001898D01*
X005447Y001941D01*
X005482Y001981D01*
X005519Y002018D01*
X005559Y002053D01*
X005602Y002084D01*
X005647Y002112D01*
X005693Y002137D01*
X005742Y002158D01*
X005792Y002176D01*
X005843Y002189D01*
X005895Y002199D01*
X005947Y002205D01*
X006000Y002207D01*
X006053Y002205D01*
X006105Y002199D01*
X006157Y002189D01*
X006208Y002176D01*
X006258Y002158D01*
X006307Y002137D01*
X006354Y002112D01*
X006398Y002084D01*
X006441Y002053D01*
X006481Y002018D01*
X006518Y001981D01*
X006553Y001941D01*
X006584Y001898D01*
X006612Y001853D01*
X006637Y001807D01*
X006658Y001758D01*
X006676Y001708D01*
X006689Y001657D01*
X006699Y001605D01*
X006705Y001553D01*
X006707Y001500D01*
X006705Y001447D01*
X006699Y001395D01*
X006689Y001343D01*
X006676Y001292D01*
X006658Y001242D01*
X006637Y001193D01*
X006612Y001146D01*
X006584Y001102D01*
X006553Y001059D01*
X006518Y001019D01*
X006481Y000982D01*
X006441Y000947D01*
X006398Y000916D01*
X006353Y000888D01*
X006307Y000863D01*
X006258Y000842D01*
X006208Y000824D01*
X006157Y000811D01*
X006105Y000801D01*
X006053Y000795D01*
X006000Y000793D01*
X005947Y000795D01*
X005895Y000801D01*
X005843Y000811D01*
X005792Y000824D01*
X005742Y000842D01*
X005693Y000863D01*
X005646Y000888D01*
X005602Y000916D01*
X005559Y000947D01*
X005519Y000982D01*
X005482Y001019D01*
X005447Y001059D01*
X005416Y001102D01*
X005388Y001147D01*
X005363Y001193D01*
X005342Y001242D01*
X005324Y001292D01*
X005311Y001343D01*
X005301Y001395D01*
X005295Y001447D01*
X005293Y001500D01*
D15*
X020441Y015894D02*
X020441Y015992D01*
X020441Y015894D02*
X020992Y015894D01*
X021976Y015894D02*
X022508Y015894D01*
X022508Y015992D01*
X023453Y015992D02*
X023453Y015894D01*
X024004Y015894D01*
X025008Y015894D02*
X025559Y015894D01*
X025559Y015992D01*
X025559Y016976D02*
X025559Y017075D01*
X025008Y017075D01*
X024004Y017075D02*
X023453Y017075D01*
X023453Y016976D01*
X022508Y016957D02*
X022508Y017055D01*
X021957Y017055D01*
X020992Y017055D02*
X020441Y017055D01*
X020441Y016957D01*
D16*
X023010Y012523D02*
X023325Y012523D01*
X023325Y012287D01*
X023325Y011657D02*
X023325Y011421D01*
X023010Y011421D01*
X023010Y009822D02*
X023325Y009822D01*
X023325Y009586D01*
X023325Y008956D02*
X023325Y008720D01*
X023010Y008720D01*
X014516Y015657D02*
X013886Y015657D01*
X013886Y015658D02*
X013870Y015663D01*
X013854Y015671D01*
X013840Y015681D01*
X013828Y015693D01*
X013818Y015708D01*
X013811Y015724D01*
X013807Y015741D01*
X013806Y015758D01*
X013808Y015776D01*
X013808Y016326D02*
X013806Y016344D01*
X013807Y016361D01*
X013811Y016378D01*
X013818Y016394D01*
X013828Y016409D01*
X013840Y016421D01*
X013854Y016431D01*
X013870Y016439D01*
X013886Y016444D01*
X013886Y016445D02*
X014516Y016445D01*
X014516Y016444D02*
X014532Y016439D01*
X014548Y016431D01*
X014562Y016421D01*
X014574Y016409D01*
X014584Y016394D01*
X014591Y016378D01*
X014595Y016361D01*
X014596Y016344D01*
X014594Y016326D01*
X014594Y015776D02*
X014596Y015758D01*
X014595Y015741D01*
X014591Y015724D01*
X014584Y015708D01*
X014574Y015693D01*
X014562Y015681D01*
X014548Y015671D01*
X014532Y015663D01*
X014516Y015658D01*
D17*
X014628Y019615D02*
X014875Y019615D01*
X014752Y019615D02*
X014752Y019985D01*
X014628Y019862D01*
X014997Y019924D02*
X014997Y019677D01*
X015244Y019924D01*
X015244Y019677D01*
X015182Y019615D01*
X015058Y019615D01*
X014997Y019677D01*
X014997Y019924D02*
X015058Y019985D01*
X015182Y019985D01*
X015244Y019924D01*
X015797Y019924D02*
X015797Y019862D01*
X015858Y019800D01*
X016044Y019800D01*
X016044Y019677D02*
X016044Y019924D01*
X015982Y019985D01*
X015858Y019985D01*
X015797Y019924D01*
X015797Y019677D02*
X015858Y019615D01*
X015982Y019615D01*
X016044Y019677D01*
X016797Y019677D02*
X016797Y019738D01*
X016858Y019800D01*
X016982Y019800D01*
X017044Y019738D01*
X017044Y019677D01*
X016982Y019615D01*
X016858Y019615D01*
X016797Y019677D01*
X016858Y019800D02*
X016797Y019862D01*
X016797Y019924D01*
X016858Y019985D01*
X016982Y019985D01*
X017044Y019924D01*
X017044Y019862D01*
X016982Y019800D01*
X018397Y019677D02*
X018397Y019615D01*
X018397Y019677D02*
X018644Y019924D01*
X018644Y019985D01*
X018397Y019985D01*
X019397Y019800D02*
X019397Y019677D01*
X019458Y019615D01*
X019582Y019615D01*
X019644Y019677D01*
X019644Y019738D01*
X019582Y019800D01*
X019397Y019800D01*
X019520Y019924D01*
X019644Y019985D01*
X020397Y019985D02*
X020397Y019800D01*
X020520Y019862D01*
X020582Y019862D01*
X020644Y019800D01*
X020644Y019677D01*
X020582Y019615D01*
X020458Y019615D01*
X020397Y019677D01*
X020397Y019985D02*
X020644Y019985D01*
X021397Y019800D02*
X021644Y019800D01*
X021582Y019615D02*
X021582Y019985D01*
X021397Y019800D01*
X022397Y019677D02*
X022458Y019615D01*
X022582Y019615D01*
X022644Y019677D01*
X022644Y019738D01*
X022582Y019800D01*
X022520Y019800D01*
X022582Y019800D02*
X022644Y019862D01*
X022644Y019924D01*
X022582Y019985D01*
X022458Y019985D01*
X022397Y019924D01*
X023397Y019924D02*
X023458Y019985D01*
X023582Y019985D01*
X023644Y019924D01*
X023644Y019862D01*
X023397Y019615D01*
X023644Y019615D01*
X024397Y019615D02*
X024644Y019615D01*
X024520Y019615D02*
X024520Y019985D01*
X024397Y019862D01*
X025397Y019924D02*
X025397Y019677D01*
X025644Y019924D01*
X025644Y019677D01*
X025582Y019615D01*
X025458Y019615D01*
X025397Y019677D01*
X025397Y019924D02*
X025458Y019985D01*
X025582Y019985D01*
X025644Y019924D01*
X023881Y021077D02*
X023881Y021324D01*
X023819Y021385D01*
X023696Y021385D01*
X023634Y021324D01*
X023634Y021077D01*
X023696Y021015D01*
X023819Y021015D01*
X023881Y021077D01*
X023513Y021385D02*
X023266Y021015D01*
X023144Y021015D02*
X023020Y021015D01*
X023082Y021015D02*
X023082Y021385D01*
X023020Y021385D02*
X023144Y021385D01*
X022530Y021015D02*
X022407Y021015D01*
X022468Y021015D02*
X022468Y021385D01*
X022407Y021385D01*
X022223Y021262D02*
X022285Y021200D01*
X022285Y021015D01*
X022100Y021015D01*
X022038Y021077D01*
X022100Y021138D01*
X022285Y021138D01*
X022223Y021262D02*
X022100Y021262D01*
X021916Y021262D02*
X021793Y021262D01*
X021854Y021324D02*
X021854Y021077D01*
X021916Y021015D01*
X021671Y021015D02*
X021547Y021015D01*
X021609Y021015D02*
X021609Y021262D01*
X021547Y021262D01*
X021426Y021262D02*
X021241Y021262D01*
X021179Y021200D01*
X021179Y021077D01*
X021241Y021015D01*
X021426Y021015D01*
X021426Y020953D02*
X021364Y020892D01*
X021302Y020892D01*
X021426Y020953D02*
X021426Y021262D01*
X021609Y021385D02*
X021609Y021447D01*
X020995Y021447D02*
X020995Y021385D01*
X020995Y021262D02*
X020995Y021015D01*
X020933Y021015D02*
X021057Y021015D01*
X020812Y021077D02*
X020812Y021324D01*
X020750Y021385D01*
X020565Y021385D01*
X020565Y021015D01*
X020750Y021015D01*
X020812Y021077D01*
X020933Y021262D02*
X020995Y021262D01*
X016281Y021324D02*
X016281Y021077D01*
X016219Y021015D01*
X016096Y021015D01*
X016034Y021077D01*
X016034Y021324D01*
X016096Y021385D01*
X016219Y021385D01*
X016281Y021324D01*
X015913Y021385D02*
X015666Y021015D01*
X015544Y021015D02*
X015420Y021015D01*
X015482Y021015D02*
X015482Y021385D01*
X015420Y021385D02*
X015544Y021385D01*
X014868Y021385D02*
X014868Y021015D01*
X014807Y021015D02*
X014930Y021015D01*
X014685Y021015D02*
X014500Y021015D01*
X014438Y021077D01*
X014500Y021138D01*
X014685Y021138D01*
X014685Y021200D02*
X014685Y021015D01*
X014685Y021200D02*
X014623Y021262D01*
X014500Y021262D01*
X014316Y021262D02*
X014193Y021262D01*
X014254Y021324D02*
X014254Y021077D01*
X014316Y021015D01*
X014071Y021015D02*
X013947Y021015D01*
X014009Y021015D02*
X014009Y021262D01*
X013947Y021262D01*
X013826Y021262D02*
X013641Y021262D01*
X013579Y021200D01*
X013579Y021077D01*
X013641Y021015D01*
X013826Y021015D01*
X013826Y020953D02*
X013826Y021262D01*
X014009Y021385D02*
X014009Y021447D01*
X013395Y021447D02*
X013395Y021385D01*
X013395Y021262D02*
X013395Y021015D01*
X013333Y021015D02*
X013457Y021015D01*
X013212Y021077D02*
X013212Y021324D01*
X013150Y021385D01*
X012965Y021385D01*
X012965Y021015D01*
X013150Y021015D01*
X013212Y021077D01*
X013333Y021262D02*
X013395Y021262D01*
X013702Y020892D02*
X013764Y020892D01*
X013826Y020953D01*
X013752Y019985D02*
X013752Y019615D01*
X013875Y019615D02*
X013628Y019615D01*
X013628Y019862D02*
X013752Y019985D01*
X013997Y019862D02*
X014120Y019985D01*
X014120Y019615D01*
X013997Y019615D02*
X014244Y019615D01*
X013244Y019615D02*
X012997Y019615D01*
X013244Y019862D01*
X013244Y019924D01*
X013182Y019985D01*
X013058Y019985D01*
X012997Y019924D01*
X012752Y019985D02*
X012628Y019862D01*
X012752Y019985D02*
X012752Y019615D01*
X012875Y019615D02*
X012628Y019615D01*
X012244Y019677D02*
X012244Y019738D01*
X012182Y019800D01*
X012120Y019800D01*
X012182Y019800D02*
X012244Y019862D01*
X012244Y019924D01*
X012182Y019985D01*
X012058Y019985D01*
X011997Y019924D01*
X011752Y019985D02*
X011752Y019615D01*
X011875Y019615D02*
X011628Y019615D01*
X011628Y019862D02*
X011752Y019985D01*
X011997Y019677D02*
X012058Y019615D01*
X012182Y019615D01*
X012244Y019677D01*
X011399Y021015D02*
X011213Y021015D01*
X011152Y021077D01*
X011152Y021200D01*
X011213Y021262D01*
X011399Y021262D01*
X011399Y021385D02*
X011399Y021015D01*
X011030Y021015D02*
X011030Y021200D01*
X010968Y021262D01*
X010783Y021262D01*
X010783Y021015D01*
X010662Y021077D02*
X010662Y021200D01*
X010538Y021200D01*
X010415Y021077D02*
X010477Y021015D01*
X010600Y021015D01*
X010662Y021077D01*
X010662Y021324D02*
X010600Y021385D01*
X010477Y021385D01*
X010415Y021324D01*
X010415Y021077D01*
X009349Y021015D02*
X009349Y021262D01*
X009225Y021385D01*
X009102Y021262D01*
X009102Y021015D01*
X008980Y021077D02*
X008980Y021324D01*
X008918Y021385D01*
X008733Y021385D01*
X008733Y021015D01*
X008918Y021015D01*
X008980Y021077D01*
X009102Y021200D02*
X009349Y021200D01*
X008612Y021138D02*
X008612Y021077D01*
X008550Y021015D01*
X008427Y021015D01*
X008365Y021077D01*
X008427Y021200D02*
X008550Y021200D01*
X008612Y021138D01*
X008612Y021324D02*
X008550Y021385D01*
X008427Y021385D01*
X008365Y021324D01*
X008365Y021262D01*
X008427Y021200D01*
X008202Y019985D02*
X008202Y019615D01*
X008449Y019615D01*
X008080Y019677D02*
X008018Y019615D01*
X007895Y019615D01*
X007833Y019677D01*
X007833Y019924D01*
X007895Y019985D01*
X008018Y019985D01*
X008080Y019924D01*
X007712Y019924D02*
X007650Y019985D01*
X007527Y019985D01*
X007465Y019924D01*
X007465Y019862D01*
X007527Y019800D01*
X007650Y019800D01*
X007712Y019738D01*
X007712Y019677D01*
X007650Y019615D01*
X007527Y019615D01*
X007465Y019677D01*
X009265Y019615D02*
X009265Y019862D01*
X009388Y019985D01*
X009512Y019862D01*
X009512Y019615D01*
X009633Y019615D02*
X009633Y019985D01*
X009818Y019985D01*
X009880Y019924D01*
X009880Y019800D01*
X009818Y019738D01*
X009633Y019738D01*
X009757Y019738D02*
X009880Y019615D01*
X010002Y019677D02*
X010002Y019800D01*
X010063Y019862D01*
X010187Y019862D01*
X010249Y019800D01*
X010249Y019738D01*
X010002Y019738D01*
X010002Y019677D02*
X010063Y019615D01*
X010187Y019615D01*
X010432Y019615D02*
X010432Y019924D01*
X010493Y019985D01*
X010493Y019800D02*
X010370Y019800D01*
X009512Y019800D02*
X009265Y019800D01*
X014807Y021385D02*
X014868Y021385D01*
X024759Y011523D02*
X024759Y011277D01*
X024882Y011400D02*
X024635Y011400D01*
X024759Y010480D02*
X024759Y010233D01*
X024882Y010357D02*
X024635Y010357D01*
X018577Y002447D02*
X018577Y002385D01*
X018577Y002262D02*
X018577Y002015D01*
X018515Y002015D02*
X018639Y002015D01*
X018761Y002015D02*
X018761Y002262D01*
X018946Y002262D01*
X019008Y002200D01*
X019008Y002015D01*
X018577Y002262D02*
X018515Y002262D01*
X018394Y002385D02*
X018394Y002138D01*
X018270Y002015D01*
X018147Y002138D01*
X018147Y002385D01*
X017552Y002385D02*
X017552Y002015D01*
X017367Y002015D01*
X017306Y002077D01*
X017306Y002200D01*
X017367Y002262D01*
X017552Y002262D01*
X017184Y002200D02*
X017184Y002015D01*
X017184Y002200D02*
X017122Y002262D01*
X016937Y002262D01*
X016937Y002015D01*
X016816Y002077D02*
X016816Y002200D01*
X016692Y002200D01*
X016569Y002077D02*
X016631Y002015D01*
X016754Y002015D01*
X016816Y002077D01*
X016816Y002324D02*
X016754Y002385D01*
X016631Y002385D01*
X016569Y002324D01*
X016569Y002077D01*
X015912Y002262D02*
X015789Y002015D01*
X015665Y002262D01*
X015544Y002200D02*
X015544Y002077D01*
X015482Y002015D01*
X015359Y002015D01*
X015297Y002077D01*
X015297Y002200D02*
X015420Y002262D01*
X015482Y002262D01*
X015544Y002200D01*
X015544Y002385D02*
X015297Y002385D01*
X015297Y002200D01*
X014812Y002262D02*
X014689Y002015D01*
X014565Y002262D01*
X014444Y002262D02*
X014382Y002200D01*
X014444Y002138D01*
X014444Y002077D01*
X014382Y002015D01*
X014259Y002015D01*
X014197Y002077D01*
X014320Y002200D02*
X014382Y002200D01*
X014444Y002262D02*
X014444Y002324D01*
X014382Y002385D01*
X014259Y002385D01*
X014197Y002324D01*
X012910Y002262D02*
X012848Y002262D01*
X012725Y002138D01*
X012725Y002015D02*
X012725Y002262D01*
X012603Y002324D02*
X012542Y002385D01*
X012418Y002385D01*
X012357Y002324D01*
X012357Y002077D01*
X012418Y002015D01*
X012542Y002015D01*
X012603Y002077D01*
X012603Y002324D01*
X012234Y002385D02*
X012111Y002385D01*
X012173Y002385D02*
X012173Y002015D01*
X012234Y002015D02*
X012111Y002015D01*
X013011Y000985D02*
X013196Y000985D01*
X013258Y000924D01*
X013258Y000800D01*
X013196Y000738D01*
X013011Y000738D01*
X013011Y000615D02*
X013011Y000985D01*
X013134Y000738D02*
X013258Y000615D01*
X013379Y000677D02*
X013441Y000615D01*
X013564Y000615D01*
X013626Y000677D01*
X013626Y000738D01*
X013564Y000800D01*
X013441Y000800D01*
X013379Y000862D01*
X013379Y000924D01*
X013441Y000985D01*
X013564Y000985D01*
X013626Y000924D01*
X013748Y000985D02*
X013995Y000985D01*
X013871Y000985D02*
X013871Y000615D01*
X020365Y002077D02*
X020612Y002324D01*
X020612Y002077D01*
X020550Y002015D01*
X020427Y002015D01*
X020365Y002077D01*
X020365Y002324D01*
X020427Y002385D01*
X020550Y002385D01*
X020612Y002324D01*
X021365Y002262D02*
X021488Y002385D01*
X021488Y002015D01*
X021365Y002015D02*
X021612Y002015D01*
X022365Y002015D02*
X022612Y002262D01*
X022612Y002324D01*
X022550Y002385D01*
X022427Y002385D01*
X022365Y002324D01*
X022365Y002015D02*
X022612Y002015D01*
X023365Y002077D02*
X023427Y002015D01*
X023550Y002015D01*
X023612Y002077D01*
X023612Y002138D01*
X023550Y002200D01*
X023488Y002200D01*
X023550Y002200D02*
X023612Y002262D01*
X023612Y002324D01*
X023550Y002385D01*
X023427Y002385D01*
X023365Y002324D01*
X024365Y002200D02*
X024612Y002200D01*
X024550Y002015D02*
X024550Y002385D01*
X024365Y002200D01*
X025365Y002200D02*
X025488Y002262D01*
X025550Y002262D01*
X025612Y002200D01*
X025612Y002077D01*
X025550Y002015D01*
X025427Y002015D01*
X025365Y002077D01*
X025365Y002200D02*
X025365Y002385D01*
X025612Y002385D01*
X024705Y000944D02*
X024767Y000882D01*
X024767Y000697D01*
X024520Y000697D02*
X024520Y000944D01*
X024705Y000944D01*
X024398Y001067D02*
X024274Y001067D01*
X024336Y001067D02*
X024336Y000697D01*
X024274Y000697D02*
X024398Y000697D01*
X023785Y000697D02*
X023599Y000697D01*
X023538Y000759D01*
X023538Y000882D01*
X023599Y000944D01*
X023785Y000944D01*
X023785Y000635D01*
X023723Y000574D01*
X023661Y000574D01*
X023416Y000759D02*
X023416Y000882D01*
X023355Y000944D01*
X023231Y000944D01*
X023169Y000882D01*
X023169Y000759D01*
X023231Y000697D01*
X023355Y000697D01*
X023416Y000759D01*
X023047Y000697D02*
X022924Y000697D01*
X022986Y000697D02*
X022986Y001067D01*
X022924Y001067D01*
X022741Y000944D02*
X022802Y000882D01*
X022802Y000697D01*
X022617Y000697D01*
X022556Y000759D01*
X022617Y000820D01*
X022802Y000820D01*
X022741Y000944D02*
X022617Y000944D01*
X022434Y000882D02*
X022434Y000697D01*
X022434Y000882D02*
X022372Y000944D01*
X022187Y000944D01*
X022187Y000697D01*
X022066Y000697D02*
X022066Y000944D01*
X021942Y001067D01*
X021819Y000944D01*
X021819Y000697D01*
X021819Y000882D02*
X022066Y000882D01*
D18*
X022504Y003492D03*
X021504Y003492D03*
X020504Y003492D03*
X018496Y003472D03*
X017496Y003472D03*
X016496Y003472D03*
X015496Y003472D03*
X014500Y003492D03*
X013500Y003492D03*
X012500Y003492D03*
X011500Y003492D03*
X023496Y003492D03*
X024496Y003492D03*
X025496Y003492D03*
X025496Y016484D03*
X024496Y016484D03*
X023496Y016484D03*
X022484Y016484D03*
X021484Y016484D03*
X020484Y016484D03*
X020508Y018492D03*
X019508Y018492D03*
X018508Y018492D03*
X016913Y018492D03*
X015913Y018492D03*
X014913Y018492D03*
X013921Y018492D03*
X012921Y018492D03*
X011921Y018492D03*
X010898Y018492D03*
X009898Y018492D03*
X008898Y018492D03*
X007898Y018492D03*
X021508Y018492D03*
X022504Y018492D03*
X023504Y018492D03*
X024504Y018492D03*
X025504Y018492D03*
D19*
X025368Y012173D03*
X025868Y012173D03*
X025868Y009063D03*
X025368Y009063D03*
D20*
X025372Y009841D02*
X025736Y009841D01*
X025736Y010333D02*
X025382Y010333D01*
X025372Y010884D02*
X025736Y010884D01*
X025736Y011376D02*
X025382Y011376D01*
D21*
X025618Y011366D03*
X025618Y010894D03*
X025618Y010323D03*
X025618Y009850D03*
D22*
X025618Y010087D03*
X025618Y011130D03*
D23*
X025854Y011130D03*
X025264Y011130D03*
X025264Y010087D03*
X025854Y010087D03*
D24*
X011945Y013941D02*
X011945Y014185D01*
X011623Y014218D01*
X011588Y014326D01*
X011536Y014427D01*
X011741Y014679D01*
X011568Y014851D01*
X011317Y014646D01*
X011216Y014698D01*
X011107Y014733D01*
X011075Y015056D01*
X010831Y015056D01*
X010798Y014733D01*
X010690Y014698D01*
X010588Y014646D01*
X010337Y014851D01*
X010165Y014679D01*
X010370Y014427D01*
X010318Y014326D01*
X010283Y014218D01*
X009960Y014185D01*
X009960Y013941D01*
X010283Y013908D01*
X010318Y013800D01*
X010370Y013699D01*
X010165Y013447D01*
X010337Y013275D01*
X010588Y013480D01*
X010690Y013428D01*
X010833Y013774D01*
X010779Y013803D01*
X010732Y013842D01*
X010693Y013889D01*
X010664Y013943D01*
X010646Y014002D01*
X010640Y014063D01*
X010647Y014127D01*
X010666Y014188D01*
X010698Y014244D01*
X010740Y014292D01*
X010791Y014331D01*
X010850Y014358D01*
X010912Y014373D01*
X010976Y014375D01*
X011039Y014363D01*
X011099Y014339D01*
X011152Y014304D01*
X011197Y014258D01*
X011232Y014204D01*
X011255Y014144D01*
X011265Y014080D01*
X011262Y014016D01*
X011246Y013954D01*
X011217Y013897D01*
X011178Y013846D01*
X011129Y013805D01*
X011072Y013774D01*
X011216Y013428D01*
X011317Y013480D01*
X011568Y013275D01*
X011741Y013447D01*
X011536Y013699D01*
X011588Y013800D01*
X011623Y013908D01*
X011945Y013941D01*
X011945Y014185D01*
X011623Y014218D01*
X011606Y014271D02*
X011184Y014271D01*
X011244Y014173D02*
X011945Y014173D01*
X011945Y014074D02*
X011264Y014074D01*
X011251Y013976D02*
X011945Y013976D01*
X011945Y013941D02*
X011623Y013908D01*
X011613Y013877D02*
X011202Y013877D01*
X011080Y013779D02*
X011577Y013779D01*
X011536Y013699D02*
X011741Y013447D01*
X011568Y013275D01*
X011317Y013480D01*
X011216Y013428D02*
X011072Y013774D01*
X011111Y013680D02*
X011551Y013680D01*
X011631Y013582D02*
X011152Y013582D01*
X011193Y013483D02*
X011712Y013483D01*
X011678Y013385D02*
X011434Y013385D01*
X011555Y013286D02*
X011580Y013286D01*
X010753Y013582D02*
X010274Y013582D01*
X010355Y013680D02*
X010794Y013680D01*
X010833Y013774D02*
X010690Y013428D01*
X010713Y013483D02*
X010194Y013483D01*
X010165Y013447D02*
X010337Y013275D01*
X010588Y013480D01*
X010471Y013385D02*
X010227Y013385D01*
X010165Y013447D02*
X010370Y013699D01*
X010329Y013779D02*
X010825Y013779D01*
X010703Y013877D02*
X010293Y013877D01*
X010283Y013908D02*
X009960Y013941D01*
X009960Y014185D01*
X010283Y014218D01*
X010300Y014271D02*
X010722Y014271D01*
X010661Y014173D02*
X009960Y014173D01*
X009960Y014074D02*
X010641Y014074D01*
X010654Y013976D02*
X009960Y013976D01*
X010340Y014370D02*
X010899Y014370D01*
X011004Y014370D02*
X011566Y014370D01*
X011536Y014427D02*
X011741Y014679D01*
X011568Y014851D01*
X011317Y014646D01*
X011340Y014665D02*
X011730Y014665D01*
X011656Y014764D02*
X011461Y014764D01*
X011280Y014665D02*
X010625Y014665D01*
X010588Y014646D02*
X010337Y014851D01*
X010165Y014679D01*
X010370Y014427D01*
X010336Y014468D02*
X011569Y014468D01*
X011649Y014567D02*
X010256Y014567D01*
X010176Y014665D02*
X010565Y014665D01*
X010444Y014764D02*
X010250Y014764D01*
X010798Y014733D02*
X010831Y015056D01*
X011075Y015056D01*
X011107Y014733D01*
X011104Y014764D02*
X010801Y014764D01*
X010811Y014862D02*
X011094Y014862D01*
X011084Y014961D02*
X010821Y014961D01*
X010370Y014427D02*
X010348Y014388D01*
X010327Y014347D01*
X010310Y014305D01*
X010295Y014262D01*
X010284Y014218D01*
X011216Y013427D02*
X011251Y013443D01*
X011285Y013460D01*
X011318Y013480D01*
X010690Y013427D02*
X010655Y013443D01*
X010621Y013460D01*
X010588Y013480D01*
X010351Y013286D02*
X010326Y013286D01*
X010834Y013775D02*
X010803Y013789D01*
X010775Y013807D01*
X010749Y013827D01*
X010725Y013850D01*
X010703Y013876D01*
X010685Y013904D01*
X010669Y013933D01*
X010657Y013964D01*
X010648Y013997D01*
X010643Y014030D01*
X010641Y014063D01*
X010640Y014063D02*
X010642Y014098D01*
X010648Y014132D01*
X010657Y014165D01*
X010670Y014197D01*
X010687Y014228D01*
X010707Y014256D01*
X010729Y014282D01*
X010755Y014305D01*
X010783Y014326D01*
X010813Y014343D01*
X010845Y014357D01*
X010878Y014367D01*
X010912Y014373D01*
X010947Y014376D01*
X010981Y014375D01*
X011016Y014370D01*
X011049Y014361D01*
X011081Y014348D01*
X011112Y014332D01*
X011141Y014313D01*
X011168Y014291D01*
X011191Y014266D01*
X011212Y014238D01*
X011230Y014208D01*
X011245Y014177D01*
X011255Y014144D01*
X011262Y014110D01*
X011266Y014076D01*
X011265Y014041D01*
X011261Y014007D01*
X011253Y013973D01*
X011241Y013940D01*
X011226Y013909D01*
X011207Y013880D01*
X011185Y013853D01*
X011161Y013829D01*
X011133Y013807D01*
X011104Y013789D01*
X011073Y013774D01*
X010370Y013699D02*
X010348Y013738D01*
X010327Y013779D01*
X010310Y013821D01*
X010295Y013864D01*
X010284Y013908D01*
X010589Y014646D02*
X010628Y014668D01*
X010669Y014689D01*
X010711Y014706D01*
X010754Y014721D01*
X010798Y014732D01*
X011536Y014427D02*
X011558Y014388D01*
X011579Y014347D01*
X011596Y014305D01*
X011611Y014262D01*
X011622Y014218D01*
X011317Y014646D02*
X011278Y014668D01*
X011237Y014689D01*
X011195Y014706D01*
X011152Y014721D01*
X011108Y014732D01*
X011622Y013908D02*
X011611Y013864D01*
X011596Y013821D01*
X011579Y013779D01*
X011558Y013738D01*
X011536Y013699D01*
D25*
X021863Y012233D03*
X021863Y011733D03*
X024257Y011733D03*
X024257Y012233D03*
X024257Y009512D03*
X024257Y009012D03*
X021863Y009012D03*
X021863Y009512D03*
M02*
