%
M48
M72
T01C0.0118
T02C0.0394
T03C0.0400
T04C0.1102
%
T01
X16465Y11524
X17488Y11504
X19299Y11799
X20598Y11110
X23984Y10618
X24772Y8925
X24575Y6642
X25047Y6642
X24083Y6642
X23610Y6642
X23118Y6642
X22626Y6642
X22114Y6642
X21622Y6642
X21150Y6642
X20677Y6642
X20677Y5539
X20185Y5539
X19693Y5539
X19201Y5520
X21169Y5539
X21642Y5539
X22134Y5539
X22646Y5539
X23138Y5539
X23630Y5539
X24102Y5539
X24594Y5539
X25067Y5539
X16484Y13531
T02
X16900Y20500
X15900Y20500
X14900Y20500
X13900Y20500
X12900Y20500
X11900Y20500
X10900Y20500
X9900Y20500
X8900Y20500
X7900Y20500
X18500Y20500
X19500Y20500
X20500Y20500
X21500Y20500
X22500Y20500
X23500Y20500
X24500Y20500
X25500Y20500
X25500Y1500
X24500Y1500
X23500Y1500
X22500Y1500
X21500Y1500
X20500Y1500
X18500Y1500
X17500Y1500
X16500Y1500
X15500Y1500
X14500Y1500
X13500Y1500
X12500Y1500
X11500Y1500
T03
X11500Y3492
X12500Y3492
X13500Y3492
X14500Y3492
X15496Y3472
X16496Y3472
X17496Y3472
X18496Y3472
X20504Y3492
X21504Y3492
X22504Y3492
X23496Y3492
X24496Y3492
X25496Y3492
X25496Y16484
X24496Y16484
X23496Y16484
X22484Y16484
X21484Y16484
X20484Y16484
X20508Y18492
X19508Y18492
X18508Y18492
X16913Y18492
X15913Y18492
X14913Y18492
X13921Y18492
X12921Y18492
X11921Y18492
X10898Y18492
X9898Y18492
X8898Y18492
X7898Y18492
X21508Y18492
X22504Y18492
X23504Y18492
X24504Y18492
X25504Y18492
T04
X6012Y1504
X26484Y3492
X26484Y14496
X6504Y20520
M30
